<svg width="228" height="80" viewBox="0 0 228 80" fill="none" xmlns="http://www.w3.org/2000/svg">
<path d="M74.0279 47.0404C74.7922 35.0891 83.0409 24.1952 94.2912 20.1243C102.457 -2.10718 131.963 -7.21162 147.118 11.3449C160.522 27.7592 153.438 52.6438 133.729 59.7362C130.244 70.2025 119.295 78.958 108.234 79.853H101.518L96.0534 78.6808C85.7139 75.6593 77.5602 67.1097 74.9466 56.6711L74.0279 51.2618C74.0913 49.8758 73.9408 48.4224 74.0279 47.0444V47.0404ZM99.17 27.6681C97.8711 28.0443 96.5326 28.4442 95.3169 29.0462C94.8179 29.2917 94.3942 29.3154 94.319 29.9253C94.212 30.8163 94.4021 32.8557 94.5051 33.8219C96.6633 54.1803 119.101 66.0365 137.127 56.0336C155.331 45.9276 157.164 20.3619 140.544 7.76511C125.647 -3.53674 104.005 2.40327 96.6752 19.3877L102.429 18.4254C111.2 3.43287 132.699 2.50623 142.877 16.683C152.693 30.3609 145.692 49.9035 129.508 54.1842C112.769 58.6155 97.0078 44.7436 99.1739 27.6681H99.17ZM135.566 49.0719C135.665 49.1867 136.731 48.4066 136.889 48.2878C146.872 40.7994 148.155 25.6128 140.017 16.2593C130.391 5.19507 113.042 6.30387 104.793 18.2908C121.492 18.0928 135.871 32.3211 135.562 49.0719H135.566ZM128.85 52.1963C129.044 52.4062 133.218 50.7588 133.539 50.4024C133.693 50.2322 133.677 50.145 133.701 49.9391C133.804 49.0758 133.626 47.2661 133.535 46.3395C130.783 18.6789 94.1091 10.5846 79.9956 34.4951C65.601 58.8769 91.7014 87.3493 117.35 75.1445C123.381 72.2735 128.842 66.7335 131.195 60.4807L125.73 61.4944C116.257 77.275 92.933 77.3463 83.7933 61.1103C73.43 42.7002 89.765 20.9202 110.302 25.5336C122.253 28.2185 130.517 39.9956 128.858 52.2003L128.85 52.1963ZM126.795 52.6438C127.349 48.268 126.898 43.9793 125.076 39.956C120.994 30.9311 111.046 25.5178 101.209 27.2087C100.956 29.9372 100.893 32.6339 101.435 35.3267C103.748 46.8028 115.204 54.806 126.795 52.6438ZM123.227 61.5736C107.415 61.7637 93.8081 49.2461 92.4578 33.5249C92.4221 33.125 92.6122 30.7846 92.2202 30.7965C87.8602 33.9447 84.4982 38.562 83.2508 43.8526C79.1205 61.34 96.0297 76.2652 112.84 69.8579C117.022 68.266 120.736 65.2723 123.223 61.5736H123.227Z" fill="#FAE7D7"/>
<path d="M140.376 79.8497H139.283L138.82 78.9825C139.231 77.046 139.101 74.8166 139.449 72.9039C139.687 71.605 141.473 71.6327 141.485 73.2088C141.493 74.2859 141.104 78.1509 140.835 79.133C140.744 79.4656 140.55 79.5844 140.376 79.8458V79.8497Z" fill="#FAE7D7"/>
<path d="M145.018 70.5085C145.236 70.4452 145.537 70.4333 145.763 70.4768C146.495 70.6194 149.624 74.4487 150.535 75.0823C151.208 76.009 150.21 77.1772 149.196 76.5752L144.44 71.6371C144.333 71.2094 144.587 70.6352 145.022 70.5046L145.018 70.5085Z" fill="#FAE7D7"/>
<path d="M152.372 64.8968C153.774 64.4731 154.645 66.0413 153.35 66.8135L147.018 67.5184C145.787 67.4748 145.672 65.8512 146.614 65.5463C148.171 65.0434 150.709 65.3245 152.372 64.8968Z" fill="#FAE7D7"/>
<path d="M74 14.3831V13.6029C74.2257 13.3099 74.3643 13.1317 74.7405 13.0169C75.5642 12.7595 79.841 12.3318 80.7954 12.3397C81.9596 12.3516 82.3754 13.8207 81.3022 14.2682C80.9775 14.4029 80.2449 14.4662 79.837 14.5217C78.253 14.7395 76.6017 14.6999 75.0217 15.0048L74 14.387V14.3831Z" fill="#FAE7D7"/>
<path d="M78.0185 3.16041C78.4343 3.08517 78.6046 3.22773 78.9174 3.44949C79.452 3.82569 82.8695 7.23129 83.214 7.74213C83.9229 8.80737 83.0398 9.84489 81.8756 9.23505C81.2301 8.28861 77.2661 5.05329 77.1434 4.26921C77.0721 3.80589 77.5671 3.23565 78.0146 3.15645L78.0185 3.16041Z" fill="#FAE7D7"/>
<path d="M87.7009 0.0439398C88.5919 -0.15406 88.98 0.33302 89.0077 1.18442L88.3305 7.23926C87.8435 8.2847 86.3387 8.01938 86.3505 6.82742C86.3664 4.91474 87 2.7011 86.996 0.74486C87.0792 0.38054 87.3366 0.12314 87.7009 0.0399797V0.0439398Z" fill="#FAE7D7"/>
</svg>
