<svg width="96" height="134" viewBox="0 0 96 134" fill="none" xmlns="http://www.w3.org/2000/svg">
<g clip-path="url(#clip0_316_1557)">
<path d="M57.0973 125.65C51.8448 120.52 46.3715 115.246 39.4883 112.744C30.5735 109.507 19.9395 111.704 13.0189 118.219C12.1458 119.043 11.2964 119.983 11.011 121.152C10.3383 123.921 12.9917 126.303 15.4583 127.705C22.6778 131.813 30.8317 133.895 38.8768 135.935C43.076 136.999 47.2719 138.065 51.4711 139.128C54.0328 139.777 56.9036 140.389 59.1935 139.063C61.0383 137.993 62.0847 135.683 61.6736 133.577C61.2625 131.471 60.4539 128.928 57.0973 125.65Z" fill="#A8B5A8" fill-opacity="0.7"/>
<path d="M25.62 18.331C25.8171 21.3595 27.0877 24.1897 28.1035 27.0472C28.2972 27.5907 28.4739 28.2162 28.1885 28.7153C27.8929 29.2314 27.2372 29.3852 26.663 29.5288C19.5658 31.2891 15.2001 39.3251 15.9577 46.6399C16.7153 53.9547 21.6043 60.309 27.543 64.5919C30.621 66.8102 34.1204 68.6184 37.8949 68.9568C41.6661 69.2952 45.7362 67.9451 47.9683 64.8688C52.3816 58.7913 48.1654 49.2035 52.6806 43.2013C55.3578 39.643 60.1889 38.6381 63.8072 36.0608C69.4809 32.0172 71.5771 24.6033 72.6269 17.6884C73.0958 14.6018 73.4185 11.3614 72.3653 8.42186C71.2034 5.18148 68.3224 2.62471 64.9827 1.8693C61.643 1.1139 57.95 2.18035 55.5209 4.60722C53.3091 6.81875 52.086 10.0455 49.4055 11.6486C48.8958 11.9528 48.3149 12.1955 47.7271 12.1305C45.9265 11.9323 45.6275 9.50197 45.2232 7.72455C44.4248 4.22781 41.1021 1.81804 37.5756 1.3019C26.7072 -0.287525 25.4264 15.3025 25.6234 18.331H25.62Z" fill="#A8B5A8" fill-opacity="0.7"/>
<path d="M69.3078 101.238C69.2907 101.324 69.2975 101.283 69.3078 101.238V101.238Z" fill="black"/>
<path d="M99.5924 34.0238C99.4769 33.8939 99.2833 33.911 99.127 33.9213C98.8654 33.9418 98.6004 33.9623 98.3388 33.9862C97.4384 34.0682 96.5415 34.1708 95.6446 34.287C91.5643 34.7826 87.5723 35.9209 83.808 37.5787C81.3584 38.6998 79.1365 40.2516 76.9927 41.8752C75.5963 42.887 74.217 43.9227 72.909 45.0438C71.2782 46.4795 69.6236 47.8911 67.9725 49.3062C66.6237 50.5094 65.5773 51.5451 64.3984 52.9568C63.7597 53.7156 63.1311 54.4984 62.6691 55.3803C61.8843 56.8227 61.3475 58.3848 60.7835 59.9229C60.4064 60.9826 60.0327 62.049 59.7609 63.1428C59.4721 64.3494 59.2853 65.5765 59.1528 66.807C59.0406 67.8393 58.9727 68.8818 59.0712 69.9175C59.163 70.9293 59.4178 71.9205 59.7235 72.8879C60.3996 74.9832 61.6465 76.8187 62.771 78.6884C64.3848 81.3717 64.0485 81.7135 63.8174 82.5509C63.5932 83.3576 63.2942 84.1369 62.9375 84.8957C62.6725 85.4597 62.2784 86.2459 62.0542 86.6082C61.6465 87.2679 60.9364 88.3309 60.5525 89.2367C60.5491 89.2436 60.5457 89.2539 60.5423 89.2607C58.796 84.489 57.5424 79.5532 56.2683 74.638C55.6296 72.2726 54.7735 69.897 54.3046 67.6718C53.8697 65.6927 53.5708 63.6863 53.4111 61.6628C53.2378 60.0768 53.1529 58.4019 53.2412 56.9834C53.2888 55.8212 53.3601 54.659 53.3295 53.4969C53.2718 51.5656 53.2005 49.6412 53.7203 47.8706C54.1619 46.394 55.0758 44.996 55.7859 43.7894C56.2276 43.0237 56.7304 42.2854 57.0871 41.4719C57.3012 40.8259 57.3963 40.1457 57.4778 39.4689C57.5118 39.1783 57.5424 38.8878 57.5763 38.5938C57.5933 38.5767 57.6103 38.5528 57.6205 38.5289C58.0418 37.4453 58.7994 36.8164 59.7881 36.0542C60.5627 35.4526 61.3203 34.8339 62.0677 34.205C63.5694 32.9061 64.8537 31.344 65.8593 29.6281C66.216 28.9957 66.6 28.3668 66.814 27.6695C67.2421 26.4732 67.2285 25.1982 67.344 23.9472C67.4629 22.6073 67.7517 21.3426 68.1424 20.2043C68.8252 18.1295 69.7086 16.1026 70.0246 13.9252C70.2862 12.305 70.1061 10.6643 69.8649 9.05441C69.5761 7.05823 69.1786 5.07913 68.8354 3.08978C68.6894 2.2831 68.5772 1.46959 68.4821 0.656076C68.4583 0.492006 68.4583 0.321096 68.4108 0.160444C68.3598 0.0237193 68.1695 -0.0241169 68.0574 0.0715905C67.8638 0.280096 67.7109 0.533028 67.4935 0.724443C66.7902 1.39781 65.6521 2.04043 64.6906 2.5258C63.1244 3.33248 61.4698 3.97507 59.9681 4.9048C57.3657 6.56259 55.5923 9.1843 53.9547 11.7479C53.2718 12.8383 52.6297 13.9902 52.0487 14.9473C51.3081 16.2222 50.5946 17.5382 50.1496 18.9499C49.3002 17.381 48.1519 15.9453 47.0035 14.4174C46.0964 13.1903 45.2335 11.9188 44.1361 10.8523C42.417 9.13987 40.6435 8.12809 38.2721 7.59829C36.8962 7.29407 35.4862 7.21547 34.0797 7.22572C33.0808 7.24623 32.0888 7.37612 31.0933 7.47866C29.8567 7.5812 28.7933 7.49234 27.6517 7.4855C27.0334 7.50601 27.1387 8.00846 27.1659 8.49383C27.1625 8.93135 27.1863 9.15696 27.1048 9.63892C26.7039 11.871 25.3585 14.0654 24.8726 16.4478C24.6212 17.6954 24.6076 18.9943 24.7911 20.2488C24.9746 21.3562 25.3619 22.4193 25.8545 23.4242C26.2758 24.2617 26.7922 25.0478 27.278 25.8477C27.808 26.7466 28.158 27.3961 28.6608 28.3497C29.2859 29.4845 29.9756 30.5852 30.7434 31.6277C30.9948 31.9388 31.2564 32.2464 31.535 32.5369C30.0198 32.554 28.5011 32.6053 27.0164 32.9608C25.3823 33.3128 23.8092 33.8768 22.226 34.4135C20.8025 34.9125 18.8931 35.2885 17.9622 36.5737C17.6735 37.0386 17.5478 37.5821 17.4085 38.105C17.2046 38.9322 17.0517 39.7731 16.8309 40.5969C16.2907 42.6443 15.7675 44.7396 15.8049 46.8725C15.8932 48.9337 16.6305 50.8991 17.3507 52.8098C17.8501 54.0403 18.4141 55.2572 19.1683 56.3476C20.0279 57.5405 21.0811 58.5796 22.1717 59.5572C24.8353 61.967 27.3969 64.0315 31.1171 64.3118C32.2111 64.4041 33.3085 64.3392 34.3956 64.199C35.2552 64.0965 36.1147 63.9905 36.9641 63.823C38.0105 63.6248 39.0467 63.3923 40.0694 63.0915C41.0206 62.8113 41.7647 62.6403 42.8179 62.425C43.9696 62.2131 45.1451 62.1686 46.2867 61.8918C46.8608 61.7448 47.6253 61.6491 47.7 60.9791C48.1281 61.5739 48.5392 62.1789 49.0148 62.7395C49.9321 63.8845 50.9683 64.8279 51.7973 65.8465C52.3613 66.5644 52.5889 67.1113 53.017 67.9453C53.0306 67.9863 53.0578 68.0205 53.0883 68.0478C53.5198 69.1621 53.7474 70.42 54.026 71.6539C54.6342 74.262 55.0894 76.9008 55.5752 79.5327C55.9626 81.6041 56.4484 83.6618 57.1619 85.6443C57.6783 87.0013 58.2592 88.3344 58.6397 89.7392C58.9183 90.8159 59.163 92.5558 59.4212 93.8854C59.6216 94.8152 59.8255 95.7449 60.1075 96.6507C60.4846 97.7787 60.9466 98.9647 61.2558 100.113C61.4223 100.739 62.0542 103.159 62.1357 103.685C62.0406 103.569 61.9387 103.439 61.8333 103.316C61.4902 102.926 61.1199 102.567 60.736 102.222C57.8482 99.6313 57.5016 99.9936 57.6851 96.1311C57.7496 94.7707 57.7836 93.4069 57.7768 92.0465C57.77 90.1802 57.4201 88.3173 56.7609 86.5741C56.3465 85.4939 55.7553 84.4958 55.1404 83.5217C54.2095 82.0313 53.2004 80.5581 51.8449 79.4233C49.7554 77.7655 47.4384 76.3914 44.9753 75.3831C43.246 74.6038 41.4215 73.9543 39.519 73.7868C37.5213 73.5749 35.5236 73.8791 33.5293 74.033C32.2009 74.1492 30.8623 74.2483 29.5611 74.5628C28.5826 74.7918 27.6314 75.1199 26.7005 75.4891C26.6835 75.4651 26.6699 75.4412 26.6529 75.4173C24.9304 72.9699 22.6745 71.2438 19.9362 70.0782C18.336 69.3911 16.695 68.7998 15.0099 68.3589C13.4369 67.9453 11.8367 67.6547 10.2331 67.3915C8.82315 67.1693 7.41322 66.9301 5.99309 66.7694C4.82777 66.6703 3.65565 66.6293 2.48694 66.6054C2.15059 66.6122 1.79386 66.5849 1.48809 66.7421C1.14155 66.9403 1.05322 67.3847 1.06681 67.7607C1.0736 68.2495 1.16193 68.7314 1.20269 69.2168C1.3284 70.5396 1.32842 71.5582 1.13476 72.8434C0.964891 74.0398 0.750845 75.2293 0.553794 76.4222C0.329563 77.6425 0.207257 78.8867 0.343154 80.124C0.492641 81.9322 1.02604 83.6721 1.66476 85.3572C2.95918 88.8984 5.08257 92.149 7.87526 94.6716C9.1493 95.844 10.5898 96.8455 12.1492 97.5941C13.0564 98.0487 14.028 98.3461 14.9895 98.6503C15.9646 98.9784 16.9464 99.2792 17.9317 99.5766C18.9713 99.8979 20.0143 100.236 21.0811 100.452C22.7798 100.705 24.4344 100.605 25.8647 101.457C26.6019 101.85 27.3222 102.277 28.0798 102.632C28.5691 102.837 29.0787 103.094 29.6154 103.114C29.9484 103.077 29.9926 102.701 29.9552 102.431C29.928 102.263 29.8805 102.103 29.8193 101.949C30.3901 102.759 30.9982 103.548 31.7422 104.208C32.7445 105.09 33.9642 105.647 35.1397 106.252C36.5224 107.018 37.8848 107.825 39.2574 108.604C40.8202 109.588 42.9708 110.945 44.6083 112.23C45.879 113.263 46.9831 114.5 48.2232 115.591C49.7589 117.053 51.2503 118.961 52.9762 120.475C54.2435 121.637 55.6025 122.693 56.8833 123.845C58.2321 125.107 59.309 126.255 60.5525 127.574C60.9534 127.981 61.4426 128.569 61.6533 128.959C61.0723 128.986 60.0395 128.884 59.2547 128.938C57.2672 129.137 56.958 129.304 55.8097 127.588C54.8041 126.012 53.9683 124.334 52.9219 122.782C52.0351 121.5 50.9887 120.342 49.9321 119.207C47.8155 116.947 45.332 114.962 42.4646 113.765C41.3536 113.341 40.1985 113.023 39.0298 112.829C37.8984 112.651 36.7535 112.61 35.6119 112.572C34.3855 112.548 33.1556 112.504 31.9359 112.651C30.2949 112.866 28.6744 113.307 27.1455 113.953C26.3166 114.322 25.5283 114.78 24.7028 115.16C23.8025 115.601 22.8681 115.973 21.9339 116.336C20.5885 116.883 19.1649 117.228 17.8501 117.85C17.0993 118.212 16.4504 118.742 15.8423 119.309C14.6565 120.372 13.7053 121.658 12.6351 122.833C10.7733 124.854 8.72463 127 6.907 128.767C6.74393 128.925 6.58085 129.078 6.42117 129.236C6.45515 129.201 6.47892 129.178 6.43475 129.222C6.32943 129.318 6.23091 129.441 6.2479 129.591C6.27168 129.755 6.42795 129.841 6.57744 129.871C6.78468 129.912 6.99534 129.919 7.20598 129.947C7.94662 130.036 8.68046 130.172 9.41431 130.309C10.6102 130.552 11.8129 130.767 13.0088 131.013C14.6497 131.393 16.2907 131.779 17.9181 132.223C19.4299 132.678 20.952 133.081 22.4741 133.495C23.7719 133.847 25.0629 134.247 26.3947 134.452C29.0141 134.869 31.6879 134.804 34.2767 135.46C36.2914 135.939 38.6424 137.196 40.861 137.86C41.8768 138.15 42.9164 138.352 43.9526 138.564C45.4135 138.837 46.9322 138.957 48.4067 138.741C50.1326 138.475 51.7124 137.648 53.1393 136.66C53.6659 136.291 54.145 135.857 54.6342 135.443C55.1744 135.005 55.6908 134.537 56.0985 133.97C56.5503 133.354 56.9104 132.661 57.1143 131.922C57.3895 131.027 57.0056 130.343 56.214 129.919C55.4869 129.519 54.6987 129.246 53.9309 128.942C52.6772 128.432 51.3896 128.022 50.0986 127.612C48.4101 127.031 46.7147 126.46 44.9719 126.06C43.3139 125.705 41.622 125.462 39.9267 125.373C38.408 125.325 36.8928 125.445 35.3741 125.479C33.6856 125.5 31.9971 125.633 30.3085 125.64C28.1682 125.616 26.2418 125.554 23.9995 125.459C22.3959 125.387 20.8229 125.004 19.2159 125.001C18.5058 125.007 17.8094 125.192 17.1299 125.39C16.7697 125.51 16.413 125.636 16.0597 125.773C16.1888 125.708 16.3281 125.647 16.481 125.578C17.9079 124.942 19.131 124.567 20.5749 124.307C21.4752 124.105 22.3993 124.03 23.32 123.996C24.3324 123.961 25.0187 123.968 26.0244 124.102C27.1081 124.218 28.1478 124.57 29.2315 124.69C30.7774 124.881 32.3368 124.823 33.8928 124.823C34.9291 124.826 35.9381 124.888 37.1068 124.864C39.2098 124.819 41.0308 124.864 43.178 125.103C44.0716 125.195 44.9685 125.25 45.8518 125.407C46.7827 125.585 47.3705 125.773 48.2742 126.105C49.6943 126.621 50.9887 127.41 52.3273 128.097C53.6048 128.726 54.9332 129.236 56.2038 129.878C56.7134 130.114 57.2264 130.364 57.7836 130.473C58.8538 130.654 59.9545 130.586 61.0179 130.811C64.1708 131.55 66.9771 133.72 68.6316 136.79C70.1774 139.497 71.5024 143.267 72.6474 146.456C73.0822 147.652 73.456 148.876 73.9724 150.042C74.5839 151.416 75.3517 152.708 76.1773 153.962C77.2305 155.548 78.1342 157.227 79.1908 158.813C79.4864 159.264 79.7854 159.712 80.0912 160.156C80.1081 160.18 80.1285 160.2 80.1523 160.214C80.6178 160.922 81.0288 161.67 81.4467 162.409C82.1194 163.636 83.0062 165.372 83.7468 166.821C85.3232 169.908 86.9608 172.96 88.5542 176.037C90.066 178.949 91.5745 181.171 92.8757 184.22C94.5778 188.212 95.7907 192.389 97.1837 196.494C97.4555 197.325 97.7408 198.152 98.0228 198.976C98.1044 199.208 98.1859 199.444 98.2674 199.68C98.2912 199.775 98.3727 199.861 98.4747 199.857C98.5596 199.864 98.6445 199.806 98.6751 199.731C98.7091 199.656 98.6853 199.577 98.6581 199.505C98.58 199.27 98.5018 199.03 98.4237 198.794C98.1995 198.107 97.9753 197.42 97.7544 196.733C96.3615 192.512 95.1214 188.226 93.3989 184.124C92.2438 181.355 90.7217 178.973 89.4477 176.58C87.963 173.743 86.4749 170.906 84.9801 168.076C84.0628 166.322 83.1658 164.555 82.2282 162.812C81.6914 161.855 81.1647 160.884 80.5532 159.971C80.5464 159.927 80.5328 159.883 80.5056 159.848C80.3901 159.681 80.278 159.513 80.1659 159.346C79.765 158.748 79.3743 158.146 78.9904 157.538C78.4026 156.608 77.8556 155.654 77.2849 154.714C76.7854 153.921 76.2589 153.142 75.773 152.339C75.0392 151.118 74.3019 149.645 73.7957 148.111C73.1196 146.179 72.4334 144.248 71.7063 142.337C70.9793 140.341 70.1299 138.389 69.0971 136.537C67.5342 133.601 64.7823 131.287 61.5717 130.408C60.3487 130.022 58.5684 130.162 57.5763 129.882C56.7338 129.588 55.9456 129.154 55.137 128.781C54.3522 128.415 53.5436 128.111 52.769 127.725C51.427 127.065 50.153 126.258 48.7532 125.722C47.8903 125.387 47.0069 125.1 46.0964 124.919C45.2063 124.744 44.2958 124.69 43.3954 124.597C41.1056 124.327 38.8021 124.3 36.4987 124.355C35.3537 124.358 34.3005 124.29 33.0367 124.314C31.6131 124.341 30.4614 124.344 28.9971 124.149C27.9677 123.992 26.9689 123.681 25.9292 123.586C25.0357 123.466 24.132 123.469 23.2317 123.503C22.2668 123.541 21.3019 123.637 20.3574 123.856C18.7742 124.136 17.2454 124.662 15.8015 125.366C15.2477 125.643 14.7415 126.009 14.2149 126.337C13.549 126.771 12.8627 127.175 12.1832 127.585C12.0337 127.691 12.0745 127.961 12.258 128.002C12.3225 128.026 12.3938 128.009 12.455 127.981C12.6385 127.909 12.8219 127.831 13.002 127.756C13.831 127.414 14.609 126.959 15.404 126.546C15.9374 126.289 16.4912 126.081 17.0517 125.893C17.806 125.66 18.4107 125.479 19.2737 125.462C20.6972 125.462 22.6473 125.913 24.2815 125.958C26.3981 126.047 28.5147 126.132 30.6347 126.139C32.544 126.094 34.4568 125.992 36.3662 125.951C37.8848 125.896 39.3355 125.8 40.7047 125.923C42.0399 126.057 43.3717 126.231 44.6831 126.511C46.3784 126.894 47.7544 127.339 49.4225 127.916C51.0023 128.436 52.5889 128.931 54.1313 129.564C54.9773 129.902 55.8097 130.2 56.2819 130.589C56.958 131.054 56.6794 131.868 56.1494 132.886C55.6942 133.73 54.9637 134.486 54.0906 135.166C52.8879 136.226 51.7769 136.957 50.4282 137.566C48.213 138.564 45.8688 138.403 43.3988 137.88C42.2505 137.631 41.2822 137.449 40.314 137.097C38.0037 136.27 35.7954 135.101 33.356 134.688C30.8147 134.195 28.2055 134.271 25.671 133.744C24.5261 133.508 23.4083 133.153 22.2736 132.855C20.5681 132.421 18.8796 131.922 17.1774 131.468C15.8219 131.133 14.4629 130.805 13.1005 130.5C11.9964 130.275 10.882 130.087 9.77784 129.865C8.97265 129.721 7.64083 129.478 6.97833 129.427C8.77558 127.708 10.9024 125.476 12.7302 123.517C14.7551 121.36 16.2839 118.865 19.0256 117.932C20.9758 117.259 22.9361 116.602 24.7979 115.71C26.004 115.153 27.1455 114.452 28.4128 114.039C29.731 113.601 30.7468 113.341 32.1058 113.17C33.3696 113.034 34.7422 113.085 35.8192 113.109C38.2891 113.143 40.6197 113.495 42.7771 114.445C46.6434 116.243 49.7045 119.33 52.3443 122.758C53.3092 124.129 54.1042 125.609 54.9535 127.055C55.4903 127.896 55.9829 128.87 56.8901 129.352C57.3929 129.601 57.9806 129.54 58.5208 129.485C59.5299 129.338 60.3623 129.393 61.2932 129.427C61.5446 129.427 61.813 129.461 62.0508 129.362C62.1459 129.314 62.2138 129.212 62.207 129.102C62.1969 129.003 62.1391 128.921 62.0949 128.832C61.8911 128.446 61.6295 128.094 61.3339 127.773C59.8968 126.228 58.4427 124.693 56.8867 123.268C54.8482 121.514 52.735 119.822 51.0465 117.918C50.418 117.252 49.82 116.558 49.1813 115.898C48.5969 115.297 47.9684 114.739 47.3535 114.165C46.5075 113.355 45.7057 112.494 44.7782 111.779C43.8609 111.055 42.8824 110.415 41.9108 109.769C40.844 109.052 39.7704 108.348 38.6492 107.722C37.3378 106.994 36.074 106.184 34.7286 105.517C33.3288 104.844 32.4319 104.253 31.6301 103.436C31.8747 103.617 32.1262 103.791 32.3912 103.959C33.8317 104.905 35.4353 105.531 37.0966 105.938C37.2359 106.027 37.3752 106.112 37.5145 106.197C38.4114 106.734 39.6549 107.356 40.3581 107.79C41.4623 108.529 42.4442 109.438 43.4906 110.255C44.2856 110.891 45.1112 111.485 45.896 112.135C46.7759 112.866 47.6321 113.629 48.4848 114.394C49.5788 115.365 50.5844 116.428 51.6342 117.447C53.5979 119.374 55.3544 121.053 57.1313 123.093C58.1166 124.184 59.0882 125.291 60.1652 126.289C61.2558 127.301 62.4449 128.2 63.5423 129.201C65.8049 131.242 67.8128 133.372 69.5217 136.031C71.1287 138.519 72.2771 141.185 73.4424 144.036C74.1559 145.824 74.8829 147.605 75.6337 149.379C76.2113 150.746 76.7141 152.158 77.4751 153.436C77.6314 153.658 77.8115 153.884 78.0697 153.986C78.175 154.038 78.2973 153.979 78.3687 153.894C78.4264 153.812 78.4332 153.709 78.4264 153.614C78.3075 152.783 77.9712 152 77.6858 151.218C77.2577 150.12 76.8092 149.03 76.3608 147.94C75.3517 145.434 74.4072 142.901 73.473 140.368C73.0211 139.128 72.5183 137.907 72.029 136.684C72.0121 136.598 71.9679 136.516 71.9509 136.431C71.781 135.867 71.6417 135.293 71.4685 134.729C71.2272 133.925 70.8909 133.156 70.6191 132.367C70.1876 131.167 69.8071 129.95 69.3722 128.754C68.6078 126.727 67.9555 124.662 67.2556 122.615C66.8989 121.623 66.6305 120.595 66.199 119.631C65.506 118.011 65.0201 116.315 64.5887 114.606C64.2251 113.235 63.9092 112.159 63.7427 110.709C63.6136 109.674 63.5524 108.628 63.3622 107.602C62.9341 105.299 62.3871 104.615 60.0191 102.574C59.2955 101.952 58.5208 101.392 57.8414 100.718C57.5016 100.4 57.1211 99.9116 56.6727 99.4741C56.2989 99.1391 55.8539 98.8964 55.419 98.6503C54.3046 98.0179 53.1733 97.4095 51.9944 96.907C51.0125 96.4695 49.9865 96.1414 48.991 95.738C48.1824 95.3723 47.4214 94.9074 46.6332 94.5041C45.7261 94.0426 44.8801 93.4171 43.9866 92.6993C43.0829 91.9849 42.1894 91.2535 41.3026 90.5152C40.6401 89.9478 39.9946 89.3496 39.2608 88.8744C38.7172 88.5258 37.8848 88.0712 37.5213 87.849C36.3967 87.1449 35.2654 86.4578 34.0865 85.8528C32.9789 85.2513 31.8408 84.7146 30.7128 84.1506C30.4818 84.0344 30.2542 83.9148 30.0231 83.7951C29.4252 81.0299 28.5011 78.3261 26.9994 75.93C28.0934 75.4993 29.2213 75.1473 30.2066 74.9558C31.4908 74.7097 32.8023 74.6277 34.1035 74.5115C36.3492 74.3235 38.3095 74.0569 40.4737 74.4397C42.2335 74.7337 43.8677 75.4446 45.614 76.2069C47.1564 76.8837 48.4916 77.663 49.7894 78.5175C51.1994 79.4575 52.3307 80.3565 53.299 81.6588C53.8562 82.3937 54.359 83.1696 54.8482 83.9523C55.6704 85.2307 56.2785 86.4339 56.7202 88.1293C56.8493 88.6762 57.0701 89.6333 57.1585 90.4229C57.257 91.2774 57.2672 92.1387 57.2604 92.9967C57.2502 93.9914 57.2298 94.7365 57.1755 95.885C57.1449 96.9139 57.0668 97.9666 57.2672 98.9818C57.522 100.284 59.0067 101.31 59.7167 101.928C60.3283 102.461 60.9908 103.029 61.4189 103.511C61.7178 103.808 61.9217 104.215 62.2852 104.441C62.4211 104.512 62.608 104.461 62.6589 104.311C62.7031 104.164 62.6657 104.003 62.6589 103.853C62.6148 103.449 62.5196 103.056 62.4347 102.66C62.3565 102.297 62.1391 101.487 62.1221 101.429C61.9556 100.814 61.762 100.202 61.5887 99.5903C61.2184 98.1615 60.6408 96.8011 60.2875 95.3655C59.9036 93.964 59.6352 92.002 59.3124 90.3545C58.8945 88.1976 57.8549 86.2357 57.257 84.1335C56.5367 81.7682 56.1324 79.3994 55.667 76.829C55.3952 75.2361 55.0724 73.6535 54.7055 72.0778C54.4439 70.9293 54.2673 70.0508 53.9105 68.8511C53.7203 68.2529 53.513 67.6547 53.2038 67.1078C53.1257 66.9677 53.0442 66.8275 52.966 66.6874C52.7928 66.3661 52.6025 66.0551 52.385 65.7611C52.0827 65.327 51.4814 64.7015 51.2605 64.4861C50.4825 63.6487 49.6943 62.8215 49.008 61.902C48.3387 61.0953 47.8087 60.1793 47.0885 59.4136C46.0319 58.2651 44.802 57.3047 43.6537 56.2519C42.3592 55.0453 41.092 53.8079 39.8078 52.5876C39.0467 51.8288 38.2891 50.9879 37.3684 50.1949C35.4285 48.5782 33.2915 47.228 31.1613 45.8847C30.4682 45.4403 29.8227 44.9208 29.1364 44.473C28.2633 43.9261 27.4615 43.5057 26.7038 43.0032C25.5351 42.2 24.4853 41.2429 23.3744 40.3644C22.9939 40.0773 22.6066 39.797 22.1955 39.5543C21.9508 39.4244 21.6892 39.2228 21.4039 39.3048C20.6734 39.6842 21.7504 40.4704 22.0528 40.7985C23.1026 41.7966 24.2611 42.6648 25.4366 43.5091C26.6733 44.4115 27.9541 45.2489 29.2485 46.0659C30.0469 46.5923 30.7944 47.187 31.5622 47.7544C32.6969 48.6158 33.8385 49.4772 34.8849 50.4479C36.6346 52.0681 38.0309 53.6199 39.6923 55.2299C41.1701 56.7304 42.9232 57.9233 44.7442 58.9624C45.2471 59.2496 45.7431 59.5572 46.2459 59.8477C46.8676 60.1759 47.5199 60.6852 47.2244 61.1159C47.0579 61.3073 46.1508 61.4919 45.3014 61.6183C44.3535 61.7277 43.3988 61.7858 42.4646 61.9875C41.2687 62.2199 39.7296 62.6677 38.7953 62.9104C36.8486 63.3718 34.8611 63.6658 32.8668 63.7991C29.4728 63.9221 27.03 62.9548 24.3189 60.7125C22.5454 59.2222 20.9384 57.8891 19.6236 56.0741C18.883 55.0111 18.3699 53.8523 17.8365 52.5295C17.1435 50.6735 16.4946 49.0123 16.3281 47.1289C16.199 45.1635 16.7154 42.9451 17.2522 40.884C17.4934 39.9508 17.7278 38.7306 17.9385 37.941C18.1865 37.0864 18.3733 36.6113 19.0732 36.2046C20.1808 35.4902 21.9576 35.0903 23.3778 34.5741C25.0765 33.9896 26.5068 33.535 28.2157 33.265C29.2621 33.0907 30.3221 33.0667 31.3787 33.0565C31.5996 33.0565 31.8306 33.0565 32.0684 33.0496C32.4353 33.3915 32.826 33.7093 33.2473 33.9794C34.6708 34.8578 36.288 35.3603 37.8984 35.7739C39.0026 36.0337 40.1271 36.249 41.2619 36.3071C41.4555 36.3105 41.6492 36.3139 41.8394 36.3071C42.2777 36.5737 42.6956 36.8233 43.0761 37.0523C43.7148 37.4419 44.3637 37.8282 44.9243 38.3307C45.6819 39.004 46.4565 40.1046 47.0239 41.1574C47.204 41.4958 47.7204 42.4803 47.8835 43.0955C48.2674 44.2474 48.4169 45.5907 48.529 46.958C48.6513 48.6944 48.7125 50.2257 48.5494 51.8459C48.478 52.5911 48.315 53.3191 48.1892 54.0574C48.0635 54.8197 47.9786 55.5887 47.8529 56.3476C47.6932 57.4995 47.2889 58.73 47.7544 59.8546C47.8291 60.0733 48.1689 60.6339 48.563 60.9928C49.7962 62.1071 50.9174 62.9787 51.7837 64.3563C51.8687 64.4793 51.9298 64.6194 52.0487 64.7151C52.1778 64.8177 52.3918 64.7664 52.4292 64.5955C52.4666 64.3904 52.3952 64.1819 52.385 63.9734C52.3443 63.5427 52.3137 63.112 52.2764 62.6779C52.1812 61.5705 52.154 60.4596 52.1404 59.3453C52.1099 57.5986 52.1711 56.4399 52.2118 54.6795C52.2662 52.7654 52.2797 51.3845 52.3579 49.6856C52.4462 47.3647 53.1019 45.1122 53.2412 42.7981C53.3228 41.3454 53.1461 39.8893 52.8165 38.4776C52.7622 38.252 52.3715 36.6455 51.128 35.5893C50.8494 35.2919 50.4995 34.9843 50.2243 34.7143C49.9117 34.3895 49.572 34.0067 49.2696 33.641C48.1485 32.1473 47.2074 30.5066 45.9673 29.1051C44.2278 27.1602 42.2131 25.4888 40.2732 23.7558C39.485 23.0585 38.9244 22.3783 38.1634 21.6126C37.6266 21.0315 36.8418 20.2864 36.2812 19.6301C35.1295 18.297 34.1884 16.7965 33.2337 15.3198C32.8294 14.6704 32.364 14.062 31.9597 13.4125C31.3482 12.4178 30.8215 11.4403 30.3663 10.6302C30.1998 10.3396 30.0333 10.0491 29.8567 9.76196C29.7582 9.6184 29.6766 9.45091 29.5339 9.34836C29.415 9.25949 29.2282 9.31076 29.1806 9.45432C29.1228 9.62181 29.2349 9.79272 29.2825 9.94996C29.8363 11.348 30.543 12.681 31.2191 14.021C32.6664 16.8477 34.4194 19.5412 36.6685 21.7869C37.9086 23.0516 39.3287 24.1078 40.6096 25.3247C41.6696 26.3672 43.1033 28.0934 44.4588 29.3854C45.2369 30.1408 45.8178 30.7458 46.5856 31.6038C47.1734 32.243 47.768 32.8787 48.2742 33.5897C48.3048 33.6307 48.3319 33.6752 48.3625 33.7196C47.7747 34.0204 47.1972 34.3417 46.6094 34.6425C45.8144 35.0356 44.751 35.4868 44.0885 35.5893C43.3411 35.7158 42.648 35.791 41.9651 35.8047C40.7998 35.0971 39.6345 34.3861 38.4828 33.6512C37.6096 33.0599 36.6142 32.6634 35.5678 32.5198C34.5791 32.4105 33.5837 32.5198 32.5916 32.5335C32.4829 32.5335 32.3708 32.5335 32.2621 32.5369C31.5112 31.8157 30.9099 30.9988 30.2949 30.0314C29.4694 28.7907 28.9598 27.755 28.2225 26.4424C27.4377 25.0068 26.5204 23.8344 25.9564 22.4193C25.209 20.7205 25.0391 19.0114 25.243 17.2237C25.3924 16.1607 25.6371 15.4224 25.987 14.4174C26.6529 12.4999 27.7129 10.6199 27.6483 8.53145C27.6483 8.42549 27.6416 8.31953 27.6348 8.21356C27.6348 8.15204 27.628 8.08708 27.628 8.02555C27.628 7.99821 27.628 7.97429 27.628 7.94694C27.628 7.94694 27.628 7.94694 27.628 7.94352C27.6517 7.94352 27.7367 7.93669 27.7706 7.93328C29.1398 7.95378 30.2304 8.05291 31.603 7.88542C34.5519 7.51284 37.4941 7.57778 40.1951 8.66474C41.8156 9.29709 43.3139 10.5721 44.4113 11.7684C45.2912 12.7699 46.0488 13.8705 46.854 14.9302C48.0092 16.441 49.1915 17.945 50.0102 19.5686C49.6161 21.0896 49.6705 22.6688 49.8336 24.2172C49.9695 25.5776 50.1665 26.9346 50.5674 28.2438C50.2243 29.7512 49.8132 31.2517 49.7554 32.7933C49.7554 32.8138 49.606 33.9247 50.5912 34.7792C51.4984 35.5654 52.3137 36.0644 52.9558 37.042C53.6591 38.1392 53.7441 39.8449 53.7746 41.407C53.7508 42.6956 53.7543 44.1073 53.5266 45.5292C53.4757 45.8266 53.4145 46.1205 53.3737 46.4179C53.3635 46.5478 53.3193 46.6845 53.3635 46.811C53.4043 46.9204 53.5368 46.9751 53.6421 46.9375C53.3398 47.6792 53.1121 48.4483 53.0238 49.2618C52.7792 50.8512 52.9083 52.4646 52.9151 54.0677C52.9185 55.4076 52.7656 57.0688 52.7928 58.5933C52.9321 61.902 53.3024 65.2142 54.0464 68.4443C54.4677 70.2867 55.0589 72.0846 55.5923 73.8962C56.0407 75.4515 56.4076 77.0272 56.8357 78.5893C57.5152 81.0982 58.2117 83.6037 59.0067 86.0784C59.4076 87.4012 59.8968 88.6933 60.3623 89.9922C60.4064 90.1084 60.5491 90.1733 60.6612 90.1221C60.7394 90.0913 60.7937 90.0127 60.8039 89.9306C60.8345 89.8418 60.8515 89.7427 60.8922 89.6572C61.3543 88.4985 61.9353 87.7123 62.591 86.6424C63.2127 85.5213 63.7563 84.3557 64.1945 83.1457C65.0371 80.8077 64.0994 79.9087 63.2059 78.374C62.3056 76.829 61.7009 75.9061 60.9534 74.3269C60.0123 72.2795 59.5027 69.9209 59.642 67.8872C59.7575 66.3011 59.9613 64.7151 60.3317 63.1702C60.634 61.9738 61.2286 60.357 61.7552 59C62.2376 57.6909 62.9069 56.122 63.5117 55.1512C64.4459 53.7122 65.5909 52.4167 66.7834 51.1862C68.2171 49.7198 70.2386 48.086 71.9373 46.5581C73.5817 45.0438 75.3246 43.6492 77.1286 42.3367C78.4672 41.3215 79.8126 40.3132 81.2463 39.4381C84.4195 37.4522 88.5168 36.0952 92.1487 35.2714C93.9935 34.8783 95.8654 34.6322 97.7408 34.434C98.2233 34.3861 98.7023 34.3349 99.1847 34.3075C99.076 34.5058 98.9741 34.704 98.8858 34.9125C98.5325 35.644 98.5528 36.4609 98.5868 37.2539C98.6208 38.1871 98.5902 38.8434 98.5358 39.7765C98.4135 41.7522 98.2505 43.7244 98.067 45.6933C97.8462 48.315 97.4147 50.9333 96.5585 53.3055C94.7205 58.3062 91.7919 62.5276 89.1046 67.0668C87.1918 70.4132 84.9767 73.8757 81.8646 76.2069C79.7208 77.7792 77.5125 78.8388 75.0629 79.9907C73.4933 80.712 71.5874 81.3819 70.1027 81.7203C69.1412 81.9698 68.156 82.0826 67.1877 82.2911C66.9193 82.3561 66.6543 82.445 66.4878 82.4894C66.6339 82.1886 66.7868 81.8878 66.9465 81.5938C67.4833 80.5752 68.0031 79.666 68.6758 78.7363C69.3519 77.7314 70.1367 76.8085 70.8637 75.8446C72.1649 74.0808 73.4662 72.3 74.465 70.3414C75.6269 68.1982 76.7039 66.0106 77.927 63.9051C78.5929 62.8113 79.4354 61.3551 80.2135 60.1622C80.9643 59.0274 81.7865 57.9404 82.5611 56.8227C83.7536 55.1444 84.9869 53.4969 86.1012 51.7639C86.8928 50.6154 87.6233 49.419 88.4251 48.2774C89.5156 46.7802 90.6606 45.3139 91.9516 43.9876C92.1045 43.8202 92.2641 43.6561 92.3899 43.4681C92.468 43.3519 92.5496 43.1981 92.4544 43.0682C92.4001 42.9861 92.2879 42.9588 92.1962 42.993C91.9584 43.1297 91.7953 43.3724 91.6017 43.5604C91.3061 43.8817 91.0139 44.2098 90.7285 44.5414C88.8294 46.7768 87.1239 49.1729 85.3708 51.528C83.3017 54.307 81.2395 57.0893 79.2554 59.9298C78.4366 61.0988 77.6246 62.2712 76.8228 63.4504C73.6224 68.2016 70.5478 73.0383 67.66 77.9843C66.6509 79.7105 65.6249 81.3546 64.6634 83.2311C64.5886 83.3781 63.9601 84.4411 63.7869 84.7488C63.3316 85.5555 62.8356 86.3074 62.4449 87.2337C62.0134 88.1669 61.6431 89.1274 61.266 90.0845C61.0519 90.6519 60.7632 91.2056 60.702 91.8174C60.5763 92.6891 60.651 93.5778 60.7258 94.4494C60.8039 95.3005 60.8855 96.1516 61.0893 96.9822C61.5955 99.1083 62.472 101.118 63.0904 103.21C63.5184 104.649 63.7257 106.461 64.0009 108.115C64.3474 110.166 64.8672 112.183 65.3157 114.213C65.7778 116.199 66.1787 118.202 66.7562 120.161C67.1673 121.401 67.7075 122.642 68.5704 123.637C68.9136 124.033 69.7086 124.765 70.1197 123.668C70.259 123.298 70.3507 122.912 70.4798 122.536C70.6904 121.801 70.9419 121.053 70.9249 120.28C70.8773 119.35 70.5206 118.462 70.191 117.6C69.0597 114.88 67.8026 113.96 67.8332 110.836C67.8264 109.944 67.8366 109.154 68.0133 108.177C68.2239 106.936 68.6112 105.729 68.8117 104.485C68.9883 103.47 69.0427 102.431 69.2805 101.426C69.3009 101.351 69.3247 101.279 69.3451 101.204C69.3519 101.18 69.3587 101.156 69.3655 101.142C69.4334 100.923 69.5081 100.705 69.5897 100.486C69.7697 100.004 69.977 99.5321 70.2114 99.0741C70.721 98.1068 71.7335 96.9036 72.5251 96.1653C73.4084 95.3313 74.1728 94.7605 75.2702 94.3981C76.6632 93.9299 78.0527 93.7213 79.5815 93.3112C80.842 93.0001 82.0753 92.5797 83.2848 92.1114C84.4467 91.6534 85.9008 90.8672 86.7705 90.334C87.0151 90.2075 87.3549 90.0127 87.4874 89.9888C87.4976 90.1392 87.433 90.5117 87.3922 90.7647C87.3005 91.3423 87.2054 91.9166 87.1137 92.4942C86.9166 93.629 86.7773 94.7741 86.7501 95.926C86.6856 97.7206 86.8758 99.5151 86.8623 101.31C86.8725 102.366 86.7162 103.726 86.4715 104.94C86.0299 106.977 85.4319 108.833 84.5486 110.812C84.0763 111.885 83.5803 112.914 83.0028 113.765C82.466 114.538 81.9462 114.958 81.338 115.584C80.6076 116.329 80.0674 116.889 79.3403 117.539C78.0867 118.715 76.6835 119.706 75.2532 120.653C74.4582 121.193 73.6666 121.74 72.8308 122.211C72.5115 122.399 72.2771 122.56 72.0256 122.69C72.0494 122.457 72.0732 122.225 72.1038 121.993C72.2499 120.885 72.4843 119.788 72.7051 118.694C73.0822 116.848 73.5647 115.026 74.0641 113.211C74.4922 111.492 75.0799 109.821 75.7492 108.18C76.5272 106.239 77.2645 104.28 78.0901 102.356C78.3924 101.655 78.739 100.975 79.0617 100.281C79.1636 100.065 79.2656 99.85 79.3675 99.6381C79.4185 99.5116 79.5034 99.3988 79.5 99.2587C79.4864 99.1459 79.3845 99.0536 79.269 99.0673C79.1534 99.0809 79.0889 99.1835 79.0176 99.2655C78.8137 99.498 78.6167 99.7372 78.4264 99.9833C76.816 102.178 75.8206 104.762 74.9474 107.325C74.499 108.734 74.003 110.128 73.6157 111.557C73.208 113.054 72.9056 114.575 72.5726 116.086C72.2533 117.583 71.9034 119.07 71.4855 120.543C71.2171 121.408 70.9113 122.259 70.6735 123.134C69.712 126.518 70.1571 127.896 71.2273 131.116C71.9101 133.201 72.7153 135.238 73.5137 137.278C74.9644 141.042 76.4865 144.781 77.8251 148.586C79.0413 152.052 80.03 155.596 81.3618 159.021C82.3878 161.653 83.723 164.145 85.0208 166.647C86.0401 168.609 87.0423 170.588 88.1974 172.478C89.2846 174.218 90.5111 175.866 91.4997 177.667C93.2188 180.613 94.673 184.332 95.8689 187.768C96.7182 190.222 97.4792 192.707 98.332 195.161C99.2289 197.721 100.167 200.268 101.019 202.845C102.137 206.113 103.415 209.322 104.621 212.556C104.869 213.229 105.11 213.909 105.341 214.59C105.392 214.726 105.562 214.802 105.694 214.743C105.83 214.689 105.905 214.525 105.847 214.388C104.821 211.359 103.595 208.403 102.524 205.391C101.845 203.532 101.233 201.649 100.588 199.779C99.8846 197.779 99.1406 195.797 98.4543 193.79C96.6333 188.434 94.9685 182.969 92.2336 177.992C91.7002 177.028 91.143 176.074 90.5451 175.148C89.7127 173.887 88.5372 172.171 87.9358 171.063C87.0253 169.429 86.159 167.768 85.3096 166.1C84.4636 164.48 83.6075 162.863 82.8431 161.202C81.7491 158.843 80.9065 156.382 80.1048 153.911C79.4524 151.922 78.8171 149.926 78.1206 147.953C77.3834 145.875 76.5714 143.821 75.7764 141.763C74.2442 137.74 72.5284 133.782 71.2408 129.67C70.8875 128.596 70.5716 127.263 70.6021 126.296C70.6395 125.028 70.9283 123.777 71.2918 122.563C71.5058 121.873 71.7369 121.189 71.9407 120.499C71.8184 121.196 71.7165 121.894 71.6315 122.598C71.6111 122.796 71.5194 123.117 71.781 123.189C72.0121 123.23 72.2159 123.039 72.4164 122.946C72.892 122.669 73.1298 122.529 73.619 122.242C75.2974 121.176 76.9655 120.079 78.5283 118.841C79.6665 117.891 80.7265 116.855 81.7593 115.792C82.3641 115.184 83.1658 114.483 83.7264 113.499C84.6743 111.855 85.4183 110.091 86.0401 108.296C86.5565 106.703 87.005 105.073 87.1986 103.405C87.4738 101.405 87.2665 99.3852 87.2122 97.3787C87.185 95.9124 87.2326 94.6032 87.484 93.0719C87.5927 92.378 87.7048 91.6875 87.8135 90.9937C87.8509 90.5869 88.0174 90.1665 87.8917 89.7666C87.8305 89.6298 87.6844 89.541 87.5383 89.5478C87.3311 89.541 87.1442 89.6572 86.9642 89.7427C86.6312 89.917 86.3084 90.1084 85.9857 90.2964C85.3979 90.6177 84.7219 91.0107 83.971 91.3321C82.3641 92.0499 80.4581 92.648 78.9428 93.0001C77.2577 93.4445 75.4774 93.6495 73.9282 94.4938C73.0551 95.0031 72.311 95.7107 71.6112 96.4353C70.7007 97.4095 69.9023 98.5033 69.4028 99.7509C69.1548 100.352 68.934 100.968 68.7947 101.604C68.584 102.759 68.5263 103.938 68.2715 105.087C67.9827 106.468 67.5444 107.825 67.4493 109.236C67.3168 111.588 67.3983 113.379 68.652 115.44C69.2703 116.558 69.8547 117.699 70.2352 118.923C70.4934 119.726 70.6293 120.321 70.4289 121.172C70.2658 121.928 69.9872 122.854 69.7799 123.394C69.5727 123.938 69.2262 123.637 69.1344 123.565C68.2783 122.741 67.6871 121.442 67.2387 120.13C66.6373 118.157 66.2602 116.23 65.7676 114.128C65.2953 112.008 64.7518 109.906 64.4018 107.763C64.1436 106.194 63.9567 104.608 63.5219 103.073C62.9341 101.067 62.1289 99.1254 61.5955 97.1019C61.3917 96.3772 61.249 95.2595 61.1709 94.3195C61.0961 93.4137 61.0247 92.6617 61.147 91.8516C61.2048 91.274 61.48 90.7886 61.6906 90.2109C62.061 89.2641 62.4313 88.3173 62.856 87.3944C63.2195 86.5604 63.5932 85.9417 64.0553 85.1692C64.3271 84.7112 65.6079 82.3937 66.1685 81.4298C66.746 80.4351 67.3745 79.4131 68.0133 78.3056C70.8365 73.4656 74.0607 68.4204 77.2849 63.6111C78.7288 61.4748 80.2135 59.3658 81.7185 57.2739C81.1274 58.1045 80.5396 58.9385 79.9621 59.7828C78.9224 61.4064 77.9304 63.0642 76.9757 64.7391C76.1569 66.2191 75.4027 67.7333 74.5941 69.2168C74.2068 69.9449 73.7176 70.8985 73.3744 71.4865C72.6983 72.5939 71.9543 73.6535 71.2001 74.7063C70.2522 76.036 69.165 77.2597 68.2545 78.6201C67.4187 79.7891 66.7562 81.0709 66.1175 82.3527C66.0563 82.486 65.968 82.6227 66.019 82.7731C66.0767 82.9166 66.2466 82.9508 66.3825 82.9167C66.5388 82.8927 67.2421 82.6876 67.2013 82.6979C67.7245 82.5646 68.2647 82.527 68.7947 82.4313C71.9407 81.898 74.9067 80.6539 77.7232 79.1875C79.2146 78.4218 80.6925 77.6152 82.0481 76.6171C83.1251 75.8104 84.1103 74.8806 85.0004 73.8689C86.6618 71.9513 88.0377 69.8081 89.2948 67.6069C89.9199 66.5267 90.7149 65.2586 91.4318 64.0691C93.2121 61.1706 94.9515 58.2378 96.3241 55.1171C97.0478 53.4558 97.571 51.7126 97.9379 49.9386C98.3014 48.209 98.4407 46.4453 98.6004 44.6884C98.7736 42.7093 98.9469 40.7268 99.0285 38.7408C99.1134 37.6436 98.8756 36.4643 99.1236 35.5004C99.2153 35.2201 99.3308 34.9501 99.4633 34.6869C99.5313 34.5434 99.623 34.4066 99.6808 34.2597C99.7148 34.1674 99.7215 34.058 99.6536 33.9794L99.5924 34.0238ZM29.5135 102.667C29.5135 102.667 29.5135 102.684 29.5067 102.697C28.9903 102.646 28.0594 102.209 27.4581 101.901C26.7039 101.504 25.9938 101.016 25.2056 100.694C23.636 100.079 21.9033 100.277 20.3031 99.7851C18.2884 99.1972 16.0087 98.4247 13.8581 97.7718C11.8265 97.0848 10.2501 96.0901 8.64309 94.6921C7.35206 93.5539 6.34641 92.46 5.3 90.9902C3.8391 88.9154 3.14265 87.6097 2.17438 85.1795C1.54245 83.5148 1.06 82.0861 0.883335 80.3872C0.706668 79.0337 0.784818 77.9911 1.01924 76.6341C1.21629 75.3797 1.43712 74.1287 1.60699 72.8708C1.79725 71.5856 1.77008 70.2764 1.62399 68.9878C1.57983 68.5708 1.50847 68.1572 1.50167 67.7368C1.50847 67.6957 1.50167 67.5283 1.50167 67.6547C1.49488 67.5453 1.51526 67.4394 1.56622 67.3437C1.5934 67.2651 1.62398 67.183 1.69533 67.1318C1.64776 67.183 1.66815 67.1625 1.70213 67.142C1.72931 67.1318 1.75988 67.1215 1.78706 67.1113C1.84482 67.0976 1.90598 67.0873 1.96374 67.0805C2.22534 67.0566 2.49033 67.06 2.75533 67.0634C3.62167 67.0702 5.06218 67.1488 6.13238 67.248C7.83449 67.4667 9.52981 67.7436 11.2251 68.0273C13.7766 68.4819 16.0325 69.0117 18.4073 69.9585C20.2589 70.6798 21.8591 71.4318 23.371 72.611C24.5091 73.486 25.4638 74.5354 26.2622 75.6976C25.8613 75.8651 25.4638 76.036 25.0663 76.2137C23.7141 76.8221 22.6983 77.4716 21.465 78.1518C21.0607 78.3603 20.8908 78.4936 20.4118 78.7055C20.0857 78.8764 19.7289 79.061 19.5183 79.3755C19.4401 79.4951 19.4401 79.6489 19.4503 79.7891C19.4741 80.1172 19.5828 80.4351 19.7459 80.7188C19.9905 81.1803 20.2317 81.6417 20.473 82.1066C21.3121 83.7097 22.1343 84.9675 22.8851 86.8646C24.2067 90.0058 25.209 93.277 26.6053 96.3875C26.5544 96.3191 26.5068 96.2473 26.4558 96.179C24.4955 93.6222 22.2702 91.2671 19.7527 89.2539C18.1661 87.9037 16.6406 86.4886 15.3292 85.0632C14.1096 83.7165 13.0258 82.2535 11.8842 80.8419C10.4913 79.0986 9.07117 77.3759 7.69521 75.619C7.23316 75.0208 6.78469 74.4089 6.34642 73.7903C6.20033 73.5818 6.05424 73.3733 5.90475 73.1716C5.8402 73.0485 5.67373 72.9426 5.54463 73.0485C5.48347 73.0964 5.4529 73.1716 5.45969 73.2502C5.55822 73.5236 5.74167 73.7698 5.87417 74.0295C6.38718 74.9319 6.92398 75.8206 7.49475 76.6854C8.54456 78.3671 9.75406 79.9292 10.9432 81.5084C12.2274 83.2892 13.481 85.1043 14.9963 86.7005C15.8728 87.6439 16.8275 88.5087 17.7516 89.4043C18.8388 90.4605 19.8988 91.5406 20.9996 92.5763C22.7594 94.2033 24.2271 95.6868 25.8137 97.5018C26.9247 98.7597 28.0153 100.041 28.9767 101.416C29.2655 101.891 29.483 102.126 29.5135 102.66V102.667ZM28.0017 99.3066C26.6393 97.6351 25.1886 96.0388 23.6869 94.4938C22.6473 93.441 21.5465 92.4532 20.4831 91.4278C19.559 90.5288 18.6451 89.6162 17.7142 88.7206C16.8173 87.8729 15.9713 87.0834 15.2205 86.2733C13.6747 84.6257 12.4074 82.7458 11.0689 80.9307C10.4641 80.1138 9.82539 79.3208 9.23424 78.4936C8.87751 77.9877 8.53096 77.4716 8.18782 76.952C8.72122 77.6288 9.26481 78.2988 9.8084 78.9653C11.1266 80.5855 12.4142 82.233 13.7189 83.8635C15.2511 85.7947 17.0551 87.4867 18.8965 89.1205C19.8648 89.9614 20.8772 90.7476 21.7979 91.6397C23.2622 93.024 24.6212 94.5793 25.9428 96.2713C26.6801 97.2454 27.3358 98.2777 27.9983 99.3031L28.0017 99.3066ZM29.8974 100.961C28.62 99.351 27.893 97.8333 27.013 95.991C25.8103 93.3795 24.9678 90.6245 23.9383 87.9447C23.3608 86.4613 22.739 84.9949 21.9542 83.6071C21.2034 82.3082 20.6123 81.3887 20.0313 80.2334C19.909 79.9155 19.892 79.8062 19.9158 79.6045C20.1128 79.3584 20.4152 79.2046 20.7821 79.0337C21.1219 78.8798 21.448 78.6919 21.7742 78.5107C23.2249 77.7177 24.3732 77.0033 25.9326 76.3744C26.1331 76.2855 26.3369 76.1966 26.5442 76.1112C27.9745 78.3329 28.885 80.9307 29.4796 83.5319C28.355 82.9474 27.2338 82.3527 26.0889 81.8058C25.7118 81.6417 25.3211 81.5016 24.9168 81.4195C24.713 81.3819 24.4548 81.2862 24.2985 81.4708C24.2067 81.5836 24.2577 81.7511 24.3698 81.8331C24.9066 82.192 25.5148 82.4415 26.0753 82.7663C27.295 83.4431 28.5215 84.1027 29.7378 84.7829C29.7446 84.8103 29.748 84.841 29.7548 84.8684C30.1353 87.1449 30.4954 89.4247 30.74 91.7217C30.9337 93.4718 30.9642 95.2356 31.1035 96.9925C31.2258 98.8417 31.5758 100.438 32.6052 102.003C33.4172 103.2 34.4908 104.16 35.6527 105.001C33.441 104.191 31.3244 102.81 29.8974 100.961ZM29.6087 84.1472C29.6087 84.1472 29.6087 84.1609 29.6121 84.1711C29.3301 84.0173 29.0447 83.8601 28.7593 83.7097C29.0413 83.8567 29.3233 84.0036 29.6053 84.1506L29.6087 84.1472ZM33.5531 102.472C32.3946 101.091 31.8476 99.6381 31.6505 97.8539C31.4433 95.9773 31.4365 94.0871 31.2496 92.2105C31.056 90.0879 30.706 87.9823 30.3867 85.8767C30.3425 85.6101 30.2983 85.3469 30.2508 85.0803C30.7366 85.3743 31.27 85.7264 31.817 86.0682C32.7343 86.6117 33.4512 87.0492 34.3855 87.6815C35.5983 88.4472 36.8078 89.2231 37.9596 90.0776C39.4884 91.2295 41.0139 92.3849 42.6005 93.4582C45.6989 95.5877 49.6536 96.9412 52.5957 98.8485C53.4383 99.3783 54.3216 99.833 55.1879 100.329C55.5277 100.537 56.0815 100.821 56.3635 101.139C56.0475 101.217 55.3476 101.409 54.9773 101.515C54.043 101.792 53.2854 102.414 52.5617 103.046C51.5425 103.935 50.6931 104.423 49.4565 104.875C48.2606 105.302 47.4248 105.5 46.2255 105.736C44.8496 106.013 43.4464 106.187 42.0433 106.184C41.2924 106.194 40.3174 106.054 39.4001 105.9C38.6696 105.784 37.9392 105.664 37.2223 105.48C35.8464 104.625 34.5485 103.648 33.5497 102.468L33.5531 102.472ZM48.9673 96.2747C49.9593 96.6575 50.9649 97.0028 51.9366 97.4369C52.9015 97.8607 53.8358 98.3597 54.7599 98.869C55.419 99.2587 55.8538 99.4262 56.4212 99.9526C56.907 100.52 57.9025 101.559 58.6873 102.161C62.4177 105.015 62.5842 105.938 62.9307 108.498C63.121 109.906 63.2297 111.332 63.5525 112.719C64.0349 114.562 64.4663 116.421 65.0949 118.219C65.3701 119.05 65.7336 119.846 66.0462 120.66C66.8004 122.909 67.5716 125.154 68.3224 127.407C69.1684 129.636 69.8784 131.915 70.7312 134.141C70.9758 134.797 71.1525 135.474 71.336 136.147C71.3428 136.168 71.3496 136.192 71.353 136.212C71.3326 136.267 71.3326 136.325 71.353 136.38C72.0902 138.266 72.8037 140.163 73.4832 142.074C74.3291 144.269 75.1751 146.466 76.089 148.637C76.5306 149.693 76.9757 150.746 77.3936 151.812C77.5805 152.298 77.7877 152.855 77.8828 153.289C77.8488 153.241 77.8149 153.193 77.7843 153.142C77.7469 153.084 77.713 153.022 77.6756 152.964C77.1965 152.086 76.8262 151.153 76.4389 150.23C75.6779 148.35 74.8795 146.48 74.1388 144.593C72.9463 141.602 71.6995 138.615 69.977 135.887C68.1526 132.985 65.7574 130.49 63.1923 128.241C62.0712 127.267 60.8991 126.354 59.8458 125.305C58.6771 124.139 57.3385 122.567 56.0679 121.203C54.6987 119.757 53.2582 118.38 51.8381 116.985C50.6082 115.775 49.4021 114.541 48.0941 113.417C47.3263 112.743 46.5619 112.063 45.7601 111.427C45.016 110.829 44.238 110.275 43.5008 109.667C42.2777 108.71 41.143 107.619 39.7466 106.912C39.3491 106.7 38.9448 106.481 38.5439 106.256C38.707 106.283 38.8701 106.31 39.0332 106.334C40.0592 106.505 41.0886 106.697 42.1316 106.703C44.2822 106.727 46.4294 106.385 48.5018 105.825C49.7045 105.487 50.8596 104.994 51.8958 104.294C52.9321 103.576 53.8086 102.496 54.8312 102.12C55.4326 101.877 55.7553 101.853 56.4076 101.672C56.5537 101.627 56.7236 101.61 56.8425 101.501C57.2876 101.002 56.462 100.499 56.1019 100.243C55.1981 99.6552 54.5424 99.3339 53.5912 98.8007C52.8675 98.3837 52.1574 97.9393 51.4236 97.5325C50.5437 97.0506 49.6467 96.6096 48.743 96.1756C48.8144 96.2063 48.8891 96.2405 48.9639 96.2678L48.9673 96.2747ZM30.5226 84.6223C32.4625 85.5828 34.6844 86.6834 36.339 87.7191C37.3854 88.4096 38.3808 88.8745 39.3049 89.5205C40.9255 90.7544 42.4306 92.1388 44.0478 93.3761C44.9515 94.1247 45.9537 94.7297 46.9933 95.2629C47.4248 95.4851 47.8427 95.7312 48.2742 95.9534C46.956 95.321 45.6344 94.6921 44.3637 93.9709C42.4985 92.8771 40.3785 91.2603 38.476 89.8281C37.2325 88.895 35.9211 88.0609 34.6063 87.2303C33.8045 86.68 32.7819 86.0648 32.1262 85.6751C31.5316 85.3093 30.9506 84.9197 30.3425 84.5744C30.2712 84.5334 30.2032 84.4958 30.1319 84.4582C30.1319 84.4446 30.1251 84.4275 30.1217 84.4138C30.2542 84.4822 30.3867 84.5539 30.5226 84.6223ZM46.2901 59.3658C45.9164 59.1402 45.5494 58.9077 45.1757 58.6822C43.8609 57.9062 42.2743 56.9287 40.878 55.6913C38.9482 53.9241 37.2053 51.9587 35.2892 50.1779C33.6822 48.691 31.8985 47.416 30.1455 46.1137C29.3437 45.536 28.4875 45.0438 27.6653 44.4969C25.7831 43.2186 23.901 41.9265 22.2192 40.3815C21.9746 40.1662 21.7402 39.9201 21.6349 39.7902C22.0426 39.9542 22.7934 40.5183 23.3234 40.9387C24.3392 41.7795 25.3279 42.6648 26.4185 43.4066C27.611 44.1825 28.6506 44.6678 29.7344 45.495C30.7434 46.2436 31.8306 46.8794 32.8872 47.5562C34.2156 48.4483 35.5474 49.3473 36.7908 50.3556C37.8338 51.217 38.5507 52.0271 39.4578 52.9397C40.4159 53.8763 41.3978 54.7923 42.3558 55.7289C43.6401 57.0004 45.2538 58.2549 46.4124 59.441C46.3682 59.4136 46.3274 59.3897 46.2833 59.3624L46.2901 59.3658ZM47.1258 31.5012C46.2765 30.551 45.3898 29.6349 44.4691 28.7531C43.4057 27.731 42.3253 26.4629 41.1769 25.2905C40.3717 24.4599 39.4442 23.766 38.5779 23.0004C37.3684 21.9407 36.4205 21.0144 35.4217 19.8113C34.0117 18.1432 32.7139 15.9556 31.8612 14.373C31.5622 13.7953 31.253 13.2211 30.954 12.6434C31.4637 13.5287 32.0242 14.3867 32.6188 15.2207C33.356 16.4102 34.1204 17.5861 34.9426 18.7209C36.091 20.2864 37.4499 21.4793 38.6356 22.7508C39.6073 23.807 40.7183 24.7162 41.8055 25.6494C42.8485 26.5689 44.0308 27.6763 44.9345 28.5787C46.0183 29.6589 46.8846 30.927 47.7544 32.1814C47.7544 32.1814 47.7544 32.1849 47.7578 32.1883C47.5539 31.9558 47.3433 31.7302 47.1326 31.5012H47.1258ZM44.6389 35.9858C46.093 35.5791 48.9163 34.0238 48.9503 33.9247C48.9978 33.9862 49.0488 34.0512 49.0998 34.1127C49.606 34.7587 50.316 35.4184 50.8256 35.9243C51.3998 36.4917 52.1914 37.4693 52.5719 39.9645C52.8811 41.9915 52.6738 43.7825 52.3137 45.8368C52.0385 47.2554 51.8789 48.6944 51.8279 50.1403C51.7735 51.7912 51.743 53.4388 51.7022 55.0795C51.6546 56.498 51.6104 58.6856 51.6682 60.4801C51.692 61.5876 51.7837 62.695 51.889 63.7991C49.7045 60.5382 47.4248 61.3961 48.247 56.8603C48.3999 56.0126 48.5052 55.1581 48.6343 54.307C48.7328 53.6951 48.8687 53.0901 48.9503 52.4748C49.1337 51.1076 49.1337 49.7198 49.0692 48.3423C48.9605 46.4965 48.8449 44.62 48.2606 42.8494C48.0228 42.1042 47.6558 41.407 47.2787 40.7233C46.7045 39.6911 46.0149 38.7101 45.1383 37.917C44.3773 37.2608 43.4362 36.7378 42.6752 36.2798C43.3377 36.2353 43.9934 36.1396 44.6389 35.9824V35.9858ZM35.0853 32.995C35.9041 33.0633 36.4103 33.2069 37.1238 33.4906C37.8305 33.8119 38.3265 34.2015 39.0705 34.6459C39.6787 35.0219 40.3276 35.4218 40.9629 35.8081C40.4805 35.7773 39.9946 35.7158 39.485 35.6167C37.3548 35.2372 35.1465 34.5844 33.4274 33.5316C33.1964 33.3709 32.9789 33.2069 32.7717 33.0394C33.6142 33.012 34.4534 32.9744 35.0887 32.9984L35.0853 32.995ZM50.2719 24.2753C50.1495 22.9012 50.051 21.8109 50.2821 20.4949C50.2889 20.4368 50.3024 20.3821 50.3092 20.324C50.6354 21.0965 50.8732 21.8963 50.9751 22.7372C51.1586 24.2104 51.0941 25.458 50.8019 26.9483C50.7815 27.0645 50.7611 27.1773 50.7373 27.2935C50.5063 26.3296 50.384 25.3657 50.2719 24.2753ZM54.1483 42.8597C54.1959 41.7556 54.1925 40.6516 54.0838 39.5509C53.9105 37.1377 52.8539 35.9243 50.9683 34.5741C50.0748 33.9349 50.1462 32.6395 50.1598 32.513C50.2685 31.3337 50.5335 30.175 50.8019 29.0197C51.1178 29.7785 51.5153 30.4997 51.9026 31.2244C52.5278 32.3489 53.2208 33.4496 54.1144 34.3793C54.6478 34.9433 55.2559 35.4252 55.8641 35.9038C56.4552 36.3721 56.8765 36.7036 56.8867 36.7036C56.6794 38.2349 56.411 39.7218 55.8946 41.0446C55.4258 42.1658 54.8686 42.9075 54.2536 43.9535C54.1891 44.0799 54.1314 44.2098 54.077 44.3431C54.1144 43.8509 54.1314 43.3553 54.1517 42.8597H54.1483ZM53.9173 46.1411C54.1483 45.454 54.3522 44.743 54.6851 44.097C55.1064 43.3861 55.8776 42.2649 56.2751 41.3044C56.7236 40.1935 56.9716 39.0109 57.1789 37.835C57.257 37.4009 57.2944 36.9566 57.3657 36.5224C57.4269 36.1225 57.5424 35.7363 57.5933 35.3364C57.6987 34.2152 57.9772 33.1214 58.2049 32.0208C58.4019 30.9236 58.565 29.8161 58.7892 28.7257C59.0305 27.5054 59.326 26.2989 59.5978 25.0888C59.8934 23.6361 60.3486 22.4466 60.7937 20.9734C61.3067 19.0763 61.8367 16.7418 62.2988 15.0532C62.557 14.2192 62.8322 13.3852 63.1923 12.5888C63.5388 11.871 63.9364 11.1771 64.2693 10.4524C64.6804 9.61157 65.0303 8.73995 65.4244 7.88884C65.7743 7.13001 66.1855 6.39852 66.4708 5.60893C66.5116 5.50981 66.498 5.38677 66.4097 5.3184C66.3485 5.26713 66.2636 5.25346 66.1888 5.28081C66.0122 5.37993 65.9646 5.62262 65.8593 5.79011C65.6351 6.23446 65.4176 6.67883 65.19 7.12318C64.643 8.21356 64.0043 9.25267 63.4301 10.326C62.6181 11.8231 61.8299 13.3373 61.1402 14.8994C60.6578 15.9932 60.1856 17.0973 59.9036 18.2663C59.4585 20.1941 59.3838 22.1903 58.9523 24.1249C58.4903 26.2407 57.6783 28.2506 57.1347 30.469C56.7644 31.8772 56.5503 33.3402 56.6557 34.7963C56.6828 35.2543 56.7372 35.7705 56.7202 36.143C56.4008 35.8354 54.0124 34.2255 52.4938 31.385C52.0725 30.5989 51.4032 29.423 51.0431 28.3839C51.0227 28.3224 51.0057 28.2574 50.9853 28.1959C51.2979 26.8081 51.5595 25.417 51.5119 23.9848C51.4949 22.3304 51.0941 20.9085 50.4655 19.5925C50.8834 18.0304 51.7701 16.3624 52.4904 15.1387C53.53 13.3783 54.4032 11.8163 55.5956 10.1038C57.6715 7.1471 59.2649 5.53032 62.4958 4.09129C64.1877 3.28803 65.7438 2.62151 67.1877 1.56189C67.5003 1.32604 67.7925 1.06284 68.0541 0.76888C68.3496 3.46578 68.9883 6.1114 69.3756 8.79805C69.7154 10.9207 69.9023 12.828 69.3994 14.8789C68.8558 17.4596 67.4255 20.0745 67.0178 22.8671C66.7698 24.2548 66.8751 25.687 66.515 27.0508C66.3689 27.7242 65.951 28.548 65.5229 29.2863C64.8469 30.4963 63.7359 31.9559 62.6182 33.0804C61.9217 33.7777 60.8379 34.6425 59.9172 35.3808C59.309 35.8662 58.6771 36.3208 58.1437 36.8916C57.1415 37.9581 57.0497 39.6911 56.9037 40.4294C56.8357 40.7712 56.7813 41.0788 56.676 41.3591C56.4416 41.8957 55.9761 42.6443 55.7485 43.034C55.0962 44.1346 54.3827 45.2387 53.8358 46.4043C53.8595 46.3154 53.8868 46.2299 53.9105 46.1411H53.9173ZM57.1381 35.3261C57.1245 35.1279 57.1109 34.9296 57.1007 34.7314C57.0361 33.6581 57.1245 32.6566 57.3657 31.5046C57.7632 29.6247 58.351 27.9498 58.8877 26.1177C58.4665 27.9498 58.086 29.7888 57.8074 31.6482C57.6035 32.783 57.2876 33.8973 57.1721 35.0492C57.1653 35.1415 57.1517 35.2338 57.1381 35.3261ZM59.5163 23.5575C59.7201 22.4329 59.8526 21.2947 60.0123 20.1633C60.223 18.2799 60.7733 16.7623 61.5581 15.0464C61.8979 14.2773 62.2614 13.5219 62.6419 12.7733C62.6046 12.8588 62.5672 12.9477 62.5366 13.0365C61.8299 14.8242 61.4325 16.711 60.9602 18.5671C60.7224 19.4694 60.5117 20.4368 60.2773 21.1717C60.0225 21.9647 59.7507 22.7542 59.5197 23.5575H59.5163ZM74.7776 109.123C75.5318 106.758 76.3302 104.393 77.5023 102.198C77.7469 101.723 78.0187 101.258 78.3177 100.817C77.4174 102.711 76.6598 104.666 75.8919 106.618C75.3449 108.023 74.764 109.414 74.285 110.846C74.0335 111.632 73.8195 112.432 73.6055 113.229C73.9316 111.844 74.2985 110.47 74.7776 109.127V109.123Z" fill="black"/>
</g>
<defs>
<clipPath id="clip0_316_1557">
<rect width="106" height="215" fill="white"/>
</clipPath>
</defs>
</svg>
