<svg width="81" height="80" viewBox="0 0 81 80" fill="none" xmlns="http://www.w3.org/2000/svg">
<path d="M1.04546 80L0.533318 79.4935L0.5 29.6946L11.4634 20.9429L11.6591 10.9832C11.884 10.5348 12.2587 10.5099 12.7126 10.4684C16.4892 10.1238 20.7613 10.7714 24.592 10.4393L36.3465 1.22266C38.949 -0.41724 41.8095 -0.388178 44.4411 1.1936L56.3205 10.4393L68.2 10.622L68.4998 10.9458L68.6622 20.316L80.3876 29.57L80.5 79.1448L80.0211 79.9958H1.04546V80ZM52.9103 10.4725L43.4667 2.93728C41.6888 1.69594 39.3487 1.74992 37.5041 2.84595L27.9939 10.4725H52.9062H52.9103ZM66.701 12.5068H13.5828V36.7233L40.4563 53.3838L66.701 36.9558V12.5068ZM68.5789 35.785L77.8227 30.0807L68.5789 22.8153V35.7809V35.785ZM11.5425 35.3159V23.4422L3.23982 30.0807L11.5425 35.3159ZM2.45701 77.0316L38.4951 54.6127L2.45701 32.0361V77.0316ZM78.6096 77.1852V32.032L42.4133 54.6833L78.6096 77.181V77.1852ZM5.11769 77.9657H75.9448L40.4771 55.8084L5.11769 77.9657Z" fill="#FAE7D7"/>
<path d="M31.9202 16.4923C34.951 16.2731 37.6308 17.5807 39.7829 19.6011C42.6458 16.855 46.0191 15.4944 49.9858 16.5796C52.8901 17.3727 55.7039 19.9635 56.6694 22.8186C59.4945 31.1876 51.0523 39.7248 44.8954 44.1684C44.1714 44.6923 41.4702 46.6336 40.8225 46.7917C39.7137 47.0627 38.0083 45.8095 37.0339 45.219C30.256 41.1265 20.7478 32.5415 23.0363 23.7053C24.0691 19.724 27.8653 16.7884 31.9254 16.4922L31.9202 16.4923ZM40.8358 22.668C39.2783 23.9835 38.3982 21.7827 37.5077 20.9511C32.7322 16.4873 24.9742 20.2325 25.0812 26.6544C25.2013 33.7684 34.4812 41.025 40.2349 44.0959C40.8079 44.1162 45.0771 40.8696 45.8202 40.2568C50.2844 36.5848 56.6671 29.5185 54.1165 23.2578C52.2269 18.6243 46.145 17.1787 42.4107 20.6337C41.7815 21.2131 41.2352 22.322 40.8305 22.6629L40.8358 22.668Z" fill="#FAE7D7"/>
</svg>
