<svg width="80" height="76" viewBox="0 0 80 76" fill="none" xmlns="http://www.w3.org/2000/svg">
<path d="M64.2507 46.7143L70.2124 68.025L70.75 68.1885C72.334 67.9596 75.2149 66.5209 76.6681 66.5536C77.5945 66.5754 77.965 67.52 77.4455 68.2103L62.8848 72.4426C61.7549 72.7296 60.9884 71.2329 62.0419 70.6044C62.9066 70.0885 68.1089 69.1258 68.3596 68.8024L62.1727 47.3173C56.1094 47.3464 51.4919 40.2477 49.0906 35.3686C46.1624 29.4179 42.7802 16.9897 42.3769 10.4032C42.3333 9.68387 42.1262 8.78291 42.8637 8.39782L60.7268 3.36986C60.9193 3.31173 61.0865 3.34442 61.2645 3.42435C62.0528 3.79127 63.9783 9.1353 64.3997 10.2797C67.6984 19.253 71.4803 31.5141 68.5594 40.9379C67.8655 43.183 66.5322 45.8242 64.2544 46.7106L64.2507 46.7143ZM45.6756 17.571L62.9974 12.8881C63.179 12.6447 63.0046 12.3759 62.9465 12.1361C62.783 11.4713 60.6941 6.07275 60.4398 5.83298C60.2654 5.6695 60.1528 5.59683 59.9094 5.67675L44.5276 9.97087C44.4622 12.5357 45.2941 15.0497 45.6756 17.571ZM63.8475 14.839L46.0643 19.5255C47.8263 26.755 49.7917 34.2388 54.3946 40.2367C58.4599 45.5372 64.3779 48.5017 66.7793 39.9461C68.4867 33.8646 67.2225 26.2682 65.5659 20.2666C65.0609 18.4392 64.4033 16.6482 63.8475 14.8426V14.839Z" fill="#FAE7D7"/>
<path d="M11.6408 68.8026C11.9206 69.1659 17.2392 70.045 18.0856 70.6735C18.9321 71.302 18.26 72.6026 17.2682 72.4791L2.5549 68.2104C2.03176 67.5056 2.41322 66.5756 3.33234 66.5538C4.77825 66.5175 7.66642 67.9597 9.25038 68.1886L9.78805 68.0251L15.7606 46.8161C14.1766 46.0387 13.025 44.6218 12.2584 43.0597C7.59013 33.5051 12.876 16.4013 16.8287 7.01019C17.181 6.17462 18.1801 3.33367 19.1356 3.3482L36.7298 8.22359L37.5545 8.76853C38.0449 9.78938 36.5445 16.6338 36.2212 18.1923C34.4447 26.7697 30.0307 42.7727 21.2645 46.649C19.9275 47.2412 18.9539 47.2375 17.6025 47.4846L11.6408 68.8026ZM35.4764 9.96739L19.9566 5.62968C19.4952 5.66964 19.4153 6.13465 19.2373 6.48341C18.9031 7.14097 16.8541 12.4232 16.9086 12.7538L34.3248 17.5675C34.7063 15.0462 35.5382 12.5322 35.4728 9.96739H35.4764ZM33.9397 19.5292L16.1566 14.8391C13.8097 21.8579 11.6917 29.5379 12.6254 37.0254C13.8933 47.2012 19.9166 47.7244 25.693 40.1243C30.2414 34.1409 32.185 26.7152 33.9397 19.5292Z" fill="#FAE7D7"/>
<path d="M29.9712 63.5344C27.1666 58.2576 25.5853 49.8971 32.6238 47.1873C36.7755 45.5884 40.4945 47.4121 42.7683 51.0106C50.0882 47.0434 57.5664 54.5304 53.6881 61.943C51.535 66.0544 45.9629 69.0949 41.7484 70.6491C40.6685 71.0471 38.1867 71.9615 37.1484 72.0462C36.8344 72.0724 36.6761 72.1097 36.3683 71.9448C35.8165 71.6562 33.4379 68.693 32.9057 67.9978C31.9089 66.6874 30.7399 64.9791 29.9747 63.5354L29.9712 63.5344ZM36.6011 48.6812C34.8666 48.4014 32.7193 49.0231 31.4724 50.2578C26.7852 54.8901 31.6929 63.2582 34.9618 67.3382C35.4698 67.9735 36.7787 69.7602 37.493 69.8274C38.0851 69.8856 42.0423 68.3967 42.8451 68.0546C47.2389 66.1817 53.9976 61.9193 52.543 56.2396C51.7586 53.179 48.5059 51.3128 45.4268 52.0955C44.1895 52.41 42.7651 53.9563 41.8323 53.6253C41.0534 53.3502 41.1303 52.5895 40.7874 51.9719C39.8718 50.303 38.5785 48.9974 36.5986 48.6767L36.6011 48.6812Z" fill="#FAE7D7"/>
<path d="M6.36306 4.27069H9.78528C10.9042 4.27069 10.9042 6.42139 9.78528 6.42139H6.36306V9.8436C6.36306 10.6392 4.90626 11.0788 4.40855 10.236V6.42139H0.790161C-0.263387 6.42139 -0.263387 4.27069 0.790161 4.27069H4.40855V0.456125C4.90626 -0.386714 6.36306 0.0528763 6.36306 0.848486V4.27069Z" fill="#FAE7D7"/>
<path d="M75.5914 4.27069H79.2098C80.2634 4.27069 80.2634 6.42139 79.2098 6.42139H75.5914V10.236C75.0937 11.0788 73.6369 10.6392 73.6369 9.8436V6.42139H70.2147C69.0958 6.42139 69.0958 4.27069 70.2147 4.27069H73.6369V0.848486C73.6369 0.0528763 75.0937 -0.386714 75.5914 0.456125V4.27069Z" fill="#FAE7D7"/>
</svg>
