<svg width="24" height="22" viewBox="0 0 24 22" fill="none" xmlns="http://www.w3.org/2000/svg">
<path d="M5.52266 17.15C1.76565 13.7668 -1.96368 7.53499 2.69259 3.21605C5.43899 0.668069 8.87319 1.00011 11.7158 3.19731C16.2145 -2.217 24.2628 1.51802 23.468 8.65105C23.0257 12.608 19.6073 16.746 16.7988 19.2772C16.079 19.9256 14.4249 21.4154 13.6438 21.7996C13.4077 21.9162 13.2959 21.9944 13.0075 21.9557C12.4926 21.8919 9.75865 20.2368 9.13729 19.8406C7.97099 19.0919 6.55199 18.0761 5.52567 17.1498L5.52266 17.15ZM6.22875 3.2046C4.79781 3.50801 3.31599 4.66107 2.71682 6.03212C0.461995 11.1789 6.77736 16.4041 10.537 18.6849C11.1216 19.0404 12.6727 20.0765 13.2477 19.913C13.725 19.7795 16.3532 17.3791 16.8744 16.8599C19.7269 14.0182 23.7013 8.53777 20.8723 4.42001C19.3475 2.2012 16.2627 1.69301 14.1053 3.25905C13.2383 3.8883 12.5946 5.56364 11.771 5.58185C11.0837 5.59814 10.9159 4.9639 10.4648 4.57233C9.25434 3.51104 7.85923 2.85646 6.22548 3.20174L6.22875 3.2046Z" fill="#FAE7D7"/>
</svg>
