<svg width="174" height="223" viewBox="0 0 174 223" fill="none" xmlns="http://www.w3.org/2000/svg">
<g clip-path="url(#clip0_404_157)">
<path d="M68.4256 190.066C75.795 182.916 83.4743 175.567 93.1317 172.08C105.64 167.569 120.56 170.632 130.269 179.711C131.495 180.859 132.686 182.169 133.087 183.798C134.03 187.656 130.308 190.976 126.847 192.929C116.718 198.654 105.277 201.555 93.9897 204.399C88.098 205.88 82.2111 207.366 76.3194 208.847C72.7253 209.752 68.6974 210.605 65.4846 208.757C62.8962 207.266 61.4281 204.046 62.0048 201.112C62.5816 198.178 63.7161 194.634 68.4256 190.066Z" fill="#A8B5A8"/>
<path d="M112.59 40.5149C112.313 44.7352 110.53 48.6791 109.105 52.6612C108.833 53.4185 108.586 54.2902 108.986 54.9856C109.401 55.7049 110.321 55.9192 111.126 56.1193C121.084 58.5723 127.209 69.7707 126.146 79.964C125.083 90.1573 118.224 99.0121 109.892 104.98C105.573 108.072 100.663 110.592 95.3673 111.063C90.0762 111.535 84.3657 109.653 81.2339 105.366C75.0419 96.8973 80.9574 83.5364 74.6224 75.1722C70.8662 70.2137 64.0879 68.8133 59.0113 65.2218C51.0508 59.5869 48.1097 49.2555 46.6368 39.6194C45.979 35.3183 45.5262 30.8027 47.0039 26.7063C48.6341 22.1908 52.6763 18.6279 57.362 17.5752C62.0477 16.5225 67.2292 18.0087 70.6374 21.3906C73.7405 24.4724 75.4566 28.9689 79.2176 31.2028C79.9326 31.6268 80.7477 31.9649 81.5723 31.8744C84.0987 31.5982 84.5182 28.2115 85.0854 25.7346C86.2056 20.8618 90.8675 17.5038 95.8154 16.7845C111.064 14.5696 112.861 36.2947 112.585 40.5149H112.59Z" fill="#A8B5A8"/>
<path d="M51.294 156.047C51.3178 156.166 51.3083 156.109 51.294 156.047V156.047Z" fill="black"/>
<path d="M8.80316 62.383C8.96523 62.202 9.23694 62.2258 9.45621 62.2401C9.82324 62.2686 10.1951 62.2972 10.5621 62.3306C11.8253 62.4449 13.0837 62.5878 14.3421 62.7497C20.067 63.4404 25.6679 65.0266 30.9495 67.3367C34.3863 68.8991 37.5038 71.0616 40.5116 73.3241C42.4707 74.734 44.406 76.1773 46.2412 77.7396C48.5293 79.7402 50.8507 81.7074 53.1673 83.6794C55.0597 85.356 56.5278 86.7993 58.1819 88.7665C59.078 89.8239 59.9599 90.9147 60.6082 92.1436C61.7093 94.1537 62.4624 96.3305 63.2537 98.4739C63.7828 99.9505 64.3072 101.437 64.6885 102.961C65.0937 104.642 65.3559 106.352 65.5418 108.067C65.6991 109.506 65.7944 110.958 65.6562 112.402C65.5275 113.812 65.17 115.193 64.741 116.541C63.7924 119.461 62.043 122.019 60.4652 124.624C58.201 128.363 58.6729 128.84 58.9971 130.007C59.3117 131.131 59.7311 132.217 60.2316 133.274C60.6034 134.06 61.1564 135.156 61.471 135.66C62.043 136.58 63.0392 138.061 63.5779 139.323C63.5827 139.333 63.5874 139.347 63.5922 139.357C66.0423 132.707 67.8012 125.829 69.5888 118.98C70.4849 115.683 71.6861 112.373 72.3439 109.272C72.9541 106.514 73.3736 103.718 73.5976 100.898C73.8407 98.6883 73.9599 96.3543 73.8359 94.3776C73.7692 92.7581 73.6691 91.1386 73.712 89.5191C73.793 86.8279 73.8931 84.1461 73.1638 81.6788C72.5441 79.6211 71.2619 77.6729 70.2657 75.9915C69.646 74.9245 68.9405 73.8957 68.4399 72.762C68.1396 71.8618 68.0062 70.9139 67.8918 69.9708C67.8441 69.5659 67.8012 69.161 67.7536 68.7514C67.7297 68.7276 67.7059 68.6942 67.6916 68.6609C67.1005 67.1509 66.0375 66.2745 64.6504 65.2123C63.5636 64.374 62.5006 63.5119 61.4519 62.6354C59.345 60.8254 57.5432 58.6486 56.1322 56.2575C55.6317 55.3763 55.093 54.4998 54.7927 53.5281C54.1921 51.861 54.2112 50.0843 54.0492 48.341C53.8823 46.4738 53.4772 44.7114 52.929 43.1252C51.9709 40.2339 50.7315 37.4094 50.2882 34.3752C49.9212 32.1174 50.1738 29.8311 50.5122 27.5876C50.9174 24.8058 51.4751 22.0479 51.9566 19.2757C52.1615 18.1516 52.3188 17.018 52.4523 15.8843C52.4857 15.6557 52.4857 15.4175 52.5524 15.1936C52.6239 15.0031 52.8909 14.9365 53.0482 15.0698C53.3199 15.3604 53.5343 15.7128 53.8394 15.9796C54.8261 16.9179 56.423 17.8134 57.772 18.4898C59.9694 19.6139 62.2909 20.5094 64.3978 21.805C68.0491 24.1152 70.5373 27.7686 72.8349 31.341C73.793 32.8605 74.694 34.4657 75.5091 35.7994C76.5482 37.5761 77.5492 39.4099 78.1737 41.3771C79.3654 39.1908 80.9765 37.1902 82.5877 35.0611C83.8604 33.3511 85.0712 31.5792 86.6108 30.093C89.0228 27.7067 91.511 26.2967 94.8382 25.5584C96.7687 25.1345 98.747 25.025 100.72 25.0393C102.122 25.0678 103.514 25.2488 104.91 25.3917C106.645 25.5346 108.137 25.4108 109.739 25.4013C110.607 25.4298 110.459 26.13 110.421 26.8064C110.425 27.4161 110.392 27.7305 110.507 28.4021C111.069 31.5125 112.957 34.5705 113.638 37.8904C113.991 39.629 114.01 41.439 113.753 43.1871C113.495 44.7304 112.952 46.2118 112.261 47.6122C111.67 48.7792 110.945 49.8747 110.263 50.9893C109.52 52.242 109.029 53.1471 108.323 54.476C107.446 56.0574 106.479 57.5912 105.401 59.044C105.049 59.4774 104.682 59.9061 104.291 60.311C106.417 60.3348 108.547 60.4062 110.63 60.9016C112.923 61.3922 115.13 62.1781 117.352 62.926C119.349 63.6214 122.028 64.1454 123.334 65.9363C123.739 66.5841 123.915 67.3415 124.111 68.0702C124.397 69.2229 124.611 70.3947 124.921 71.5427C125.679 74.3958 126.413 77.3157 126.361 80.2879C126.237 83.1602 125.202 85.899 124.192 88.5617C123.491 90.2764 122.7 91.9721 121.642 93.4916C120.436 95.154 118.958 96.602 117.428 97.9643C113.691 101.322 110.097 104.199 104.877 104.59C103.342 104.719 101.802 104.628 100.277 104.433C99.0711 104.29 97.8651 104.142 96.6734 103.909C95.2053 103.633 93.7514 103.309 92.3166 102.889C90.9819 102.499 89.938 102.261 88.4603 101.961C86.8444 101.665 85.1951 101.603 83.5935 101.218C82.7879 101.013 81.7153 100.879 81.6105 99.9458C81.0099 100.775 80.4331 101.618 79.7657 102.399C78.4787 103.995 77.0249 105.309 75.8618 106.729C75.0705 107.729 74.7511 108.491 74.1505 109.653C74.1314 109.71 74.0933 109.758 74.0504 109.796C73.445 111.349 73.1257 113.102 72.7348 114.821C71.8815 118.456 71.2428 122.133 70.5612 125.801C70.0178 128.687 69.3361 131.555 68.3351 134.317C67.6105 136.208 66.7954 138.066 66.2616 140.024C65.8707 141.524 65.5275 143.949 65.1652 145.801C64.884 147.097 64.5979 148.393 64.2023 149.655C63.6732 151.227 63.0249 152.88 62.5911 154.48C62.3576 155.352 61.471 158.724 61.3566 159.458C61.49 159.296 61.633 159.115 61.7808 158.943C62.2623 158.4 62.7818 157.9 63.3205 157.419C67.3722 153.808 67.8584 154.313 67.601 148.931C67.5104 147.035 67.4628 145.135 67.4723 143.239C67.4818 140.638 67.9728 138.042 68.8976 135.613C69.4791 134.108 70.3085 132.717 71.1713 131.359C72.4774 129.283 73.8931 127.23 75.7951 125.648C78.7266 123.338 81.9775 121.423 85.4334 120.018C87.8597 118.932 90.4194 118.027 93.0888 117.794C95.8917 117.498 98.6945 117.922 101.493 118.137C103.356 118.299 105.234 118.437 107.06 118.875C108.433 119.194 109.768 119.651 111.074 120.166C111.098 120.132 111.117 120.099 111.14 120.066C113.557 116.655 116.722 114.25 120.564 112.626C122.81 111.668 125.112 110.844 127.476 110.23C129.683 109.653 131.928 109.248 134.178 108.882C136.156 108.572 138.135 108.239 140.127 108.015C141.762 107.877 143.407 107.819 145.046 107.786C145.518 107.796 146.019 107.757 146.448 107.977C146.934 108.253 147.058 108.872 147.039 109.396C147.029 110.077 146.905 110.749 146.848 111.425C146.672 113.269 146.672 114.688 146.944 116.479C147.182 118.146 147.482 119.804 147.759 121.466C148.073 123.167 148.245 124.9 148.054 126.625C147.844 129.144 147.096 131.569 146.2 133.917C144.384 138.852 141.405 143.382 137.486 146.897C135.699 148.531 133.678 149.926 131.49 150.969C130.217 151.603 128.854 152.017 127.505 152.441C126.137 152.899 124.759 153.318 123.377 153.732C121.918 154.18 120.455 154.651 118.958 154.952C116.575 155.304 114.253 155.166 112.246 156.352C111.212 156.9 110.201 157.495 109.138 157.99C108.452 158.276 107.737 158.634 106.984 158.662C106.517 158.61 106.455 158.086 106.507 157.709C106.545 157.476 106.612 157.252 106.698 157.038C105.897 158.167 105.044 159.267 104 160.186C102.594 161.415 100.882 162.192 99.2332 163.035C97.2931 164.102 95.3816 165.226 93.4559 166.312C91.2632 167.684 88.2458 169.575 85.9482 171.366C84.1655 172.804 82.6163 174.528 80.8764 176.048C78.7218 178.087 76.6292 180.744 74.2077 182.855C72.4297 184.474 70.523 185.946 68.7259 187.551C66.8335 189.309 65.3225 190.909 63.5779 192.748C63.0154 193.315 62.329 194.134 62.0335 194.677C62.8486 194.715 64.2976 194.572 65.3988 194.648C68.1873 194.925 68.6211 195.158 70.2323 192.767C71.6432 190.571 72.8158 188.232 74.284 186.07C75.5281 184.283 76.9963 182.669 78.4788 181.087C81.4484 177.939 84.9329 175.171 88.9561 173.504C90.5148 172.914 92.1355 172.471 93.7752 172.199C95.3626 171.951 96.969 171.894 98.5706 171.842C100.291 171.809 102.017 171.747 103.728 171.951C106.031 172.252 108.304 172.866 110.449 173.766C111.612 174.281 112.718 174.919 113.877 175.448C115.14 176.062 116.451 176.581 117.762 177.086C119.649 177.848 121.646 178.329 123.491 179.196C124.545 179.701 125.455 180.44 126.308 181.23C127.972 182.712 129.307 184.503 130.808 186.141C133.42 188.956 136.295 191.948 138.845 194.41C139.074 194.629 139.302 194.844 139.526 195.063C139.479 195.015 139.445 194.982 139.507 195.044C139.655 195.177 139.793 195.348 139.77 195.558C139.736 195.787 139.517 195.906 139.307 195.949C139.016 196.006 138.721 196.015 138.425 196.053C137.386 196.177 136.357 196.368 135.327 196.558C133.649 196.897 131.962 197.197 130.284 197.54C127.981 198.068 125.679 198.607 123.396 199.226C121.275 199.859 119.139 200.421 117.004 200.998C115.183 201.488 113.371 202.046 111.503 202.331C107.828 202.912 104.076 202.822 100.444 203.737C97.6172 204.403 94.3186 206.156 91.2059 207.08C89.7807 207.485 88.3221 207.766 86.8682 208.062C84.8185 208.443 82.6878 208.609 80.619 208.309C78.1975 207.938 75.9809 206.785 73.9789 205.408C73.2401 204.894 72.5679 204.289 71.8815 203.713C71.1236 203.103 70.3991 202.45 69.8271 201.66C69.1931 200.802 68.6878 199.835 68.4018 198.807C68.0157 197.559 68.5544 196.606 69.665 196.015C70.6851 195.458 71.791 195.077 72.8683 194.653C74.6272 193.943 76.4338 193.372 78.2452 192.8C80.6143 191.99 82.9929 191.195 85.4382 190.638C87.7644 190.142 90.1382 189.804 92.5168 189.68C94.6475 189.614 96.7735 189.78 98.9043 189.828C101.273 189.856 103.642 190.042 106.011 190.052C109.015 190.018 111.717 189.933 114.863 189.799C117.113 189.699 119.32 189.166 121.575 189.161C122.571 189.171 123.548 189.428 124.502 189.704C125.007 189.871 125.507 190.047 126.003 190.238C125.822 190.147 125.627 190.061 125.412 189.966C123.41 189.08 121.694 188.556 119.668 188.194C118.405 187.913 117.108 187.808 115.817 187.761C114.396 187.713 113.433 187.723 112.022 187.908C110.502 188.07 109.043 188.561 107.523 188.728C105.354 188.994 103.166 188.913 100.983 188.913C99.5287 188.918 98.113 189.004 96.4732 188.971C93.5226 188.909 90.9676 188.971 87.955 189.304C86.7014 189.433 85.4429 189.509 84.2036 189.728C82.8975 189.976 82.0729 190.238 80.8049 190.7C78.8124 191.419 76.9963 192.519 75.1182 193.477C73.3259 194.353 71.4621 195.063 69.6793 195.958C68.9643 196.287 68.2446 196.635 67.4628 196.787C65.9613 197.039 64.4168 196.944 62.9249 197.259C58.5013 198.287 54.564 201.312 52.2425 205.589C50.0737 209.362 48.2147 214.616 46.6083 219.06C45.9981 220.727 45.4738 222.432 44.7492 224.056C43.8912 225.971 42.8139 227.772 41.6556 229.52C40.1779 231.73 38.91 234.069 37.4275 236.279C37.0128 236.908 36.5933 237.532 36.1643 238.151C36.1405 238.184 36.1119 238.213 36.0785 238.232C35.4254 239.218 34.8487 240.261 34.2624 241.29C33.3186 243 32.0744 245.42 31.0353 247.439C28.8235 251.74 26.5259 255.994 24.2903 260.281C22.1691 264.339 20.0527 267.435 18.227 271.684C15.8389 277.247 14.1371 283.068 12.1828 288.789C11.8014 289.946 11.401 291.099 11.0054 292.247C10.891 292.571 10.7766 292.899 10.6622 293.228C10.6288 293.361 10.5145 293.48 10.3714 293.476C10.2523 293.485 10.1331 293.404 10.0902 293.299C10.0426 293.195 10.0759 293.085 10.114 292.985C10.2236 292.657 10.3333 292.323 10.4429 291.994C10.7576 291.037 11.0722 290.08 11.382 289.122C13.3364 283.24 15.0762 277.267 17.4929 271.551C19.1136 267.692 21.2491 264.372 23.0367 261.038C25.1197 257.085 27.2076 253.131 29.305 249.187C30.592 246.744 31.8504 244.281 33.166 241.852C33.9192 240.518 34.658 239.165 35.516 237.894C35.5256 237.832 35.5446 237.77 35.5828 237.722C35.7449 237.489 35.9022 237.255 36.0595 237.022C36.6219 236.188 37.1701 235.35 37.7087 234.502C38.5334 233.207 39.3008 231.878 40.1017 230.568C40.8024 229.463 41.5412 228.377 42.2228 227.257C43.2524 225.557 44.2869 223.504 44.9971 221.365C45.9457 218.674 46.9085 215.983 47.9286 213.32C48.9487 210.538 50.1404 207.819 51.5895 205.237C53.7822 201.145 57.6433 197.921 62.1479 196.696C63.8639 196.158 66.3617 196.354 67.7536 195.963C68.9357 195.553 70.0416 194.948 71.1761 194.429C72.2772 193.92 73.4117 193.496 74.4985 192.957C76.3814 192.038 78.1689 190.914 80.1328 190.166C81.3436 189.699 82.5829 189.299 83.8604 189.047C85.1093 188.804 86.3868 188.728 87.65 188.599C90.8628 188.223 94.0946 188.185 97.3265 188.261C98.9329 188.266 100.411 188.17 102.184 188.204C104.181 188.242 105.797 188.246 107.851 187.975C109.296 187.756 110.697 187.322 112.156 187.189C113.409 187.022 114.677 187.027 115.941 187.075C117.294 187.127 118.648 187.261 119.973 187.565C122.195 187.956 124.34 188.689 126.365 189.671C127.142 190.057 127.853 190.566 128.592 191.023C129.526 191.628 130.489 192.19 131.442 192.762C131.652 192.91 131.595 193.286 131.337 193.343C131.247 193.376 131.147 193.353 131.061 193.315C130.803 193.215 130.546 193.105 130.293 193C129.13 192.524 128.039 191.89 126.923 191.314C126.175 190.957 125.398 190.666 124.611 190.404C123.553 190.08 122.705 189.828 121.494 189.804C119.497 189.804 116.761 190.433 114.468 190.495C111.498 190.619 108.528 190.738 105.554 190.747C102.875 190.685 100.191 190.542 97.5124 190.485C95.3816 190.409 93.3462 190.276 91.4252 190.447C89.5519 190.633 87.6833 190.876 85.8434 191.266C83.4647 191.8 81.5342 192.419 79.1938 193.224C76.9772 193.948 74.7512 194.639 72.5871 195.52C71.4001 195.992 70.2322 196.406 69.5697 196.949C68.6211 197.597 69.012 198.73 69.7556 200.15C70.3943 201.326 71.4192 202.379 72.6443 203.327C74.3317 204.803 75.8904 205.823 77.7828 206.671C80.8907 208.062 84.1798 207.838 87.6452 207.109C89.2564 206.761 90.6149 206.509 91.9734 206.018C95.2148 204.865 98.3132 203.236 101.736 202.66C105.301 201.974 108.962 202.079 112.518 201.345C114.124 201.017 115.693 200.521 117.285 200.107C119.678 199.502 122.047 198.807 124.435 198.173C126.337 197.706 128.244 197.249 130.155 196.825C131.704 196.511 133.268 196.249 134.817 195.939C135.947 195.739 137.815 195.401 138.745 195.329C136.223 192.934 133.239 189.823 130.675 187.094C127.834 184.088 125.689 180.611 121.842 179.311C119.106 178.372 116.355 177.458 113.743 176.215C112.051 175.438 110.449 174.462 108.671 173.885C106.822 173.276 105.397 172.914 103.49 172.675C101.717 172.485 99.7909 172.556 98.2798 172.59C94.8144 172.637 91.5444 173.128 88.5175 174.452C83.093 176.958 78.7981 181.259 75.0944 186.036C73.7406 187.946 72.6252 190.009 71.4335 192.024C70.6803 193.195 69.9892 194.553 68.7165 195.225C68.011 195.572 67.1863 195.487 66.4284 195.41C65.0127 195.206 63.8448 195.282 62.5387 195.329C62.186 195.329 61.8094 195.377 61.4757 195.239C61.3423 195.172 61.247 195.029 61.2565 194.877C61.2708 194.739 61.3518 194.624 61.4138 194.501C61.6998 193.962 62.0668 193.472 62.4815 193.024C64.4978 190.871 66.5381 188.732 68.7212 186.746C71.5813 184.303 74.5462 181.945 76.9152 179.292C77.7971 178.363 78.636 177.396 79.5322 176.477C80.3521 175.638 81.2339 174.862 82.0967 174.062C83.2836 172.933 84.4086 171.732 85.7099 170.737C86.9969 169.727 88.3697 168.836 89.733 167.936C91.2298 166.936 92.7361 165.955 94.3091 165.083C96.1491 164.068 97.9223 162.939 99.81 162.011C101.774 161.072 103.032 160.248 104.157 159.11C103.814 159.362 103.461 159.605 103.089 159.839C101.068 161.158 98.8185 162.03 96.4875 162.597C96.2921 162.72 96.0966 162.839 95.9012 162.958C94.6428 163.706 92.8982 164.573 91.9114 165.178C90.3623 166.207 88.9846 167.474 87.5165 168.613C86.4011 169.498 85.2427 170.327 84.1416 171.232C82.907 172.252 81.7058 173.314 80.5094 174.381C78.9745 175.734 77.5635 177.215 76.0906 178.634C73.3354 181.321 70.871 183.66 68.378 186.503C66.9956 188.023 65.6324 189.566 64.1213 190.957C62.5912 192.367 60.9228 193.619 59.3831 195.015C56.2085 197.859 53.3913 200.826 50.9937 204.532C48.739 208 47.1278 211.715 45.4928 215.687C44.4918 218.179 43.4717 220.66 42.4183 223.132C41.6079 225.038 40.9024 227.005 39.8347 228.786C39.6154 229.096 39.3628 229.41 39.0005 229.553C38.8527 229.625 38.6811 229.544 38.581 229.425C38.5 229.31 38.4905 229.167 38.5 229.034C38.6669 227.877 39.1387 226.786 39.5392 225.695C40.1398 224.166 40.769 222.647 41.3982 221.127C42.8139 217.636 44.1391 214.106 45.4499 210.577C46.0839 208.847 46.7894 207.147 47.4758 205.442C47.4996 205.323 47.5616 205.208 47.5854 205.089C47.8238 204.303 48.0192 203.503 48.2623 202.717C48.6008 201.598 49.0727 200.526 49.454 199.426C50.0594 197.754 50.5933 196.058 51.2034 194.391C52.2759 191.566 53.1912 188.689 54.1731 185.836C54.6736 184.455 55.0502 183.021 55.6556 181.678C56.628 179.42 57.3096 177.058 57.915 174.676C58.425 172.766 58.8683 171.266 59.1019 169.246C59.283 167.803 59.3688 166.345 59.6358 164.916C60.2364 161.706 61.0038 160.753 64.3262 157.909C65.3416 157.043 66.4284 156.261 67.3817 155.323C67.8584 154.88 68.3923 154.199 69.0215 153.589C69.5458 153.122 70.1703 152.784 70.7804 152.441C72.3439 151.56 73.9312 150.712 75.5853 150.012C76.9629 149.402 78.4025 148.945 79.7991 148.383C80.9336 147.873 82.0014 147.226 83.1072 146.664C84.38 146.02 85.5669 145.149 86.8206 144.149C88.0885 143.153 89.3422 142.134 90.5863 141.105C91.5158 140.314 92.4215 139.481 93.4511 138.818C94.2138 138.333 95.3816 137.699 95.8917 137.39C97.4695 136.408 99.0568 135.451 100.711 134.608C102.265 133.769 103.862 133.022 105.444 132.236C105.768 132.074 106.088 131.907 106.412 131.74C107.251 127.887 108.547 124.119 110.654 120.78C109.119 120.18 107.537 119.689 106.154 119.423C104.353 119.08 102.513 118.965 100.687 118.803C97.5362 118.541 94.7858 118.17 91.7494 118.703C89.2802 119.113 86.9874 120.104 84.5373 121.166C82.3732 122.109 80.4998 123.195 78.6789 124.386C76.7007 125.696 75.1134 126.949 73.7549 128.763C72.9731 129.787 72.2677 130.869 71.5813 131.959C70.4277 133.741 69.5745 135.418 68.9548 137.78C68.7737 138.542 68.4638 139.876 68.3399 140.976C68.2016 142.167 68.1873 143.367 68.1968 144.563C68.2111 145.949 68.2397 146.987 68.316 148.588C68.3589 150.022 68.4685 151.489 68.1873 152.903C67.8298 154.718 65.7467 156.147 64.7505 157.009C63.8925 157.752 62.963 158.543 62.3623 159.215C61.9429 159.629 61.6569 160.196 61.1469 160.51C60.9562 160.61 60.694 160.539 60.6225 160.329C60.5605 160.124 60.6129 159.901 60.6225 159.691C60.6844 159.129 60.8179 158.581 60.9371 158.029C61.0467 157.524 61.3518 156.395 61.3757 156.314C61.6092 155.456 61.8809 154.604 62.124 153.751C62.6436 151.76 63.454 149.864 63.9497 147.864C64.4883 145.911 64.8649 143.177 65.3178 140.881C65.9041 137.875 67.3627 135.141 68.2016 132.212C69.2122 128.916 69.7794 125.615 70.4325 122.033C70.8138 119.813 71.2666 117.608 71.7814 115.412C72.1485 113.812 72.3963 112.587 72.8969 110.915C73.1638 110.082 73.4546 109.248 73.8884 108.486C73.998 108.291 74.1124 108.096 74.222 107.9C74.4651 107.453 74.7321 107.019 75.0372 106.61C75.4614 106.005 76.3051 105.133 76.6149 104.833C77.7065 103.666 78.8124 102.513 79.7753 101.232C80.7143 100.108 81.458 98.8312 82.4685 97.7642C83.951 96.1638 85.6765 94.8253 87.2877 93.3582C89.1038 91.6768 90.8818 89.9525 92.6837 88.252C93.7514 87.1946 94.8144 86.0229 96.1062 84.9178C98.828 82.6648 101.826 80.7833 104.815 78.9114C105.787 78.2921 106.693 77.5681 107.656 76.9441C108.881 76.182 110.006 75.5962 111.069 74.896C112.709 73.7766 114.182 72.4429 115.74 71.2188C116.274 70.8187 116.818 70.428 117.394 70.0899C117.738 69.9089 118.105 69.6278 118.505 69.7421C119.53 70.2709 118.019 71.3664 117.595 71.8237C116.122 73.2145 114.496 74.4244 112.847 75.6009C111.112 76.8584 109.315 78.0254 107.499 79.1638C106.379 79.8974 105.33 80.7262 104.253 81.5169C102.66 82.7172 101.059 83.9175 99.5907 85.2703C97.1358 87.5281 95.1767 89.6906 92.8457 91.934C90.7722 94.0251 88.3125 95.6875 85.7576 97.1355C85.0521 97.5356 84.3561 97.9643 83.6507 98.3692C82.7784 98.8264 81.8631 99.5361 82.2778 100.136C82.5114 100.403 83.7841 100.66 84.9758 100.837C86.3057 100.989 87.6452 101.07 88.9561 101.351C90.634 101.675 92.7933 102.299 94.1041 102.637C96.8355 103.28 99.624 103.69 102.422 103.875C107.184 104.047 110.611 102.699 114.415 99.5742C116.903 97.4975 119.158 95.6398 121.003 93.1105C122.042 91.6292 122.762 90.0145 123.51 88.1711C124.483 85.5846 125.393 83.2697 125.627 80.6452C125.808 77.9063 125.083 74.815 124.33 71.9428C123.992 70.6424 123.663 68.9419 123.367 67.8416C123.019 66.6508 122.757 65.9887 121.775 65.4219C120.221 64.4264 117.728 63.8691 115.736 63.1499C113.352 62.3353 111.345 61.7018 108.948 61.3255C107.48 61.0826 105.992 61.0493 104.51 61.035C104.2 61.035 103.876 61.035 103.542 61.0254C103.027 61.5018 102.479 61.9447 101.888 62.321C99.891 63.5452 97.622 64.2454 95.3626 64.8217C93.8134 65.1837 92.2356 65.4838 90.6435 65.5648C90.3718 65.5695 90.1001 65.5743 89.8331 65.5648C89.2182 65.9363 88.6319 66.2841 88.098 66.6032C87.2019 67.1462 86.2915 67.6844 85.5049 68.3846C84.442 69.323 83.3551 70.8567 82.5591 72.3238C82.3064 72.7954 81.5819 74.1672 81.3531 75.0246C80.8144 76.6298 80.6047 78.5017 80.4474 80.407C80.2758 82.8267 80.19 84.9607 80.4188 87.2184C80.5189 88.2568 80.7477 89.2714 80.9241 90.3003C81.1004 91.3625 81.2196 92.4342 81.396 93.4916C81.62 95.0968 82.1873 96.8116 81.5342 98.3787C81.4294 98.6835 80.9527 99.4647 80.3997 99.9648C78.6694 101.518 77.0964 102.732 75.8808 104.652C75.7617 104.823 75.6759 105.019 75.5091 105.152C75.3279 105.295 75.0276 105.223 74.9752 104.985C74.9228 104.699 75.0229 104.409 75.0372 104.118C75.0944 103.518 75.1373 102.918 75.1897 102.313C75.3232 100.77 75.3613 99.2218 75.3804 97.669C75.4233 95.2349 75.3374 93.6202 75.2802 91.1671C75.204 88.4997 75.1849 86.5754 75.0753 84.2081C74.9513 80.9738 74.0314 77.8349 73.8359 74.6102C73.7215 72.5858 73.9694 70.5567 74.4318 68.5895C74.5081 68.2751 75.0562 66.0364 76.8008 64.5645C77.1917 64.1501 77.6827 63.7214 78.0688 63.3451C78.5074 62.8926 78.984 62.3591 79.4082 61.8495C80.9813 59.7679 82.3017 57.4816 84.0415 55.5287C86.4821 52.8184 89.3088 50.4892 92.0306 48.0742C93.1365 47.1025 93.923 46.1546 94.9907 45.0877C95.7439 44.2779 96.845 43.2395 97.6315 42.325C99.2475 40.4673 100.568 38.3763 101.907 36.3186C102.475 35.4136 103.128 34.5657 103.695 33.6607C104.553 32.2746 105.292 30.9123 105.93 29.7834C106.164 29.3785 106.398 28.9737 106.645 28.5736C106.784 28.3735 106.898 28.1401 107.098 27.9972C107.265 27.8734 107.527 27.9448 107.594 28.1449C107.675 28.3783 107.518 28.6164 107.451 28.8355C106.674 30.7837 105.683 32.6414 104.734 34.5086C102.703 38.4478 100.244 42.2012 97.0881 45.3306C95.3483 47.093 93.3557 48.5648 91.5587 50.2606C90.0715 51.7133 88.0599 54.1187 86.158 55.9193C85.0664 56.9719 84.2513 57.815 83.174 59.0106C82.3493 59.9013 81.5151 60.7873 80.8049 61.778C80.762 61.8352 80.7239 61.8971 80.681 61.959C81.5056 62.3782 82.316 62.8259 83.1406 63.2451C84.256 63.7929 85.748 64.4216 86.6775 64.5645C87.7262 64.7408 88.6986 64.8456 89.6568 64.8646C91.2917 63.8786 92.9267 62.8879 94.5427 61.8638C95.7677 61.0397 97.1644 60.4872 98.6325 60.2872C100.02 60.1347 101.416 60.2871 102.808 60.3062C102.961 60.3062 103.118 60.3062 103.271 60.311C104.324 59.3059 105.168 58.1675 106.031 56.8195C107.189 55.0905 107.904 53.6472 108.938 51.8181C110.039 49.8176 111.326 48.1838 112.118 46.2118C113.166 43.8445 113.405 41.4629 113.119 38.9717C112.909 37.4903 112.566 36.4615 112.075 35.0611C111.141 32.3889 109.653 29.7691 109.744 26.8588C109.744 26.7112 109.753 26.5635 109.763 26.4158C109.763 26.3301 109.772 26.2396 109.772 26.1538C109.772 26.1157 109.772 26.0824 109.772 26.0443C109.772 26.0443 109.772 26.0443 109.772 26.0395C109.739 26.0395 109.62 26.03 109.572 26.0252C107.651 26.0538 106.121 26.192 104.195 25.9586C100.058 25.4394 95.9298 25.5299 92.1402 27.0446C89.8665 27.9258 87.7644 29.7024 86.2247 31.3696C84.9901 32.7652 83.9271 34.299 82.7974 35.7756C81.1767 37.8809 79.5179 39.9767 78.3691 42.2393C78.9221 44.3589 78.8457 46.5595 78.617 48.7173C78.4263 50.613 78.1498 52.504 77.5874 54.3283C78.0688 56.4289 78.6456 58.52 78.7266 60.6682C78.7266 60.6968 78.9363 62.2448 77.554 63.4356C76.2812 64.5312 75.1373 65.2266 74.2363 66.5889C73.2496 68.1179 73.1304 70.4948 73.0875 72.6715C73.1209 74.4673 73.1161 76.4345 73.4355 78.416C73.507 78.8304 73.5928 79.24 73.65 79.6544C73.6643 79.8354 73.7263 80.026 73.6643 80.2022C73.6071 80.3546 73.4212 80.4308 73.2734 80.3784C73.6977 81.4121 74.0171 82.4838 74.141 83.6174C74.4842 85.8323 74.3031 88.0806 74.2935 90.3145C74.2888 92.1817 74.5033 94.4966 74.4651 96.621C74.2697 101.232 73.7501 105.847 72.7062 110.349C72.1152 112.916 71.2857 115.422 70.5373 117.946C69.9081 120.113 69.3933 122.309 68.7927 124.486C67.8393 127.982 66.8621 131.474 65.7467 134.922C65.1842 136.766 64.4978 138.566 63.8448 140.376C63.7828 140.538 63.5826 140.629 63.4253 140.557C63.3157 140.514 63.2395 140.405 63.2252 140.29C63.1823 140.166 63.1584 140.028 63.1012 139.909C62.4529 138.295 61.6378 137.199 60.7178 135.708C59.8455 134.146 59.0829 132.522 58.4679 130.835C57.2858 127.577 58.6014 126.325 59.855 124.186C61.1182 122.033 61.9667 120.747 63.0154 118.546C64.3358 115.693 65.0508 112.406 64.8553 109.572C64.6933 107.362 64.4073 105.152 63.8877 102.999C63.4635 101.332 62.6293 99.0789 61.8904 97.1879C61.2136 95.3635 60.2746 93.1772 59.4261 91.8245C58.1152 89.8191 56.5088 88.0139 54.8357 86.2991C52.8241 84.2557 49.9879 81.9789 47.6045 79.8497C45.2974 77.7396 42.8521 75.7962 40.3209 73.9671C38.4428 72.5524 36.5552 71.1473 34.5436 69.9279C30.0915 67.1605 24.3428 65.2695 19.2471 64.1215C16.6588 63.5738 14.0323 63.2308 11.4011 62.9545C10.7242 62.8879 10.0521 62.8164 9.37521 62.7783C9.52774 63.0546 9.67068 63.3309 9.79463 63.6214C10.2904 64.6407 10.2618 65.7791 10.2141 66.8842C10.1664 68.1846 10.2094 69.0991 10.2856 70.3995C10.4572 73.1526 10.686 75.901 10.9434 78.6446C11.2533 82.298 11.8587 85.9467 13.0599 89.2523C15.6387 96.2209 19.7476 102.104 23.5181 108.429C26.2018 113.092 29.3097 117.917 33.6761 121.166C36.6839 123.357 39.7823 124.834 43.2191 126.439C45.4214 127.444 48.0955 128.378 50.1786 128.849C51.5276 129.197 52.9099 129.354 54.2684 129.645C54.645 129.735 55.0168 129.859 55.2504 129.921C55.0454 129.502 54.8309 129.082 54.6068 128.673C53.8537 127.253 53.1244 125.986 52.1806 124.691C51.232 123.29 50.1309 122.004 49.1108 120.661C47.2852 118.203 45.4594 115.722 44.058 112.992C42.4278 110.006 40.9168 106.957 39.2007 104.023C38.2664 102.499 37.0843 100.47 35.9927 98.8074C34.9393 97.226 33.7857 95.7113 32.6989 94.1537C31.0257 91.8149 29.2954 89.5191 27.7319 87.1041C26.6213 85.5037 25.5964 83.8365 24.4715 82.2456C22.9413 80.1593 21.3349 78.1159 19.5236 76.2678C19.3091 76.0344 19.0851 75.8057 18.9087 75.5438C18.7991 75.3818 18.6846 75.1675 18.8181 74.9865C18.8944 74.8722 19.0517 74.8341 19.1804 74.8817C19.5141 75.0722 19.7429 75.4104 20.0146 75.6724C20.4293 76.1201 20.8392 76.5774 21.2396 77.0394C23.9042 80.1546 26.2971 83.4936 28.7568 86.7755C31.6597 90.648 34.5531 94.5252 37.3369 98.4835C38.4857 100.113 39.625 101.746 40.7499 103.39C45.2402 110.01 49.5541 116.75 53.6058 123.643C55.0216 126.048 56.4611 128.339 57.8101 130.954C57.915 131.159 58.7968 132.641 59.0399 133.069C59.6787 134.193 60.3746 135.241 60.9228 136.532C61.5282 137.832 62.0478 139.171 62.5769 140.505C62.8772 141.295 63.2823 142.067 63.3681 142.92C63.5445 144.134 63.4397 145.373 63.3348 146.587C63.2251 147.773 63.1107 148.959 62.8247 150.117C62.1145 153.08 60.8847 155.88 60.0171 158.795C59.4165 160.801 59.1257 163.325 58.7396 165.631C58.2534 168.489 57.5241 171.299 56.8949 174.128C56.2466 176.896 55.6842 179.687 54.8738 182.416C54.297 184.145 53.5391 185.874 52.3284 187.26C51.8469 187.813 50.7315 188.832 50.1547 187.303C49.9593 186.789 49.8306 186.251 49.6495 185.727C49.3539 184.703 49.0012 183.66 49.025 182.583C49.0917 181.287 49.5923 180.049 50.0546 178.849C51.642 175.057 53.4056 173.776 53.3627 169.422C53.3723 168.179 53.358 167.079 53.1101 165.716C52.8146 163.987 52.2711 162.306 51.9899 160.572C51.742 159.158 51.6658 157.709 51.3321 156.309C51.3035 156.204 51.2701 156.104 51.2415 155.999C51.232 155.966 51.2225 155.933 51.2129 155.914C51.1176 155.609 51.0127 155.304 50.8984 154.999C50.6457 154.328 50.3549 153.67 50.026 153.032C49.311 151.684 47.8905 150.007 46.7799 148.978C45.5405 147.816 44.468 147.021 42.9283 146.516C40.9739 145.863 39.0244 145.573 36.8793 145.001C35.1109 144.568 33.3805 143.982 31.6836 143.329C30.0533 142.691 28.0132 141.595 26.7929 140.852C26.4497 140.676 25.973 140.405 25.7871 140.371C25.7728 140.581 25.8634 141.1 25.9206 141.453C26.0493 142.258 26.1827 143.058 26.3114 143.863C26.5879 145.444 26.7834 147.04 26.8215 148.645C26.9121 151.146 26.6451 153.646 26.6642 156.147C26.6499 157.619 26.8691 159.515 27.2123 161.206C27.832 164.045 28.671 166.631 29.9103 169.389C30.5729 170.885 31.2688 172.318 32.0792 173.504C32.8323 174.581 33.5616 175.167 34.4149 176.038C35.4397 177.077 36.1977 177.858 37.2177 178.763C38.9767 180.401 40.9454 181.783 42.9522 183.102C44.0676 183.855 45.1782 184.617 46.3509 185.274C46.7989 185.536 47.1278 185.76 47.4806 185.941C47.4472 185.617 47.4138 185.293 47.3709 184.969C47.166 183.426 46.8371 181.897 46.5272 180.373C45.9981 177.801 45.3212 175.262 44.6205 172.733C44.0199 170.337 43.1953 168.008 42.2562 165.721C41.1646 163.016 40.1303 160.286 38.9719 157.605C38.5477 156.628 38.0615 155.68 37.6087 154.713C37.4657 154.413 37.3226 154.113 37.1796 153.818C37.1081 153.642 36.989 153.484 36.9937 153.289C37.0128 153.132 37.1558 153.003 37.3179 153.022C37.48 153.041 37.5705 153.184 37.6706 153.299C37.9566 153.623 38.2331 153.956 38.5 154.299C40.7595 157.357 42.1561 160.958 43.3812 164.53C44.0104 166.493 44.7063 168.436 45.2497 170.427C45.8217 172.514 46.246 174.633 46.7131 176.739C47.1612 178.825 47.6522 180.897 48.2385 182.95C48.615 184.155 49.0441 185.341 49.3777 186.56C50.7267 191.276 50.1023 193.195 48.6007 197.682C47.6426 200.588 46.5129 203.427 45.3927 206.271C43.3573 211.515 41.2219 216.726 39.3438 222.027C37.6373 226.857 36.2501 231.797 34.3816 236.569C32.942 240.237 31.0687 243.71 29.2478 247.196C27.8177 249.93 26.4116 252.688 24.7909 255.322C23.2655 257.747 21.5447 260.043 20.1576 262.553C17.7456 266.659 15.7054 271.841 14.0275 276.628C12.8358 280.048 11.7681 283.511 10.5716 286.931C9.31319 290.499 7.9976 294.047 6.80115 297.639C5.23289 302.192 3.44061 306.665 1.74841 311.171C1.40044 312.109 1.06194 313.057 0.737808 314.005C0.666306 314.196 0.428009 314.301 0.242096 314.22C0.0514374 314.143 -0.0534668 313.915 0.0275574 313.724C1.46712 309.504 3.18793 305.384 4.68945 301.187C5.64281 298.596 6.50085 295.972 7.40654 293.366C8.39325 290.58 9.43713 287.817 10.4 285.021C12.955 277.557 15.2907 269.941 19.128 263.005C19.8763 261.662 20.6581 260.333 21.497 259.042C22.6649 257.285 24.3142 254.894 25.1579 253.35C26.4354 251.073 27.6509 248.759 28.8426 246.434C30.0295 244.176 31.2307 241.923 32.3033 239.608C33.8382 236.322 35.0203 232.892 36.1452 229.448C37.0604 226.676 37.9519 223.895 38.9291 221.146C39.9634 218.25 41.1026 215.387 42.2181 212.52C44.3679 206.914 46.7751 201.398 48.5817 195.668C49.0775 194.172 49.5207 192.314 49.4778 190.966C49.4254 189.199 49.0202 187.456 48.5102 185.765C48.2099 184.803 47.8857 183.85 47.5997 182.888C47.7713 183.86 47.9144 184.831 48.0335 185.813C48.0621 186.089 48.1908 186.537 47.8238 186.637C47.4996 186.694 47.2136 186.427 46.9324 186.298C46.265 185.913 45.9314 185.717 45.245 185.317C42.8902 183.831 40.5497 182.302 38.357 180.578C36.7601 179.254 35.2729 177.81 33.8238 176.329C32.9753 175.481 31.8504 174.505 31.0639 173.133C29.734 170.842 28.69 168.384 27.8177 165.883C27.0932 163.663 26.464 161.391 26.1923 159.067C25.8061 156.28 26.097 153.465 26.1732 150.669C26.2114 148.626 26.1446 146.802 25.7919 144.668C25.6393 143.701 25.482 142.739 25.3295 141.772C25.2771 141.205 25.0435 140.619 25.2199 140.062C25.3057 139.871 25.5106 139.747 25.7156 139.757C26.0063 139.747 26.2686 139.909 26.5212 140.028C26.9883 140.271 27.4412 140.538 27.894 140.8C28.7187 141.248 29.6672 141.795 30.7207 142.243C32.9753 143.243 35.6495 144.077 37.7755 144.568C40.1398 145.187 42.6376 145.473 44.8112 146.649C46.0363 147.359 47.0801 148.345 48.0621 149.355C49.3396 150.712 50.4598 152.236 51.1605 153.975C51.5085 154.813 51.8183 155.671 52.0138 156.557C52.3093 158.167 52.3903 159.81 52.7478 161.41C53.153 163.335 53.7679 165.226 53.9014 167.193C54.0873 170.47 53.9729 172.966 52.214 175.838C51.3464 177.396 50.5265 178.987 49.9927 180.692C49.6304 181.811 49.4397 182.64 49.7209 183.826C49.9497 184.879 50.3406 186.17 50.6314 186.922C50.9222 187.68 51.4084 187.261 51.5371 187.16C52.7383 186.013 53.5677 184.202 54.1969 182.373C55.0406 179.625 55.5698 176.939 56.2609 174.009C56.9235 171.056 57.6861 168.127 58.1771 165.14C58.5394 162.954 58.8016 160.744 59.4118 158.605C60.2364 155.809 61.3661 153.103 62.1145 150.284C62.4005 149.274 62.6007 147.716 62.7103 146.406C62.8152 145.144 62.9153 144.096 62.7437 142.967C62.6627 142.162 62.2766 141.486 61.981 140.681C61.4615 139.362 60.9419 138.042 60.346 136.756C59.836 135.594 59.3116 134.732 58.6633 133.655C58.282 133.017 56.485 129.787 55.6984 128.444C54.8881 127.058 54.0063 125.634 53.1101 124.091C49.149 117.346 44.6253 110.315 40.1017 103.613C38.0758 100.636 35.9927 97.6975 33.881 94.7824C34.7104 95.9399 35.5351 97.1021 36.3455 98.2787C37.8041 100.541 39.196 102.851 40.5354 105.185C41.6842 107.248 42.7424 109.358 43.8769 111.425C44.4203 112.44 45.1067 113.769 45.5882 114.588C46.5368 116.131 47.5807 117.608 48.6389 119.075C49.9688 120.928 51.4942 122.633 52.7717 124.529C53.9443 126.158 54.8738 127.944 55.77 129.73C55.8558 129.916 55.9797 130.107 55.9082 130.316C55.8272 130.516 55.5888 130.564 55.3981 130.516C55.1789 130.483 54.1921 130.197 54.2493 130.211C53.5153 130.026 52.7574 129.973 52.0138 129.84C47.5997 129.097 43.4384 127.363 39.4867 125.319C37.3941 124.253 35.3206 123.128 33.4187 121.738C31.9076 120.613 30.5253 119.318 29.2764 117.908C26.9454 115.236 25.0149 112.249 23.2512 109.182C22.3741 107.676 21.2587 105.909 20.2529 104.252C17.7551 100.213 15.3145 96.1257 13.3888 91.7768C12.3735 89.4619 11.6394 87.0327 11.1246 84.5605C10.6145 82.1504 10.4191 79.6925 10.1951 77.2442C9.95197 74.4863 9.70886 71.7237 9.59447 68.9562C9.4753 67.4272 9.80894 65.7839 9.46098 64.4407C9.33228 64.0501 9.17021 63.6738 8.9843 63.307C8.88896 63.107 8.76025 62.9164 8.67923 62.7116C8.63156 62.583 8.62206 62.4306 8.71739 62.321L8.80316 62.383ZM107.127 158.038C107.127 158.038 107.127 158.062 107.136 158.081C107.861 158.01 109.167 157.4 110.011 156.971C111.069 156.419 112.065 155.737 113.171 155.29C115.373 154.432 117.804 154.709 120.05 154.023C122.876 153.203 126.075 152.127 129.092 151.217C131.943 150.26 134.154 148.874 136.409 146.926C138.22 145.339 139.631 143.815 141.1 141.767C143.149 138.876 144.126 137.056 145.485 133.669C146.372 131.35 147.048 129.359 147.296 126.991C147.544 125.105 147.435 123.652 147.106 121.761C146.829 120.013 146.519 118.27 146.281 116.517C146.014 114.726 146.052 112.902 146.257 111.106C146.319 110.525 146.419 109.949 146.429 109.363C146.419 109.306 146.429 109.072 146.429 109.248C146.438 109.096 146.41 108.948 146.338 108.815C146.3 108.705 146.257 108.591 146.157 108.52C146.224 108.591 146.195 108.562 146.148 108.534C146.109 108.52 146.066 108.505 146.028 108.491C145.947 108.472 145.861 108.458 145.78 108.448C145.413 108.415 145.042 108.42 144.67 108.424C143.454 108.434 141.433 108.543 139.932 108.682C137.544 108.986 135.165 109.372 132.786 109.768C129.206 110.401 126.041 111.139 122.709 112.459C120.112 113.464 117.866 114.512 115.745 116.155C114.148 117.374 112.809 118.837 111.689 120.456C112.251 120.69 112.809 120.928 113.367 121.175C115.264 122.023 116.689 122.928 118.419 123.876C118.987 124.167 119.225 124.353 119.897 124.648C120.355 124.886 120.855 125.143 121.151 125.581C121.26 125.748 121.26 125.963 121.246 126.158C121.213 126.615 121.06 127.058 120.831 127.453C120.488 128.096 120.15 128.74 119.811 129.387C118.634 131.621 117.48 133.374 116.427 136.018C114.573 140.395 113.166 144.954 111.207 149.288C111.279 149.193 111.345 149.093 111.417 148.998C114.167 145.435 117.29 142.153 120.822 139.347C123.048 137.466 125.188 135.494 127.028 133.507C128.739 131.631 130.26 129.592 131.862 127.625C133.816 125.196 135.808 122.795 137.739 120.347C138.387 119.513 139.016 118.661 139.631 117.798C139.836 117.508 140.041 117.217 140.251 116.936C140.342 116.765 140.575 116.617 140.756 116.765C140.842 116.831 140.885 116.936 140.875 117.046C140.737 117.427 140.48 117.77 140.294 118.132C139.574 119.389 138.821 120.628 138.02 121.833C136.547 124.176 134.85 126.353 133.182 128.554C131.38 131.035 129.621 133.565 127.495 135.789C126.265 137.104 124.926 138.309 123.629 139.557C122.104 141.029 120.617 142.534 119.072 143.977C116.603 146.244 114.544 148.312 112.318 150.841C110.759 152.594 109.229 154.38 107.88 156.295C107.475 156.957 107.17 157.286 107.127 158.029V158.038ZM109.248 153.356C111.16 151.027 113.195 148.802 115.302 146.649C116.761 145.182 118.305 143.806 119.797 142.377C121.093 141.124 122.376 139.852 123.682 138.604C124.94 137.423 126.127 136.323 127.181 135.194C129.349 132.898 131.127 130.278 133.006 127.749C133.854 126.61 134.75 125.505 135.58 124.353C136.08 123.648 136.566 122.928 137.048 122.204C136.299 123.147 135.537 124.081 134.774 125.01C132.925 127.268 131.118 129.564 129.288 131.836C127.138 134.527 124.607 136.885 122.023 139.161C120.664 140.333 119.244 141.429 117.952 142.672C115.898 144.601 113.991 146.768 112.137 149.126C111.102 150.484 110.182 151.922 109.253 153.351L109.248 153.356ZM106.588 155.661C108.381 153.418 109.401 151.303 110.635 148.736C112.323 145.096 113.505 141.257 114.949 137.523C115.759 135.456 116.632 133.412 117.733 131.478C118.786 129.668 119.616 128.387 120.431 126.777C120.602 126.334 120.626 126.182 120.593 125.901C120.316 125.558 119.892 125.343 119.377 125.105C118.901 124.891 118.443 124.629 117.986 124.376C115.95 123.271 114.339 122.276 112.151 121.399C111.87 121.276 111.584 121.152 111.293 121.033C109.286 124.129 108.009 127.749 107.175 131.374C108.752 130.559 110.325 129.73 111.932 128.968C112.461 128.74 113.009 128.544 113.576 128.43C113.862 128.378 114.225 128.244 114.444 128.501C114.573 128.659 114.501 128.892 114.344 129.006C113.591 129.506 112.737 129.854 111.951 130.307C110.24 131.25 108.519 132.169 106.812 133.117C106.803 133.155 106.798 133.198 106.788 133.236C106.255 136.408 105.749 139.585 105.406 142.786C105.134 145.225 105.092 147.683 104.896 150.131C104.724 152.708 104.233 154.933 102.789 157.114C101.65 158.781 100.144 160.12 98.5134 161.291C101.617 160.162 104.586 158.238 106.588 155.661ZM106.993 132.231C106.993 132.231 106.993 132.25 106.989 132.264C107.384 132.05 107.785 131.831 108.185 131.621C107.789 131.826 107.394 132.031 106.998 132.236L106.993 132.231ZM101.459 157.767C103.085 155.842 103.852 153.818 104.129 151.331C104.419 148.716 104.429 146.082 104.691 143.467C104.963 140.509 105.454 137.575 105.902 134.641C105.964 134.27 106.026 133.903 106.093 133.531C105.411 133.941 104.662 134.432 103.895 134.908C102.608 135.665 101.602 136.275 100.291 137.156C98.5896 138.223 96.8927 139.304 95.2768 140.495C93.1317 142.1 90.9914 143.71 88.7654 145.206C84.4181 148.173 78.8696 150.06 74.7416 152.718C73.5594 153.456 72.3201 154.089 71.1046 154.78C70.6279 155.071 69.8509 155.466 69.4553 155.909C69.8986 156.019 70.8806 156.285 71.4001 156.433C72.711 156.819 73.774 157.686 74.7893 158.567C76.2193 159.805 77.411 160.486 79.1461 161.115C80.824 161.711 81.9966 161.987 83.6793 162.315C85.6098 162.701 87.5785 162.944 89.5471 162.939C90.6006 162.954 91.9687 162.758 93.2557 162.544C94.2805 162.382 95.3054 162.215 96.3111 161.958C98.2417 160.767 100.063 159.405 101.464 157.762L101.459 157.767ZM79.8325 149.131C78.4406 149.664 77.0296 150.145 75.6664 150.75C74.3126 151.341 73.0017 152.036 71.7052 152.746C70.7804 153.289 70.1703 153.523 69.3743 154.256C68.6926 155.047 67.296 156.495 66.1948 157.333C60.9609 161.31 60.7274 162.597 60.2412 166.164C59.9742 168.127 59.8217 170.113 59.3688 172.047C58.6919 174.614 58.0866 177.205 57.2048 179.711C56.8186 180.868 56.3086 181.978 55.87 183.112C54.8118 186.246 53.7298 189.375 52.6763 192.514C51.4894 195.62 50.4932 198.797 49.2967 201.898C48.9535 202.812 48.7056 203.756 48.4482 204.694C48.4387 204.723 48.4291 204.756 48.4244 204.784C48.453 204.861 48.453 204.942 48.4244 205.018C47.39 207.647 46.389 210.291 45.4356 212.953C44.2487 216.011 43.0618 219.074 41.7796 222.099C41.1599 223.571 40.5354 225.038 39.9491 226.524C39.6869 227.2 39.3962 227.977 39.2627 228.582C39.3104 228.515 39.3581 228.448 39.401 228.377C39.4534 228.296 39.501 228.21 39.5535 228.129C40.2256 226.905 40.7452 225.605 41.2886 224.318C42.3563 221.699 43.4765 219.093 44.5157 216.464C46.1888 212.296 47.9382 208.133 50.3549 204.332C52.9147 200.288 56.2752 196.811 59.8741 193.677C61.4471 192.319 63.0917 191.047 64.5694 189.585C66.2091 187.961 68.0872 185.77 69.87 183.869C71.791 181.854 73.8121 179.935 75.8046 177.991C77.5302 176.305 79.2224 174.586 81.0575 173.018C82.1348 172.08 83.2074 171.132 84.3323 170.246C85.3762 169.413 86.4678 168.641 87.5022 167.793C89.2182 166.459 90.8103 164.94 92.7695 163.954C93.3272 163.659 93.8944 163.354 94.4569 163.039C94.2281 163.078 93.9993 163.116 93.7705 163.149C92.3309 163.387 90.8866 163.654 89.4232 163.664C86.4058 163.697 83.3932 163.22 80.4855 162.439C78.7981 161.968 77.1774 161.282 75.7236 160.305C74.2697 159.305 73.0399 157.8 71.6051 157.276C70.7614 156.938 70.3085 156.904 69.3933 156.652C69.1883 156.59 68.95 156.566 68.7831 156.414C68.1587 155.718 69.317 155.018 69.8223 154.661C71.0903 153.842 72.0103 153.394 73.345 152.651C74.3603 152.07 75.3565 151.451 76.3861 150.884C77.6207 150.212 78.8792 149.598 80.1471 148.993C80.047 149.036 79.9421 149.083 79.8373 149.121L79.8325 149.131ZM105.711 132.893C102.989 134.232 99.8719 135.765 97.5505 137.209C96.0823 138.171 94.6857 138.818 93.3891 139.719C91.1154 141.438 89.0037 143.367 86.7347 145.092C85.4668 146.135 84.0606 146.978 82.602 147.721C81.9966 148.031 81.4103 148.374 80.8049 148.683C82.6544 147.802 84.5087 146.926 86.2914 145.92C88.9084 144.396 91.8828 142.143 94.5522 140.147C96.2968 138.847 98.1368 137.685 99.9815 136.527C101.107 135.76 102.541 134.903 103.461 134.36C104.295 133.85 105.111 133.307 105.964 132.826C106.064 132.769 106.159 132.717 106.259 132.664C106.259 132.645 106.269 132.622 106.274 132.602C106.088 132.698 105.902 132.798 105.711 132.893ZM83.5887 97.6975C84.113 97.3832 84.6279 97.0593 85.1522 96.7449C86.9969 95.6636 89.223 94.3014 91.1821 92.5771C93.8896 90.1145 96.335 87.3756 99.0234 84.894C101.278 82.822 103.781 81.0453 106.24 79.2305C107.365 78.4255 108.566 77.7396 109.72 76.9775C112.361 75.196 115.002 73.3956 117.361 71.2426C117.704 70.9425 118.033 70.5995 118.181 70.4185C117.609 70.6472 116.556 71.4331 115.812 72.019C114.387 73.1907 113 74.4244 111.469 75.458C109.796 76.5393 108.338 77.2156 106.817 78.3683C105.401 79.4115 103.876 80.2975 102.394 81.2406C100.53 82.4838 98.6612 83.7365 96.9165 85.1417C95.4531 86.342 94.4473 87.4709 93.1746 88.7427C91.8304 90.0478 90.4528 91.3243 89.1086 92.6295C87.3068 94.4014 85.0426 96.1495 83.4171 97.8023C83.4791 97.7642 83.5363 97.7309 83.5982 97.6928L83.5887 97.6975ZM82.4161 58.8677C83.6077 57.5435 84.8519 56.267 86.1437 55.0381C87.6357 53.6139 89.1515 51.8467 90.7626 50.2129C91.8924 49.0554 93.1937 48.0885 94.4092 47.0215C96.1062 45.5449 97.4361 44.2541 98.8375 42.5775C100.816 40.253 102.637 37.2045 103.833 34.9992C104.253 34.1942 104.686 33.3939 105.106 32.589C104.391 33.8226 103.604 35.0182 102.77 36.1805C101.736 37.8381 100.663 39.4766 99.5096 41.058C97.8985 43.2396 95.9918 44.9019 94.3282 46.6738C92.9649 48.1457 91.4062 49.4127 89.8808 50.713C88.4174 51.9944 86.7586 53.5376 85.4906 54.7951C83.97 56.3003 82.7545 58.0675 81.5342 59.8156C81.5342 59.8156 81.5342 59.8203 81.5295 59.8251C81.8155 59.5012 82.111 59.1868 82.4065 58.8677H82.4161ZM85.9053 65.1171C83.8652 64.5502 79.904 62.383 79.8563 62.2448C79.7896 62.3306 79.7181 62.4211 79.6466 62.5068C78.9363 63.4071 77.9401 64.3264 77.2251 65.0313C76.4195 65.822 75.3089 67.1843 74.775 70.6614C74.3412 73.486 74.632 75.982 75.1373 78.8447C75.5234 80.8214 75.7474 82.8267 75.8189 84.8416C75.8951 87.1422 75.938 89.4381 75.9952 91.7245C76.062 93.7012 76.124 96.7497 76.043 99.2504C76.0096 100.794 75.8809 102.337 75.7331 103.875C78.7981 99.3313 81.9966 100.527 80.843 94.2061C80.6285 93.0248 80.4808 91.834 80.2996 90.648C80.1614 89.7953 79.9707 88.9523 79.8563 88.0949C79.5989 86.1896 79.5989 84.2557 79.6895 82.3361C79.842 79.764 80.0041 77.149 80.824 74.6816C81.1577 73.6432 81.6725 72.6715 82.2016 71.7189C83.0072 70.2804 83.9748 68.9133 85.2046 67.8083C86.2724 66.8937 87.5928 66.165 88.6605 65.5267C87.731 65.4648 86.811 65.3314 85.9053 65.1123V65.1171ZM99.3094 60.9492C98.1606 61.0445 97.4504 61.2445 96.4494 61.6399C95.4579 62.0876 94.762 62.6306 93.718 63.2499C92.8648 63.7738 91.9543 64.3311 91.063 64.8694C91.7398 64.8265 92.4215 64.7408 93.1365 64.6026C96.1253 64.0739 99.2236 63.1641 101.636 61.697C101.96 61.4732 102.265 61.2445 102.556 61.0111C101.373 60.973 100.196 60.9206 99.3046 60.954L99.3094 60.9492ZM78.0021 48.7982C78.1737 46.8834 78.3119 45.364 77.9878 43.5301C77.9782 43.4491 77.9592 43.3729 77.9496 43.292C77.492 44.3684 77.1583 45.483 77.0153 46.6548C76.7579 48.7077 76.8485 50.4463 77.2584 52.5231C77.287 52.685 77.3157 52.8422 77.349 53.0042C77.6732 51.6609 77.8448 50.3177 78.0021 48.7982ZM72.5632 74.6959C72.4965 73.1574 72.5013 71.6189 72.6538 70.0851C72.8969 66.7223 74.3793 65.0313 77.0249 63.1499C78.2785 62.2591 78.1784 60.4539 78.1594 60.2776C78.0068 58.6343 77.635 57.0196 77.2584 55.4096C76.8151 56.467 76.2574 57.4721 75.714 58.4819C74.8369 60.049 73.8645 61.5827 72.6109 62.8783C71.8625 63.6643 71.0092 64.3359 70.156 65.0027C69.3266 65.6553 68.7355 66.1173 68.7212 66.1173C69.012 68.2513 69.3885 70.3233 70.1131 72.1666C70.7709 73.729 71.5527 74.7626 72.4155 76.2202C72.506 76.3964 72.587 76.5774 72.6633 76.7631C72.6108 76.0772 72.587 75.3866 72.5584 74.6959H72.5632ZM72.8874 79.2686C72.5632 78.3112 72.2772 77.3205 71.8101 76.4202C71.219 75.4295 70.1369 73.8671 69.5792 72.5287C68.95 70.9806 68.602 69.3325 68.3112 67.694C68.2016 67.089 68.1492 66.4698 68.0491 65.8649C67.9633 65.3076 67.8012 64.7693 67.7297 64.212C67.5819 62.6497 67.1911 61.1255 66.8717 59.5917C66.5953 58.0627 66.3664 56.5194 66.0518 55C65.7134 53.2995 65.2987 51.6181 64.9173 49.9319C64.5026 47.9075 63.8639 46.2499 63.2395 44.197C62.5197 41.5534 61.7761 38.3001 61.1278 35.947C60.7655 34.7848 60.3794 33.6226 59.8741 32.5128C59.3879 31.5125 58.8302 30.5456 58.363 29.5357C57.7863 28.364 57.2953 27.1494 56.7424 25.9633C56.2514 24.9059 55.6746 23.8865 55.2742 22.7862C55.217 22.6481 55.2361 22.4766 55.36 22.3814C55.4458 22.3099 55.565 22.2909 55.6699 22.329C55.9177 22.4671 55.9845 22.8053 56.1322 23.0387C56.4468 23.6579 56.7519 24.2771 57.0713 24.8964C57.8387 26.4158 58.7349 27.8639 59.5405 29.3595C60.6797 31.4458 61.7856 33.5559 62.7533 35.7327C63.4301 37.2569 64.0927 38.7955 64.4884 40.4245C65.1128 43.1109 65.2176 45.8927 65.823 48.5887C66.4713 51.5371 67.6105 54.3379 68.3732 57.4292C68.8928 59.3917 69.1931 61.4303 69.0453 63.4594C69.0072 64.0977 68.931 64.817 68.9548 65.3362C69.4029 64.9075 72.7539 62.664 74.8846 58.7058C75.4757 57.6102 76.4147 55.9716 76.92 54.5236C76.9486 54.4379 76.9725 54.3474 77.0011 54.2617C76.5625 52.3278 76.1955 50.3891 76.2622 48.3934C76.286 46.0879 76.8485 44.1065 77.7303 42.2726C77.144 40.0958 75.8999 37.7714 74.8894 36.0661C73.4307 33.6131 72.2057 31.4363 70.5326 29.0499C67.6201 24.9297 65.3845 22.6767 60.8513 20.6714C58.4775 19.552 56.2943 18.6232 54.2684 17.1466C53.8299 16.8179 53.4199 16.4511 53.0529 16.0415C52.6382 19.7997 51.7421 23.4864 51.1987 27.2303C50.722 30.1883 50.4598 32.8462 51.1653 35.7041C51.9279 39.3004 53.9347 42.9442 54.5068 46.8358C54.8547 48.7697 54.7069 50.7655 55.2122 52.666C55.4172 53.6043 56.0035 54.7523 56.6041 55.7811C57.5527 57.4673 59.1114 59.5012 60.6797 61.0683C61.6569 62.04 63.1775 63.2451 64.4693 64.274C65.3225 64.9503 66.2091 65.5839 66.9575 66.3793C68.3637 67.8654 68.4924 70.2804 68.6974 71.3093C68.7927 71.7856 68.869 72.2143 69.0168 72.6049C69.3457 73.3527 69.9987 74.3958 70.3181 74.9388C71.2333 76.4726 72.2343 78.0111 73.0018 79.6354C72.9684 79.5115 72.9302 79.3924 72.8969 79.2686H72.8874ZM68.3684 64.1977C68.3875 63.9215 68.4066 63.6452 68.4209 63.3689C68.5115 61.8733 68.3875 60.4777 68.0491 58.8725C67.4914 56.2527 66.6668 53.9187 65.9136 51.3656C66.5047 53.9187 67.0385 56.4813 67.4294 59.0725C67.7154 60.6539 68.1587 62.2067 68.3208 63.8119C68.3303 63.9405 68.3494 64.0691 68.3684 64.1977ZM65.0317 47.798C64.7457 46.2308 64.5598 44.6447 64.3358 43.0681C64.0402 40.4435 63.2681 38.3287 62.167 35.9375C61.6903 34.8658 61.1802 33.8131 60.6463 32.77C60.6988 32.889 60.7512 33.0129 60.7941 33.1367C61.7856 35.6279 62.3433 38.2572 63.0058 40.8436C63.3395 42.1011 63.6351 43.4491 63.964 44.4732C64.3215 45.5783 64.7029 46.6786 65.027 47.798H65.0317ZM43.6195 167.036C42.5613 163.74 41.4411 160.444 39.7966 157.386C39.4534 156.723 39.072 156.076 38.6525 155.461C39.9157 158.1 40.9787 160.825 42.056 163.544C42.8235 165.502 43.6386 167.441 44.3107 169.437C44.6634 170.532 44.9637 171.647 45.264 172.757C44.8064 170.827 44.2916 168.913 43.6195 167.041V167.036Z" fill="black"/>
</g>
<defs>
<clipPath id="clip0_404_157">
<rect width="174" height="223" fill="white"/>
</clipPath>
</defs>
</svg>
