<svg width="176" height="256" viewBox="0 0 176 256" fill="none" xmlns="http://www.w3.org/2000/svg">
<g clip-path="url(#clip0_404_158)">
<path d="M138.939 37.0173C129.63 41.3519 119.958 45.7674 109.686 45.8865C96.3912 46.0389 83.3065 38.2415 77.124 26.4811C76.3422 24.995 75.6511 23.3659 75.8084 21.6988C76.1849 17.7453 80.7944 15.8305 84.7031 15.1208C96.1529 13.0393 107.912 14.0586 119.505 15.0827C125.554 15.6162 131.608 16.1496 137.657 16.6879C141.351 17.0166 145.436 17.531 147.858 20.3365C149.812 22.5991 150.136 26.1191 148.63 28.7008C147.124 31.2824 144.883 34.2547 138.934 37.0221L138.939 37.0173Z" fill="#A8B5A8"/>
<path d="M48.0326 163.753C49.6819 159.861 52.6611 156.717 55.3162 153.426C55.8214 152.802 56.3458 152.059 56.1933 151.268C56.0407 150.449 55.2399 149.949 54.544 149.496C45.9495 143.909 43.8474 131.325 48.2042 122.046C52.561 112.767 61.9515 106.661 71.7853 103.755C76.8809 102.25 82.3484 101.488 87.5013 102.779C92.6541 104.074 97.4256 107.723 98.9748 112.805C102.035 122.836 92.0583 133.511 95.2901 143.49C97.2064 149.406 103.151 152.954 106.764 158.018C112.427 165.953 111.807 176.675 110.029 186.259C109.233 190.541 108.179 194.952 105.434 198.334C102.407 202.063 97.4209 204.102 92.6493 203.559C87.8778 203.016 83.4734 199.906 81.3665 195.595C79.4502 191.665 79.3072 186.854 76.4901 183.506C75.9562 182.867 75.2936 182.282 74.4833 182.096C72.0093 181.524 70.4983 184.592 69.1445 186.74C66.4799 190.974 60.9791 192.618 56.0645 191.67C40.9349 188.75 46.3833 167.644 48.0326 163.748V163.753Z" fill="#A8B5A8"/>
<path d="M143.925 74.7755C143.944 74.6564 143.93 74.7088 143.925 74.7755V74.7755Z" fill="black"/>
<path d="M153.244 177.189C153.03 177.308 152.787 177.194 152.582 177.108C152.243 176.961 151.905 176.813 151.571 176.661C150.418 176.137 149.274 175.589 148.139 175.022C142.958 172.493 138.191 169.154 133.963 165.238C131.232 162.633 128.996 159.565 126.899 156.441C125.516 154.464 124.158 152.468 122.937 150.387C121.431 147.743 119.887 145.128 118.352 142.504C117.117 140.298 116.202 138.45 115.292 136.054C114.791 134.759 114.319 133.444 114.109 132.067C113.733 129.805 113.738 127.504 113.695 125.218C113.68 123.646 113.676 122.074 113.819 120.507C113.99 118.787 114.305 117.087 114.691 115.406C115.015 113.996 115.401 112.59 116.011 111.276C116.598 109.985 117.389 108.799 118.237 107.665C120.092 105.222 122.59 103.374 124.935 101.435C128.305 98.6485 128.014 98.0436 128.09 96.8337C128.167 95.6715 128.124 94.5045 128 93.347C127.909 92.4801 127.742 91.2655 127.614 90.6844C127.375 89.627 126.922 87.8979 126.832 86.5309C126.832 86.5166 126.832 86.507 126.832 86.4928C122.332 91.9705 118.409 97.8864 114.462 103.769C112.532 106.589 110.306 109.318 108.666 112.028C107.183 114.434 105.863 116.939 104.728 119.521C103.775 121.526 102.893 123.694 102.359 125.599C101.887 127.147 101.454 128.714 100.877 130.224C99.9141 132.739 98.9369 135.24 98.8177 137.807C98.7272 139.95 99.2992 142.213 99.6853 144.133C99.9188 145.342 100.248 146.548 100.348 147.781C100.334 148.729 100.148 149.672 99.9474 150.596C99.8569 150.996 99.7663 151.392 99.6805 151.792C99.6948 151.825 99.7091 151.859 99.7091 151.897C99.7711 153.516 100.486 154.693 101.444 156.15C102.193 157.298 102.917 158.46 103.618 159.637C105.014 162.038 105.996 164.686 106.545 167.41C106.731 168.406 106.945 169.411 106.912 170.43C106.931 172.202 106.325 173.874 105.911 175.575C105.453 177.389 105.258 179.195 105.253 180.867C105.21 183.91 105.448 186.987 104.871 189.998C104.476 192.251 103.484 194.327 102.426 196.338C101.125 198.833 99.69 201.253 98.3268 203.711C97.7643 204.707 97.2399 205.721 96.7442 206.75C96.6346 206.955 96.5583 207.179 96.4248 207.369C96.2961 207.526 96.0196 207.503 95.9148 207.326C95.7527 206.96 95.6669 206.559 95.4667 206.207C94.8423 204.997 93.6315 203.63 92.578 202.544C90.8716 200.763 88.9744 199.153 87.4109 197.233C84.7224 193.851 83.5737 189.583 82.5774 185.454C82.1722 183.705 81.8481 181.891 81.5192 180.362C81.1236 178.342 80.7803 176.28 80.8375 174.217C78.9928 175.889 76.8144 177.251 74.5883 178.733C72.8246 179.928 71.0943 181.205 69.1543 182.105C66.094 183.563 63.2768 184.082 59.8924 183.686C57.9285 183.453 56.0266 182.905 54.1676 182.243C52.852 181.757 51.5983 181.129 50.3256 180.533C48.7335 179.828 47.2844 179.457 45.7686 178.938C44.9582 178.623 45.33 178.013 45.5874 177.385C45.7829 176.804 45.9164 176.523 46.0307 175.851C46.5217 172.731 45.7447 169.221 46.1928 165.858C46.4312 164.1 47.0127 162.385 47.8278 160.818C48.5809 159.446 49.5772 158.222 50.6926 157.127C51.6364 156.217 52.6756 155.421 53.6909 154.593C54.8063 153.654 55.569 152.959 56.6701 151.94C58.0191 150.734 59.4396 149.601 60.9316 148.581C61.4083 148.286 61.8945 148.005 62.395 147.748C60.393 147.024 58.4052 146.262 56.6034 145.109C54.6014 143.89 52.7709 142.423 50.9214 140.989C49.2626 139.674 46.9031 138.302 46.2643 136.183C46.0975 135.44 46.1785 134.663 46.2357 133.911C46.3454 132.725 46.5265 131.553 46.6171 130.367C46.8411 127.423 47.1033 124.427 48.1329 121.636C49.1959 118.964 51.074 116.715 52.9044 114.534C54.1294 113.148 55.4308 111.805 56.9371 110.719C58.6245 109.547 60.4931 108.661 62.3855 107.88C67.0187 105.936 71.3613 104.398 76.414 105.746C77.906 106.127 79.3313 106.717 80.7088 107.408C81.8004 107.937 82.8873 108.475 83.9407 109.085C85.2325 109.828 86.5052 110.614 87.7207 111.476C88.8504 112.281 89.7609 112.852 91.0574 113.619C92.4875 114.429 94.0271 115.029 95.4095 115.92C96.1007 116.377 97.0731 116.858 96.8633 117.773C97.7023 117.187 98.5269 116.577 99.4088 116.063C101.149 114.977 102.955 114.215 104.524 113.253C105.601 112.567 106.149 111.952 107.098 111.052C107.136 111.004 107.183 110.971 107.241 110.952C108.323 109.685 109.2 108.132 110.139 106.636C112.141 103.483 113.952 100.22 115.802 96.9814C117.265 94.4331 118.848 91.9514 120.707 89.6698C122.013 88.1218 123.395 86.6357 124.544 84.9638C125.407 83.6729 126.527 81.5009 127.48 79.8719C128.171 78.743 128.867 77.6141 129.659 76.5519C130.674 75.242 131.832 73.894 132.767 72.5222C133.277 71.7791 135.221 68.8783 135.569 68.2258C135.393 68.3353 135.198 68.4592 134.997 68.5687C134.368 68.9212 133.71 69.2261 133.038 69.5023C128.024 71.5791 127.733 70.9456 126.203 76.1089C125.664 77.9285 125.087 79.7385 124.453 81.5247C123.591 83.9778 122.27 86.2689 120.597 88.2599C119.553 89.4936 118.314 90.532 117.051 91.5323C115.134 93.0612 113.123 94.5379 110.806 95.4095C107.279 96.6289 103.575 97.3672 99.8473 97.5625C97.197 97.7911 94.4847 97.8054 91.8869 97.1529C89.1412 96.5098 86.6339 95.1857 84.0646 94.0663C82.3581 93.2994 80.6278 92.5516 79.05 91.537C77.8583 90.7844 76.7477 89.9175 75.6847 88.9982C75.6513 89.022 75.618 89.0458 75.5894 89.0744C72.1859 91.5037 68.4059 92.7326 64.2397 93.0089C61.8039 93.1756 59.3586 93.1994 56.9228 93.0041C54.649 92.8279 52.3943 92.4659 50.1492 92.0753C48.1758 91.718 46.2023 91.3798 44.2432 90.9416C42.6511 90.532 41.0829 90.0509 39.5194 89.5412C39.0761 89.3793 38.5899 89.2459 38.2562 88.8982C37.8844 88.4743 37.9749 87.855 38.1656 87.3644C38.3992 86.7262 38.7328 86.1308 39.0141 85.5115C39.7911 83.8253 40.2534 82.4917 40.5871 80.7054C40.9113 79.0526 41.1734 77.3855 41.4547 75.7279C41.7168 74.0179 42.122 72.3269 42.8704 70.7598C43.9 68.4497 45.4015 66.4062 47.0222 64.4819C50.3589 60.4189 54.6633 57.1227 59.5206 55.084C61.7467 54.1266 64.111 53.4741 66.523 53.2073C67.934 53.0263 69.3544 53.0835 70.7702 53.1263C72.2097 53.1406 73.6493 53.2026 75.0936 53.2645C76.619 53.3216 78.1539 53.355 79.6697 53.5646C82.0388 54.0123 84.179 54.9078 86.4671 54.4458C87.6254 54.2648 88.7742 54.0409 89.942 53.917C90.6857 53.8742 91.4769 53.7694 92.1967 53.9885C92.621 54.1933 92.5065 54.7077 92.3349 55.0459C92.2253 55.2555 92.0871 55.4413 91.9345 55.6175C93.0643 54.8125 94.2321 54.0552 95.5191 53.5265C97.2495 52.8263 99.1228 52.6548 100.958 52.4023C103.141 52.0308 105.315 51.5973 107.493 51.202C110.015 50.6256 113.49 49.8302 116.245 48.8966C118.4 48.1202 120.435 47.0056 122.575 46.1387C125.278 44.9193 128.128 43.0997 131.112 41.8994C133.324 40.9563 135.612 40.1894 137.834 39.2653C140.198 38.227 142.152 37.2124 144.407 36.0454C145.127 35.6929 146.042 35.1451 146.5 34.7308C145.746 34.4259 144.326 34.0877 143.311 33.6543C140.765 32.4777 140.436 32.1157 138.129 33.8448C136.075 35.4548 134.197 37.2791 132.099 38.8414C130.34 40.118 128.419 41.1611 126.498 42.1709C122.656 44.1667 118.457 45.6338 114.109 45.891C112.446 45.9386 110.768 45.8243 109.128 45.5385C107.55 45.2527 106.011 44.7764 104.481 44.3001C102.846 43.7666 101.192 43.2569 99.6424 42.4996C97.5641 41.4564 95.6192 40.1322 93.8937 38.5794C92.9642 37.7078 92.13 36.7456 91.21 35.8644C90.2185 34.8689 89.1555 33.9496 88.0782 33.0446C86.5433 31.7061 84.8178 30.5915 83.3592 29.1673C82.5297 28.348 81.9148 27.3477 81.3667 26.3237C80.2846 24.3755 79.6077 22.2463 78.7307 20.2077C77.191 16.6876 75.4559 12.9247 73.859 9.75714C73.716 9.47611 73.5683 9.19984 73.43 8.91405C73.4586 8.97121 73.4825 9.01408 73.4396 8.93311C73.3442 8.76163 73.2679 8.55205 73.3585 8.36152C73.4634 8.1567 73.7113 8.11859 73.921 8.14717C74.2165 8.19004 74.4978 8.27578 74.7885 8.33771C75.8086 8.56158 76.8478 8.71877 77.8774 8.88071C79.5744 9.11411 81.2665 9.38085 82.9635 9.60949C85.3135 9.8667 87.6635 10.1144 90.0231 10.2811C92.2301 10.3811 94.4371 10.5526 96.6441 10.7098C98.5269 10.8432 100.419 10.9098 102.278 11.2576C105.939 11.9149 109.452 13.2295 113.185 13.563C116.073 13.8631 119.768 13.2915 123.009 13.4391C124.491 13.5249 125.96 13.7392 127.428 13.9393C129.487 14.2536 131.556 14.7919 133.41 15.7588C135.574 16.9068 137.29 18.7215 138.725 20.6792C139.254 21.408 139.688 22.1987 140.15 22.9703C140.665 23.7944 141.137 24.647 141.418 25.5854C141.738 26.6047 141.895 27.6812 141.828 28.7481C141.785 30.058 140.961 30.7773 139.716 30.9726C138.572 31.1631 137.4 31.1631 136.241 31.2107C134.344 31.3012 132.452 31.2536 130.555 31.1964C128.052 31.1821 125.54 31.1536 123.052 30.8773C120.688 30.582 118.338 30.1199 116.05 29.4531C114.014 28.8196 112.06 27.9574 110.067 27.2144C107.836 26.4046 105.663 25.4567 103.427 24.6661C100.577 23.7134 97.9978 22.9037 94.9852 21.9986C92.8259 21.3556 90.5665 21.1317 88.4357 20.3982C87.4967 20.06 86.6577 19.4979 85.8474 18.9264C85.4279 18.6025 85.0084 18.2738 84.6033 17.9308C84.7463 18.0737 84.8988 18.2214 85.0704 18.3786C86.6673 19.8742 88.1164 20.9317 89.9087 21.9367C91.0098 22.6179 92.1967 23.1418 93.4027 23.6134C94.7326 24.123 95.6431 24.4327 97.0397 24.7184C98.527 25.0662 100.071 25.0805 101.559 25.4186C103.694 25.8759 105.734 26.6761 107.794 27.3906C109.166 27.8622 110.53 28.248 112.074 28.8196C114.839 29.8484 117.279 30.6248 120.225 31.3012C121.45 31.5918 122.666 31.9347 123.91 32.1348C125.226 32.3301 126.088 32.3539 127.437 32.3348C129.554 32.311 131.632 31.8633 133.725 31.5775C135.703 31.3393 137.7 31.2822 139.678 31.0202C140.465 30.944 141.256 30.8535 142.043 30.963C143.544 31.2155 144.969 31.8157 146.48 32.0109C150.995 32.492 155.709 30.9297 159.308 27.6526C162.597 24.7994 166.081 20.4506 169.061 16.7829C170.185 15.4063 171.244 13.9726 172.459 12.6722C173.899 11.148 175.51 9.80001 177.178 8.52823C179.3 6.92779 181.268 5.13205 183.394 3.5316C183.995 3.07433 184.595 2.62182 185.201 2.17884C185.234 2.15503 185.272 2.14074 185.31 2.13121C186.254 1.41196 187.141 0.621269 188.032 -0.159901C189.481 -1.46503 191.455 -3.34174 193.104 -4.90408C196.608 -8.23833 200.178 -11.5011 203.696 -14.8164C207.032 -17.9553 210.055 -20.1845 213.172 -23.595C217.257 -28.0629 220.78 -33.0024 224.507 -37.7656C225.251 -38.7325 226.004 -39.6899 226.757 -40.6473C226.972 -40.9188 227.186 -41.1903 227.406 -41.4571C227.482 -41.5762 227.63 -41.6476 227.763 -41.5952C227.877 -41.5666 227.963 -41.4523 227.973 -41.3332C227.982 -41.2189 227.916 -41.1237 227.844 -41.0427C227.634 -40.7664 227.42 -40.4902 227.21 -40.2139C226.595 -39.4137 225.985 -38.6134 225.375 -37.8085C221.59 -32.8928 217.986 -27.8247 213.825 -23.2187C211.027 -20.1035 207.914 -17.6695 205.131 -15.1117C201.865 -12.0584 198.591 -9.01474 195.311 -5.9758C193.29 -4.08957 191.293 -2.17951 189.252 -0.317089C188.104 0.697479 186.96 1.7311 185.735 2.65041C185.706 2.70757 185.668 2.7552 185.615 2.7933C185.387 2.96001 185.158 3.12673 184.934 3.29821C184.128 3.89838 183.332 4.51283 182.546 5.13681C181.34 6.08946 180.177 7.0945 178.99 8.0662C177.965 8.88071 176.911 9.66188 175.896 10.4954C174.361 11.7625 172.712 13.3629 171.339 15.1491C169.556 17.3783 167.764 19.6027 165.924 21.7843C164.046 24.0754 162.025 26.2522 159.808 28.2194C156.391 31.3631 151.681 33.1398 147.029 32.8159C145.232 32.7588 142.934 31.7537 141.494 31.668C140.241 31.668 139.001 31.8728 137.757 31.9919C136.551 32.111 135.336 32.1396 134.135 32.292C132.056 32.5444 129.997 33.016 127.895 33.0779C126.598 33.1208 125.292 33.0922 124.005 32.9112C122.747 32.7302 121.517 32.3825 120.278 32.0872C117.122 31.387 114.052 30.3581 111.03 29.2292C109.519 28.6957 108.089 28.3004 106.425 27.6859C104.547 26.9953 103.027 26.4618 101.001 26.0426C99.5661 25.7759 98.0979 25.7235 96.6775 25.371C95.4381 25.1138 94.2416 24.6946 93.069 24.2374C91.8058 23.742 90.5712 23.1752 89.4225 22.4511C87.4538 21.3508 85.671 19.9552 84.0789 18.3595C83.4688 17.7403 82.9683 17.0258 82.4249 16.3494C81.7385 15.473 81.0187 14.6252 80.3037 13.7678C80.1559 13.5582 80.3323 13.2248 80.5945 13.2533C80.6898 13.2533 80.7756 13.3105 80.8471 13.3724C81.0568 13.5534 81.2618 13.7392 81.4668 13.925C82.4106 14.7585 83.2305 15.7159 84.0932 16.6257C84.6796 17.2116 85.3231 17.7403 85.9761 18.2452C86.8675 18.8978 87.5873 19.4122 88.7218 19.8361C90.6094 20.4935 93.3979 20.7983 95.5859 21.4937C98.4316 22.3511 101.277 23.2133 104.085 24.1802C106.597 25.1186 109.081 26.1379 111.593 27.0715C113.58 27.8431 115.458 28.6386 117.327 29.1054C119.157 29.5436 121.002 29.9294 122.871 30.1676C125.292 30.4438 127.318 30.4915 129.797 30.5058C132.128 30.5486 134.459 30.6296 136.79 30.5058C138.062 30.4486 139.302 30.4438 140.107 30.1438C141.218 29.8437 141.218 28.6481 140.984 27.0572C140.77 25.733 140.145 24.4041 139.302 23.1037C138.196 21.1556 137.057 19.679 135.546 18.2595C133.072 15.9255 129.887 15.0538 126.374 14.6061C124.739 14.4061 123.371 14.1965 121.927 14.2108C118.485 14.2346 115.025 14.7538 111.602 14.1774C108.008 13.6582 104.585 12.3531 100.987 11.8768C99.3564 11.6624 97.7166 11.6148 96.0816 11.4814C93.622 11.2623 91.1576 11.148 88.6931 10.9622C86.7435 10.7765 84.7939 10.5812 82.8443 10.3525C81.2761 10.143 79.7174 9.87146 78.1491 9.65711C77.0146 9.47611 75.1413 9.18079 74.2404 8.94263C75.8325 12.034 77.6295 15.9493 79.1501 19.3741C80.8471 23.1466 81.7289 27.1334 84.9322 29.6246C87.2059 31.406 89.5035 33.1779 91.5627 35.2118C92.907 36.4979 94.0986 37.9459 95.5859 39.0796C97.1351 40.2656 98.3601 41.0754 100.081 41.9232C101.697 42.6853 103.532 43.2474 104.972 43.7142C108.256 44.805 111.512 45.4194 114.805 45.1622C120.754 44.5811 126.222 41.928 131.294 38.6271C133.2 37.2648 134.931 35.6834 136.718 34.1735C137.814 33.3161 138.911 32.2586 140.336 32.0395C141.118 31.9395 141.866 32.2967 142.557 32.6159C143.83 33.278 144.955 33.5876 146.204 33.9686C146.538 34.083 146.909 34.1639 147.176 34.4021C147.281 34.5069 147.324 34.6784 147.262 34.8165C147.205 34.9403 147.091 35.0261 146.99 35.1166C146.542 35.5357 146.032 35.8739 145.494 36.1597C142.882 37.5315 140.25 38.8843 137.538 40.0418C134.034 41.4088 130.459 42.6615 127.347 44.3906C126.207 44.9765 125.097 45.6147 123.953 46.1863C122.899 46.7103 121.813 47.1533 120.74 47.6248C119.248 48.3012 117.794 49.0633 116.235 49.5825C114.691 50.116 113.099 50.5066 111.516 50.9067C109.776 51.3592 108.027 51.7926 106.254 52.0975C104.185 52.4547 102.135 52.9358 100.048 53.1883C97.8834 53.4312 96.4248 53.798 94.9852 54.4981C95.3904 54.3695 95.8051 54.2552 96.2341 54.16C98.5746 53.5788 100.987 53.4931 103.375 53.7217C103.599 53.6693 103.823 53.6217 104.047 53.5693C105.482 53.274 107.417 53.0311 108.547 52.7834C110.348 52.3166 112.065 51.5735 113.828 50.9829C115.172 50.5113 116.54 50.1065 117.88 49.6158C119.381 49.0585 120.864 48.4489 122.346 47.8344C124.244 47.0628 126.06 46.1244 127.919 45.267C131.408 43.6332 134.502 42.2376 137.791 40.3704C139.592 39.3892 141.39 38.3794 143.277 37.5649C145.184 36.7361 147.172 36.1026 149.088 35.2881C153.02 33.6447 156.657 31.7633 160.142 29.0577C163.412 26.5237 166.153 23.5467 169.008 20.3315C170.772 18.3071 172.555 16.2971 174.361 14.3108C175.753 12.777 177.069 11.1528 178.661 9.82383C178.971 9.60472 179.314 9.39037 179.7 9.37608C179.862 9.36179 180 9.49041 180.053 9.6333C180.091 9.76667 180.053 9.90481 180 10.0287C179.462 11.067 178.656 11.9435 177.917 12.8437C176.845 14.0917 175.753 15.3206 174.661 16.5495C172.173 19.3789 169.761 22.2797 167.364 25.1852C166.196 26.6094 164.971 27.9813 163.76 29.3721C163.698 29.4769 163.603 29.5674 163.536 29.6722C163.054 30.3391 162.606 31.0297 162.115 31.6918C161.429 32.6349 160.633 33.4923 159.904 34.4069C158.783 35.7882 157.72 37.2124 156.595 38.589C154.651 40.9039 152.844 43.3236 150.975 45.6957C150.046 46.8389 149.221 48.063 148.206 49.1348C146.547 50.9495 145.122 52.9549 143.768 55.0031C142.658 56.6368 141.742 57.9086 140.86 59.7425C140.217 61.0476 139.654 62.3908 138.93 63.6531C137.304 66.4872 136.27 67.135 132.194 68.7307C130.95 69.2165 129.663 69.5928 128.457 70.1739C127.862 70.4312 127.137 70.9027 126.341 71.2742C125.688 71.541 124.992 71.6601 124.301 71.7791C122.532 72.0935 120.754 72.3745 118.962 72.4936C117.46 72.6175 115.949 72.5746 114.448 72.6461C113.209 72.7556 111.988 73.0176 110.758 73.1843C109.347 73.3748 107.941 73.8083 106.421 74.3418C104.895 74.8657 103.375 75.4182 101.864 75.9803C100.724 76.4233 99.5995 76.9139 98.4078 77.1997C97.5307 77.4093 96.2151 77.6189 95.6335 77.7475C93.8222 78.1571 92.006 78.5382 90.1661 78.7954C88.4214 79.0764 86.6673 79.2574 84.9179 79.4813C84.5604 79.5289 84.2029 79.5813 83.8406 79.629C81.7814 82.9918 79.3122 86.126 76.2281 88.5838C77.4818 89.6555 78.8117 90.6415 80.032 91.3465C81.6241 92.2658 83.321 92.9755 84.9941 93.7233C87.8828 95.0047 90.3568 96.2574 93.4027 96.7528C95.8671 97.1767 98.3601 96.9957 101.025 96.7956C103.38 96.6146 105.505 96.205 107.617 95.681C109.915 95.0952 111.831 94.4331 113.709 93.1613C114.786 92.4516 115.806 91.6656 116.812 90.8606C118.485 89.5603 119.844 88.2552 121.202 86.226C121.627 85.5639 122.361 84.4065 122.833 83.4109C123.352 82.3345 123.762 81.2056 124.148 80.0719C124.592 78.7573 124.901 77.7665 125.359 76.228C125.788 74.8562 126.169 73.4415 126.899 72.1935C127.833 70.5979 130.273 69.931 131.499 69.4452C132.552 69.026 133.686 68.583 134.483 68.1448C135.016 67.8923 135.474 67.4494 136.056 67.3208C136.265 67.2874 136.494 67.4398 136.489 67.6637C136.48 67.8781 136.361 68.0733 136.28 68.2639C136.036 68.7735 135.731 69.2499 135.436 69.731C135.169 70.1692 134.506 71.1361 134.459 71.2028C133.953 71.9363 133.42 72.6508 132.905 73.3796C131.761 75.0896 130.369 76.6138 129.249 78.3381C128.095 80.0052 126.841 82.4631 125.659 84.4827C124.12 87.131 121.841 89.2316 120.082 91.7228C118.042 94.5045 116.421 97.4339 114.629 100.601C113.537 102.573 112.384 104.507 111.178 106.408C110.301 107.799 109.667 108.875 108.642 110.285C108.113 110.981 107.569 111.676 106.907 112.252C106.74 112.4 106.568 112.548 106.397 112.695C106.397 112.695 106.397 112.695 106.392 112.695C106.016 113.038 105.62 113.362 105.196 113.648C104.595 114.077 103.508 114.624 103.122 114.805C101.706 115.548 100.281 116.272 98.9512 117.168C97.6975 117.921 96.5726 118.883 95.2665 119.559C93.3407 120.583 91.2672 121.283 89.2652 122.136C86.9962 123.127 84.751 124.17 82.4916 125.184C81.1331 125.832 79.746 126.594 78.1634 127.209C74.8553 128.443 71.3994 129.238 67.9626 130.019C66.8424 130.286 65.7508 130.672 64.6306 130.943C63.2244 131.258 61.9708 131.443 60.7362 131.758C58.8199 132.277 56.9847 133.053 55.1114 133.696C54.4774 133.901 53.8339 134.092 53.1761 134.216C52.7948 134.273 52.3562 134.416 52.013 134.182C51.217 133.344 53.0093 132.806 53.5574 132.515C55.407 131.686 57.3422 131.077 59.2823 130.505C61.3368 129.886 63.4151 129.376 65.5029 128.9C66.7995 128.571 68.0674 128.138 69.3449 127.742C71.2469 127.133 73.1488 126.523 74.9792 125.727C78.0395 124.403 80.604 123.003 83.5403 121.65C86.1858 120.355 89.0554 119.592 91.9441 119.064C92.7449 118.916 93.5409 118.74 94.337 118.587C95.3094 118.44 96.4105 118.073 96.2151 117.373C96.0816 117.044 94.9662 116.382 93.8984 115.829C92.6924 115.248 91.4531 114.729 90.3091 114.038C88.8314 113.181 87.0009 111.881 85.8712 111.133C83.5022 109.628 81.0044 108.327 78.4208 107.232C73.983 105.503 70.303 105.655 65.6793 107.356C62.6476 108.499 59.9068 109.513 57.3327 111.3C55.8645 112.357 54.6538 113.643 53.3382 115.144C51.5697 117.268 49.949 119.154 48.8622 121.56C47.7897 124.089 47.456 127.242 47.2224 130.205C47.1176 131.543 46.8649 133.263 46.7791 134.392C46.7172 135.63 46.7458 136.34 47.4846 137.197C48.6239 138.65 50.7927 139.993 52.442 141.327C54.425 142.88 56.1124 144.137 58.2527 145.281C59.5588 145.99 60.9507 146.514 62.3521 147.01C62.6476 147.11 62.9527 147.219 63.2625 147.333C63.9061 147.052 64.5686 146.814 65.2503 146.657C67.5383 146.157 69.9122 146.243 72.2336 146.438C73.8161 146.605 75.4034 146.838 76.9336 147.286C77.191 147.367 77.4484 147.457 77.701 147.548C78.4017 147.4 79.0739 147.262 79.6792 147.138C80.7041 146.919 81.7384 146.71 82.7109 146.305C84.0217 145.766 85.5519 144.676 86.7912 143.551C87.1869 143.189 88.3166 142.132 88.8171 141.398C89.8562 140.06 90.6713 138.36 91.4436 136.611C92.4017 134.382 93.1882 132.396 93.7078 130.186C93.9556 129.176 94.07 128.138 94.2464 127.109C94.4323 126.047 94.6659 124.999 94.8518 123.936C95.1664 122.346 95.195 120.545 96.3295 119.273C96.5249 119.021 97.2352 118.435 97.9216 118.149C100.067 117.254 101.949 116.62 103.732 115.206C103.899 115.082 104.047 114.924 104.247 114.853C104.466 114.777 104.724 114.944 104.695 115.186C104.652 115.472 104.457 115.715 104.352 115.982C104.099 116.53 103.861 117.082 103.618 117.635C102.984 119.049 102.436 120.497 101.911 121.955C101.072 124.241 100.62 125.794 99.8664 128.128C99.0608 130.676 98.4459 132.496 97.7738 134.768C96.8252 137.864 96.6632 141.127 95.7861 144.237C95.2284 146.186 94.3275 148.019 93.2406 149.725C93.0643 149.996 91.8106 151.93 89.6799 152.749C89.1746 153.011 88.5692 153.254 88.0782 153.483C87.5158 153.764 86.8866 154.112 86.3241 154.454C84.1504 155.903 82.1579 157.632 79.8651 158.903C76.6666 160.661 73.2346 161.933 69.8693 163.319C68.506 163.876 67.4478 164.51 66.094 165.167C65.1168 165.686 63.7344 166.305 62.6905 166.91C60.5503 168.134 58.6197 169.673 56.6749 171.178C55.8407 171.845 54.9446 172.431 54.1151 173.103C52.8472 174.127 51.7032 175.175 50.7308 176.027C50.378 176.332 50.0253 176.642 49.6582 176.932C49.4628 177.075 49.2769 177.256 49.0386 177.328C48.8431 177.389 48.6191 177.237 48.6191 177.023C48.6191 176.775 48.8479 176.604 48.9814 176.418C50.359 174.832 51.9034 173.403 53.4144 171.95C56.6272 168.897 60.1832 166.158 64.1968 164.243C66.4181 163.152 68.7872 162.414 71.0419 161.404C72.9247 160.523 75.618 158.913 78.0061 157.832C79.3837 157.193 80.4324 156.669 81.8433 155.893C82.9158 155.321 83.9931 154.759 84.9894 154.059C85.0466 154.016 85.1086 153.973 85.1658 153.931C84.527 153.264 83.9073 152.573 83.2686 151.906C82.3915 151.025 81.1951 149.939 80.3609 149.496C79.4266 148.986 78.5447 148.567 77.6486 148.234C75.78 148.629 73.9067 149.029 72.0477 149.463C70.6176 149.839 69.1161 149.901 67.667 149.61C66.3085 149.301 65.0358 148.701 63.7297 148.224C63.5867 148.172 63.4389 148.119 63.2959 148.067C61.9707 148.672 60.8029 149.467 59.5397 150.458C57.8761 151.711 56.7273 152.84 55.1448 154.226C53.4478 155.755 51.6936 156.874 50.3017 158.475C48.5333 160.366 47.5227 162.538 46.9745 164.981C46.6838 166.448 46.6695 167.53 46.6743 169.016C46.679 171.845 47.2177 174.808 46.1785 177.528C46.1261 177.666 46.0737 177.804 46.0164 177.937C45.9831 178.018 45.9497 178.099 45.9211 178.18C45.9068 178.213 45.8973 178.247 45.883 178.28C45.883 178.28 45.883 178.28 45.883 178.285C45.9116 178.294 46.026 178.342 46.0641 178.361C47.8898 178.966 49.3818 179.338 51.1216 180.19C54.8588 182.038 58.7913 183.31 62.8669 183.124C65.3027 183.039 67.8768 182.053 69.8788 180.981C71.5043 180.071 73.0105 178.971 74.5645 177.942C76.7858 176.484 79.0452 175.051 80.8709 173.293C81.0473 171.112 81.8433 169.054 82.7681 167.091C83.5689 165.362 84.4555 163.667 85.5852 162.133C85.8188 159.994 85.9666 157.827 86.5958 155.769C86.6053 155.745 86.9199 154.212 88.6121 153.54C90.1708 152.921 91.4817 152.644 92.783 151.654C94.2178 150.534 95.114 148.329 95.8671 146.286C96.4248 144.58 97.0779 142.723 97.4306 140.751C97.5021 140.336 97.5545 139.922 97.6356 139.507C97.6785 139.331 97.688 139.136 97.8024 138.988C97.9073 138.864 98.1075 138.855 98.2267 138.95C98.1647 137.836 98.2171 136.721 98.4745 135.606C98.8797 133.401 99.7901 131.339 100.534 129.233C101.153 127.471 101.711 125.218 102.445 123.222C104.147 118.93 106.159 114.743 108.623 110.838C110.029 108.608 111.636 106.513 113.17 104.374C114.477 102.535 115.687 100.63 116.97 98.7676C119.019 95.7811 121.088 92.7993 123.281 89.9128C124.415 88.3552 125.659 86.8833 126.875 85.3829C126.984 85.2495 127.204 85.2305 127.332 85.3496C127.423 85.4258 127.461 85.5544 127.437 85.6687C127.437 85.8021 127.413 85.9402 127.428 86.0688C127.509 87.8074 127.919 89.1078 128.295 90.8178C128.605 92.5802 128.791 94.3664 128.815 96.1573C128.858 99.625 127.208 100.378 125.321 101.983C123.424 103.602 122.194 104.536 120.483 106.27C118.299 108.527 116.54 111.4 115.792 114.143C115.22 116.282 114.762 118.464 114.543 120.669C114.395 122.384 114.443 124.784 114.519 126.813C114.558 128.757 114.729 131.129 115.082 132.687C115.659 135.011 116.583 137.245 117.599 139.412C118.824 142.003 120.754 145.08 122.308 147.876C123.795 150.625 125.464 153.268 127.251 155.826C128.557 157.779 129.878 159.727 131.379 161.537C134.673 165.615 139.478 169.287 143.916 172.045C146.18 173.412 148.549 174.598 150.942 175.727C151.557 176.013 152.172 176.299 152.801 176.556C152.749 176.246 152.706 175.937 152.682 175.622C152.549 174.498 152.949 173.431 153.359 172.402C153.831 171.192 154.093 170.316 154.446 169.059C155.189 166.401 155.876 163.729 156.538 161.052C157.449 157.498 158.078 153.859 158.03 150.339C157.887 142.908 155.938 136.007 154.465 128.79C153.464 123.503 152.115 117.925 149.064 113.424C146.943 110.366 144.502 107.951 141.785 105.312C140.036 103.64 137.814 101.878 136.003 100.749C134.845 99.9775 133.586 99.3773 132.404 98.6533C132.08 98.4437 131.77 98.2055 131.57 98.0674C131.622 98.5342 131.689 98.9962 131.765 99.4583C132.013 101.044 132.28 102.483 132.747 104.017C133.181 105.65 133.796 107.227 134.325 108.832C135.24 111.752 136.146 114.696 136.575 117.735C137.133 121.088 137.557 124.465 138.215 127.799C138.596 129.548 139.044 131.853 139.531 133.777C140.002 135.616 140.598 137.426 141.108 139.255C141.919 142.013 142.796 144.752 143.482 147.543C144.007 149.42 144.421 151.33 144.965 153.202C145.723 155.674 146.566 158.132 147.672 160.475C147.796 160.766 147.934 161.056 148.015 161.361C148.068 161.552 148.106 161.79 147.92 161.914C147.81 161.995 147.648 161.98 147.543 161.895C147.291 161.609 147.186 161.214 147.014 160.875C146.771 160.313 146.533 159.751 146.309 159.184C144.817 155.364 143.659 151.425 142.414 147.524C140.946 142.913 139.492 138.298 138.162 133.649C137.614 131.734 137.076 129.814 136.556 127.895C134.492 120.169 132.638 112.386 131.074 104.541C130.526 101.802 129.921 99.1677 129.511 96.2526C129.477 96.024 129.134 94.333 129.044 93.8519C128.81 92.5802 128.5 91.3655 128.405 89.9604C128.262 88.5314 128.209 87.0977 128.152 85.664C128.128 84.8161 128 83.9587 128.195 83.1252C128.429 81.9201 128.934 80.7864 129.435 79.6718C129.926 78.5906 130.426 77.5045 131.079 76.5043C132.724 73.9417 134.807 71.6934 136.585 69.2261C137.81 67.5256 138.916 65.2392 140.041 63.191C141.442 60.6522 143.053 58.2373 144.579 55.7699C146.099 53.3693 147.553 50.9162 149.217 48.6108C150.332 47.1675 151.614 45.7862 153.211 44.8717C153.845 44.5097 155.237 43.9143 155.275 45.5433C155.289 46.0958 155.232 46.6436 155.232 47.1961C155.175 48.2631 155.165 49.3586 154.789 50.3732C154.298 51.5783 153.421 52.5786 152.587 53.5646C149.841 56.6226 147.753 57.2561 146.361 61.381C145.942 62.548 145.594 63.5959 145.379 64.963C145.089 66.6968 145.05 68.4592 144.745 70.1882C144.512 71.6077 144.111 72.9985 143.964 74.4275C143.959 74.5323 143.954 74.6418 143.949 74.7466C143.949 74.78 143.945 74.8181 143.949 74.8371C143.94 75.1563 143.94 75.4802 143.945 75.8041C143.964 76.5233 144.016 77.2378 144.121 77.9475C144.354 79.4527 145.141 81.5057 145.856 82.8441C146.643 84.3493 147.396 85.4496 148.687 86.4356C150.318 87.6931 152.067 88.6076 153.902 89.8508C155.428 90.8416 156.867 91.9609 158.259 93.1375C159.589 94.2759 161.157 95.9811 162.063 97.0814C162.33 97.3624 162.687 97.7769 162.854 97.8674C162.94 97.6721 163.021 97.1529 163.088 96.8051C163.231 96.0049 163.369 95.2047 163.507 94.3997C163.765 92.8136 164.108 91.2465 164.599 89.7127C165.338 87.3215 166.41 85.0495 167.216 82.6774C167.712 81.2913 168.131 79.4289 168.36 77.7189C168.708 74.8371 168.765 72.1126 168.503 69.1022C168.369 67.4732 168.183 65.887 167.812 64.5057C167.454 63.2434 166.958 62.4527 166.439 61.3429C165.814 60.0283 165.352 59.0423 164.685 57.8467C163.564 55.7223 162.158 53.7694 160.695 51.8689C159.889 50.7924 159.093 49.7063 158.197 48.7013C157.859 48.306 157.62 47.9868 157.349 47.701C157.272 48.0202 157.201 48.3345 157.129 48.6537C156.815 50.1779 156.624 51.7307 156.414 53.274C156.066 55.8795 155.876 58.4945 155.699 61.1143C155.48 63.5769 155.494 66.0442 155.623 68.5116C155.761 71.4267 155.842 74.3465 156.057 77.2569C156.133 78.319 156.286 79.3765 156.391 80.4339C156.424 80.7626 156.462 81.0913 156.5 81.4199C156.51 81.6057 156.567 81.7962 156.5 81.9772C156.429 82.1201 156.252 82.1916 156.105 82.1201C155.962 82.0487 155.919 81.882 155.861 81.7438C155.699 81.3437 155.547 80.9388 155.409 80.5244C154.279 76.8949 154.145 73.0366 154.164 69.2594C154.217 67.1969 154.198 65.1344 154.341 63.0767C154.489 60.919 154.784 58.7803 155.037 56.6321C155.299 54.5172 155.518 52.3928 155.637 50.2636C155.676 49.0014 155.666 47.7391 155.747 46.4816C156.023 41.5803 157.244 39.9798 160.142 36.2359C162.001 33.8067 164.003 31.4965 166 29.1816C169.647 24.8947 173.379 20.6792 176.897 16.2875C180.096 12.2864 183.037 8.07573 186.369 4.18417C188.933 1.19286 191.846 -1.46979 194.71 -4.16578C196.965 -6.28065 199.196 -8.41934 201.589 -10.377C203.824 -12.168 206.208 -13.7684 208.343 -15.6833C211.976 -18.7698 215.603 -22.9948 218.763 -26.9626C221.013 -29.8015 223.163 -32.7213 225.418 -35.5555C227.782 -38.5134 230.189 -41.4333 232.501 -44.4293C235.48 -48.2161 238.641 -51.8505 241.725 -55.5467C242.345 -56.2945 242.974 -57.0757 243.593 -57.8664C243.722 -58.0236 243.98 -58.0474 244.132 -57.9093C244.289 -57.7759 244.313 -57.5187 244.175 -57.3663C241.429 -53.851 238.445 -50.531 235.647 -47.0586C233.893 -44.9247 232.225 -42.7289 230.509 -40.5664C228.664 -38.261 226.762 -35.9937 224.936 -33.6692C220.07 -27.458 215.355 -21.0324 209.449 -15.7452C208.3 -14.7211 207.128 -13.7208 205.908 -12.7825C204.225 -11.5059 201.88 -9.79115 200.578 -8.60987C198.624 -6.87605 196.712 -5.08984 194.82 -3.28934C192.956 -1.546 191.078 0.183052 189.305 2.02166C186.774 4.61762 184.529 7.47079 182.336 10.3525C180.558 12.6722 178.804 15.0062 176.973 17.2783C175.043 19.6742 173.026 22.0034 171.029 24.3469C167.154 28.9339 163.069 33.3542 159.475 38.1698C158.516 39.4178 157.482 41.0277 157.082 42.3138C156.553 44 156.362 45.7814 156.286 47.5438C156.252 48.5489 156.248 49.5587 156.2 50.5637C156.357 49.592 156.543 48.6203 156.748 47.6582C156.81 47.3914 156.839 46.9199 157.215 46.9484C157.539 47.0008 157.72 47.3485 157.944 47.5629C158.45 48.1488 158.702 48.4393 159.217 49.0443C160.952 51.221 162.664 53.436 164.16 55.7795C165.233 57.5514 166.167 59.4043 167.044 61.281C167.564 62.3575 168.307 63.6531 168.603 65.2059C169.108 67.8066 169.285 70.4693 169.28 73.1176C169.232 75.4563 169.08 77.7999 168.57 80.0862C168.017 82.8441 166.815 85.4067 165.824 88.0218C165.114 89.9413 164.58 91.6847 164.208 93.8186C164.036 94.7808 163.87 95.743 163.693 96.7051C163.555 97.2577 163.584 97.8864 163.231 98.358C163.088 98.5056 162.854 98.558 162.664 98.4818C162.387 98.3961 162.192 98.1579 161.991 97.9579C161.629 97.5768 161.291 97.1767 160.948 96.7766C160.318 96.0811 159.599 95.2523 158.755 94.4855C156.953 92.7993 154.703 91.1369 152.854 89.9747C150.828 88.6172 148.559 87.5216 146.89 85.6973C145.966 84.6256 145.308 83.349 144.712 82.0725C143.949 80.372 143.396 78.562 143.306 76.69C143.253 75.785 143.244 74.8752 143.349 73.9702C143.597 72.3507 144.064 70.7741 144.254 69.1451C144.507 67.1969 144.545 65.2106 145.069 63.3054C145.97 60.1473 146.9 57.8276 149.507 55.6985C150.837 54.5124 152.134 53.2788 153.202 51.845C153.912 50.9067 154.365 50.1827 154.489 48.9728C154.617 47.9058 154.674 46.5578 154.646 45.7481C154.617 44.9383 154.021 45.1718 153.869 45.2242C152.358 45.9148 150.975 47.3485 149.784 48.8728C148.087 51.1877 146.7 53.555 145.079 56.0938C143.487 58.666 141.799 61.181 140.35 63.8388C139.292 65.787 138.315 67.7876 137.038 69.6024C135.341 71.9744 133.381 74.156 131.751 76.5757C131.146 77.4379 130.45 78.843 129.916 80.0434C129.401 81.2008 128.963 82.1582 128.753 83.2776C128.562 84.0635 128.705 84.8304 128.72 85.6878C128.777 87.1024 128.834 88.5171 128.972 89.9318C129.068 91.1988 129.282 92.1848 129.539 93.4137C129.692 94.1377 130.326 97.7816 130.626 99.3058C130.936 100.882 131.303 102.516 131.642 104.269C133.162 111.943 135.121 120.069 137.195 127.88C138.129 131.358 139.13 134.816 140.164 138.264C139.764 136.897 139.364 135.53 138.987 134.154C138.353 131.539 137.8 128.9 137.304 126.256C136.899 123.932 136.589 121.593 136.203 119.264C136.027 118.13 135.812 116.649 135.627 115.715C135.24 113.948 134.74 112.209 134.22 110.476C133.572 108.289 132.695 106.174 132.109 103.969C131.537 102.045 131.246 100.054 130.989 98.0722C130.969 97.8674 130.912 97.6435 131.055 97.472C131.198 97.31 131.437 97.3434 131.603 97.4529C131.799 97.5577 132.638 98.1531 132.585 98.115C133.219 98.5342 133.92 98.8295 134.578 99.201C138.501 101.354 141.861 104.355 144.922 107.584C146.547 109.28 148.139 111.023 149.474 112.962C150.527 114.52 151.409 116.201 152.129 117.94C153.454 121.226 154.293 124.684 154.951 128.161C155.285 129.871 155.757 131.905 156.162 133.801C157.191 138.436 158.154 143.099 158.54 147.834C158.736 150.353 158.631 152.887 158.302 155.393C157.987 157.836 157.368 160.223 156.777 162.609C156.1 165.296 155.418 167.982 154.622 170.635C154.231 172.117 153.373 173.565 153.264 174.946C153.259 175.356 153.287 175.765 153.34 176.17C153.364 176.394 153.421 176.608 153.43 176.832C153.43 176.97 153.392 177.118 153.268 177.189H153.244ZM91.8535 54.5553C91.8535 54.5553 91.8535 54.5315 91.8583 54.5124C91.1528 54.341 89.718 54.4886 88.7789 54.6172C87.5968 54.7887 86.4337 55.1078 85.242 55.165C82.8825 55.2507 80.6707 54.1933 78.3302 54.1028C75.3892 53.9504 72.0143 53.917 68.8682 53.7837C65.8652 53.7503 63.315 54.3362 60.5455 55.4317C58.3099 56.3368 56.4795 57.3132 54.4202 58.766C51.5316 60.8237 50.011 62.2194 47.6133 64.9725C46.0117 66.8683 44.7199 68.5306 43.7046 70.6836C42.8513 72.3841 42.4795 73.794 42.1602 75.685C41.8456 77.4283 41.5643 79.1764 41.2116 80.9103C40.8731 82.6917 40.2391 84.3969 39.4526 86.026C39.2048 86.5547 38.9188 87.0691 38.7186 87.6169C38.7043 87.674 38.6232 87.8884 38.6804 87.7264C38.6184 87.8693 38.5994 88.017 38.6232 88.1646C38.6232 88.2837 38.628 88.4028 38.6947 88.5028C38.6566 88.4171 38.6756 88.4504 38.709 88.4933C38.7424 88.5219 38.7758 88.5457 38.8091 88.5743C38.8806 88.6219 38.9521 88.66 39.0332 88.6934C39.3716 88.8458 39.7243 88.9649 40.0771 89.0792C41.2306 89.4698 43.1755 90.0318 44.6341 90.3938C46.9936 90.8892 49.3675 91.3084 51.7413 91.7133C55.3307 92.2944 58.5625 92.6326 62.1423 92.4801C64.9261 92.3849 67.3905 92.1324 69.936 91.2798C71.8475 90.651 73.5873 89.7127 75.1842 88.5505C74.7313 88.1456 74.2833 87.736 73.84 87.3216C72.3289 85.8974 71.2802 84.5732 69.9598 83.1109C69.5165 82.6488 69.3544 82.3964 68.8158 81.8962C68.4631 81.52 68.0722 81.1151 67.9387 80.6054C67.8911 80.4101 67.9626 80.2101 68.0388 80.0291C68.22 79.6051 68.5107 79.2431 68.8587 78.943C69.3973 78.4477 69.9265 77.9523 70.4603 77.4521C72.3051 75.7279 73.9734 74.4513 75.8372 72.3031C79.0309 68.7783 81.8576 64.9344 85.1324 61.4858C85.0323 61.5525 84.9369 61.6239 84.8416 61.6906C81.0711 64.1532 77.0432 66.2252 72.7865 67.7161C70.0695 68.7593 67.3953 69.9215 65.0024 71.1933C62.7668 72.4031 60.6647 73.8273 58.5053 75.161C55.8598 76.8139 53.1904 78.4238 50.5592 80.1005C49.6725 80.6768 48.8002 81.2723 47.9374 81.8867C47.6467 82.0915 47.3607 82.3011 47.0699 82.5012C46.9269 82.6345 46.66 82.6965 46.536 82.4964C46.4741 82.4059 46.4693 82.2916 46.5122 82.1916C46.7696 81.8772 47.1223 81.639 47.4179 81.358C48.5095 80.4053 49.6296 79.486 50.7832 78.6096C52.9425 76.8806 55.2639 75.3849 57.5615 73.8512C60.0831 72.103 62.5761 70.2883 65.3122 68.8831C66.9091 68.0448 68.5679 67.3493 70.2029 66.5967C72.1239 65.7108 74.0259 64.7772 75.9612 63.9151C79.0405 62.5814 81.6622 61.3096 84.5985 59.652C86.6434 58.5088 88.6788 57.3227 90.5856 55.9557C91.1862 55.4651 91.5818 55.2507 91.8678 54.5648L91.8535 54.5553ZM88.307 58.2802C85.7378 59.852 83.0827 61.2858 80.3847 62.6242C78.5257 63.5292 76.6142 64.3199 74.7361 65.1821C73.0963 65.9394 71.4709 66.7206 69.8264 67.4684C68.2486 68.1686 66.7661 68.8212 65.4028 69.5452C62.6 70.998 60.0593 72.8937 57.4519 74.6656C56.2745 75.4611 55.0685 76.2137 53.9007 77.0282C53.1952 77.5331 52.4992 78.0475 51.808 78.5715C52.8281 77.9285 53.853 77.295 54.8778 76.6662C57.3661 75.142 59.8305 73.5654 62.3044 72.0221C65.2217 70.1835 68.3868 68.7878 71.571 67.4875C73.2393 66.8302 74.9411 66.2586 76.5713 65.506C79.1454 64.358 81.6622 62.9386 84.1886 61.3239C85.6138 60.3807 86.9533 59.3233 88.3023 58.2802H88.307ZM91.5818 56.975C89.1508 58.5088 87.4919 60.1664 85.4804 62.186C82.6871 65.0678 80.3084 68.3067 77.7153 71.36C76.271 73.0462 74.7742 74.6895 73.0963 76.1518C71.509 77.5141 70.303 78.4524 69.0017 79.7052C68.6966 80.0672 68.6204 80.2053 68.5584 80.4768C68.7062 80.8912 69.0351 81.2294 69.445 81.6295C69.8264 81.9915 70.1696 82.3869 70.5175 82.7774C72.0763 84.4922 73.2679 85.9593 75.0459 87.5026C75.27 87.7121 75.4988 87.9217 75.7324 88.1313C78.6496 85.8688 81.0425 82.868 83.0207 79.7195C81.2618 79.9719 79.5029 80.2339 77.7392 80.4292C77.1624 80.472 76.5808 80.4768 76.0088 80.4006C75.718 80.3577 75.332 80.3625 75.2128 80.0481C75.146 79.8576 75.2891 79.6623 75.4702 79.6051C76.3473 79.3813 77.2672 79.3336 78.1586 79.1621C80.0844 78.8335 82.0149 78.5286 83.9407 78.1952C83.9598 78.1619 83.9836 78.1238 84.0027 78.0904C85.5471 75.2706 87.0724 72.4317 88.45 69.5261C89.5083 67.3112 90.3568 65.0058 91.3435 62.7576C92.354 60.3807 93.5505 58.4373 95.6335 56.8559C97.259 55.6556 99.1228 54.884 101.049 54.3171C97.75 54.3648 94.3084 55.2031 91.5723 56.9846L91.5818 56.975ZM83.4879 78.9716C83.4879 78.9716 83.4974 78.9526 83.5022 78.943C83.0541 79.0193 82.6108 79.0907 82.1627 79.1574C82.606 79.0955 83.0445 79.0335 83.4879 78.9716ZM97.116 56.6702C94.9471 57.9515 93.56 59.6139 92.478 61.8716C91.3435 64.2437 90.4664 66.7301 89.3605 69.1165C88.1307 71.822 86.7054 74.4275 85.3135 77.052C85.1372 77.3807 84.9512 77.7094 84.7701 78.038C85.5518 77.8761 86.4146 77.657 87.2965 77.4617C88.7599 77.1711 89.9087 76.9234 91.4388 76.5233C93.3979 76.0708 95.3523 75.6088 97.2733 75.0181C99.8283 74.2036 102.378 73.3891 104.972 72.708C110.053 71.3314 115.911 71.3743 120.688 70.2168C122.046 69.9072 123.428 69.7167 124.797 69.4642C125.345 69.3451 126.207 69.2261 126.727 68.9403C126.346 68.6878 125.507 68.1162 125.063 67.8066C123.953 67.0111 123.233 65.8442 122.566 64.6819C121.627 63.0434 120.721 62.0098 119.286 60.8428C117.899 59.7282 116.884 59.0804 115.401 58.223C113.704 57.2227 111.926 56.3463 110.062 55.7033C109.076 55.3412 107.717 55.0793 106.43 54.8554C105.41 54.6696 104.385 54.4934 103.351 54.4029C101.134 54.8935 98.9655 55.5794 97.1017 56.6702H97.116ZM114.701 71.9316C116.188 71.8887 117.68 71.8935 119.167 71.7696C120.64 71.6553 122.108 71.4314 123.567 71.1837C124.62 70.9742 125.273 70.9503 126.265 70.5217C127.166 69.9977 128.963 69.0879 130.283 68.6592C136.532 66.6206 137.181 65.4822 138.811 62.2717C139.707 60.5046 140.508 58.6803 141.566 57.0036C143.048 54.803 144.474 52.5547 146.128 50.4732C146.876 49.5063 147.72 48.6299 148.506 47.701C150.537 45.086 152.587 42.4853 154.617 39.8703C156.762 37.3267 158.745 34.6545 160.895 32.1157C161.52 31.3679 162.063 30.5534 162.616 29.7532C162.635 29.7294 162.654 29.7008 162.668 29.677C162.668 29.596 162.692 29.5198 162.749 29.4579C164.589 27.3144 166.405 25.1471 168.183 22.9465C170.314 20.4458 172.44 17.9451 174.647 15.5111C175.715 14.3251 176.792 13.1438 177.831 11.9339C178.303 11.3814 178.832 10.7431 179.157 10.2144C179.09 10.262 179.023 10.3097 178.961 10.3621C178.885 10.424 178.813 10.4859 178.737 10.5478C177.698 11.4862 176.783 12.5436 175.844 13.5773C173.97 15.7017 172.059 17.7927 170.214 19.9362C167.263 23.3228 164.241 26.6809 160.704 29.4769C156.958 32.4539 152.639 34.6355 148.211 36.4122C146.28 37.1791 144.307 37.8411 142.429 38.7319C140.346 39.7274 137.853 41.1802 135.541 42.39C133.067 43.6618 130.521 44.8097 128.005 45.991C125.821 47.0199 123.657 48.0821 121.407 48.9633C120.082 49.4968 118.757 50.0398 117.403 50.5066C116.14 50.9495 114.858 51.3211 113.599 51.7784C111.54 52.4738 109.533 53.3883 107.365 53.6741C106.74 53.7694 106.106 53.8694 105.472 53.9837C105.701 54.0218 105.93 54.0599 106.154 54.1028C107.593 54.3505 109.042 54.5744 110.43 55.0459C113.29 56.0081 115.978 57.4466 118.466 59.1375C119.901 60.133 121.212 61.3143 122.265 62.7195C123.309 64.1437 123.977 65.968 125.159 66.9349C125.845 67.5303 126.265 67.7113 127.042 68.2544C127.218 68.383 127.433 68.483 127.537 68.6783C127.9 69.5404 126.57 69.8215 125.979 69.9929C124.51 70.3502 123.5 70.4693 121.989 70.736C120.835 70.9503 119.691 71.2076 118.538 71.4076C117.155 71.6362 115.759 71.803 114.367 71.9601C114.476 71.9506 114.591 71.9458 114.701 71.9411V71.9316ZM84.9179 78.7668C87.9305 78.3953 91.3768 77.9761 94.0462 77.3759C95.7479 76.952 97.2781 76.7996 98.7986 76.3709C101.511 75.4945 104.142 74.3656 106.854 73.4796C108.394 72.9128 110.001 72.5746 111.621 72.3555C112.293 72.2602 112.961 72.1316 113.633 72.0364C111.597 72.2602 109.557 72.4793 107.541 72.8413C104.566 73.4225 101.02 74.5704 97.8405 75.5802C95.7622 76.2328 93.641 76.7281 91.5246 77.2188C90.209 77.576 88.574 77.9142 87.5253 78.119C86.5719 78.3286 85.6234 78.5715 84.6605 78.7477C84.5508 78.7668 84.4412 78.7858 84.3268 78.8049C84.3173 78.824 84.303 78.843 84.2934 78.8621C84.5032 78.8335 84.7081 78.8002 84.9179 78.7716V78.7668ZM94.2321 119.273C93.6363 119.397 93.0404 119.535 92.4446 119.659C90.3472 120.074 87.797 120.626 85.3802 121.612C82.0102 123.046 78.8021 124.832 75.4464 126.294C72.634 127.509 69.6881 128.366 66.7709 129.276C65.4457 129.667 64.0824 129.919 62.7477 130.262C59.6684 131.077 56.5796 131.91 53.648 133.168C53.2238 133.339 52.7995 133.558 52.6041 133.677C53.219 133.649 54.4727 133.253 55.3688 132.944C57.0991 132.305 58.8152 131.601 60.6027 131.119C62.538 130.648 64.1396 130.486 65.9557 129.9C67.6384 129.376 69.364 129.043 71.0753 128.643C73.2441 128.081 75.4177 127.514 77.5294 126.756C79.3074 126.104 80.6278 125.37 82.2485 124.584C83.9502 123.794 85.6663 123.041 87.368 122.25C89.656 121.169 92.3683 120.259 94.4466 119.235C94.3751 119.249 94.3084 119.264 94.2416 119.278L94.2321 119.273ZM82.5679 156.331C81.0044 157.189 79.4123 157.989 77.7868 158.722C75.9087 159.575 73.8972 160.747 71.8379 161.766C70.3888 162.485 68.8444 162.976 67.3429 163.581C65.255 164.414 63.5771 165.2 61.6991 166.324C59.0678 167.873 56.3412 170.149 54.487 171.84C53.8244 172.46 53.1523 173.074 52.4897 173.698C53.5717 172.764 54.7062 171.893 55.8741 171.073C57.3994 169.849 58.9486 168.654 60.555 167.539C62.7954 166.005 65.1406 165.067 67.3 163.938C69.0732 162.995 70.9608 162.314 72.8294 161.585C74.6312 160.856 76.7095 159.942 78.3159 159.17C80.2512 158.251 81.9768 156.979 83.7071 155.726C83.7071 155.726 83.7071 155.726 83.7119 155.722C83.3353 155.931 82.9492 156.136 82.5679 156.336V156.331ZM81.3285 149.282C83.0684 150.487 86.0953 153.835 86.0953 153.978C86.1906 153.916 86.2859 153.859 86.3813 153.802C87.3489 153.183 88.593 152.644 89.4987 152.216C90.5188 151.735 92.0156 150.811 93.6649 147.705C95.0043 145.18 95.5525 142.727 96.0149 139.855C96.3009 137.859 96.7489 135.892 97.3448 133.963C98.0312 131.767 98.7462 129.581 99.4422 127.404C100.028 125.518 100.972 122.612 101.873 120.283C102.412 118.835 103.041 117.42 103.685 116.02C99.2944 119.302 96.6679 117.125 95.6812 123.474C95.4953 124.661 95.2427 125.832 95.0234 127.014C94.8708 127.866 94.7755 128.724 94.6039 129.571C94.2178 131.458 93.5838 133.282 92.8641 135.068C91.8726 137.45 90.8572 139.865 89.2794 141.922C88.6216 142.794 87.8161 143.537 87.0057 144.266C85.7759 145.362 84.4078 146.333 82.8825 146.971C81.5716 147.481 80.0892 147.738 78.8689 147.991C79.7221 148.358 80.5515 148.781 81.3333 149.286L81.3285 149.282ZM67.3 148.82C68.4154 149.105 69.1495 149.153 70.2268 149.11C71.3136 149.01 72.1478 148.729 73.3347 148.486C74.3119 148.272 75.3558 148.043 76.3759 147.829C75.7228 147.648 75.0507 147.505 74.3262 147.4C71.3279 146.919 68.1008 146.762 65.3409 147.353C64.9595 147.457 64.5972 147.572 64.2493 147.7C65.3504 148.124 66.4467 148.558 67.3 148.824V148.82ZM83.4211 167.291C82.6299 169.044 82.0006 170.435 81.7003 172.269C81.686 172.345 81.6717 172.426 81.6574 172.507C82.4439 171.64 83.1256 170.697 83.6499 169.64C84.5699 167.782 85.0513 166.11 85.3517 164.014C85.3755 163.852 85.3993 163.69 85.4232 163.528C84.6748 164.691 84.0694 165.901 83.4211 167.287V167.291ZM97.0779 144.618C96.6346 146.09 96.1245 147.543 95.4762 148.943C94.1368 152.04 92.1872 153.149 89.065 154.059C87.5873 154.488 87.0915 156.231 87.0486 156.398C86.653 157.998 86.4718 159.646 86.2955 161.29C87.0582 160.437 87.9209 159.675 88.7599 158.899C90.0993 157.708 91.5294 156.574 93.1358 155.764C94.1034 155.269 95.1283 154.917 96.1531 154.564C97.1494 154.221 97.8596 153.978 97.8739 153.983C98.2982 151.873 98.627 149.791 98.5508 147.81C98.4411 146.119 98.0455 144.885 97.7071 143.223C97.6785 143.028 97.6642 142.827 97.6546 142.627C97.4783 143.294 97.2733 143.956 97.0731 144.614L97.0779 144.618ZM98.2743 140.193C98.2648 141.208 98.2124 142.232 98.3506 143.237C98.5842 144.371 99.0894 146.195 99.1752 147.643C99.261 149.31 99.0465 150.982 98.7843 152.625C98.689 153.235 98.5365 153.831 98.4316 154.44C98.3315 154.993 98.3077 155.555 98.1933 156.107C97.8215 157.632 97.6832 159.199 97.483 160.751C97.2447 162.29 96.9492 163.814 96.7442 165.358C96.5058 167.072 96.3438 168.797 96.1483 170.516C95.8719 172.564 95.9338 174.341 95.848 176.484C95.6621 179.219 95.2903 182.538 95.133 184.968C95.0949 186.187 95.0758 187.407 95.1855 188.621C95.3142 189.726 95.5239 190.822 95.6335 191.932C95.7908 193.232 95.8576 194.537 95.991 195.837C96.1102 196.995 96.3152 198.152 96.3342 199.319C96.3438 199.467 96.2675 199.624 96.1197 199.672C96.0149 199.715 95.8957 199.691 95.8099 199.619C95.6192 199.405 95.6669 199.067 95.6049 198.8C95.5144 198.114 95.4238 197.428 95.3285 196.738C95.1044 195.051 94.7374 193.389 94.4657 191.712C94.0748 189.364 93.7268 187.011 93.5266 184.639C93.3884 182.977 93.2692 181.305 93.4313 179.638C93.7268 176.894 94.5419 174.231 94.8566 171.493C95.2141 168.492 95.0615 165.477 95.3571 162.304C95.5096 160.28 95.9005 158.256 96.7108 156.388C96.9587 155.798 97.2638 155.145 97.4115 154.645C96.8491 154.902 92.9451 155.922 89.6274 158.961C88.7122 159.799 87.287 161.042 86.3288 162.238C86.2717 162.309 86.2192 162.385 86.1668 162.457C85.9427 164.424 85.6567 166.382 84.9322 168.244C84.1552 170.411 82.9683 172.098 81.5335 173.541C81.3667 175.789 81.7814 178.394 82.1722 180.333C82.7395 183.129 83.1828 185.587 83.9788 188.388C85.3755 193.232 86.7436 196.095 90.3663 199.481C92.2396 201.32 93.9938 202.916 95.4238 204.973C95.7289 205.431 95.9958 205.912 96.2056 206.417C97.8358 203.001 99.895 199.815 101.635 196.461C103.06 193.823 104.18 191.403 104.457 188.469C104.919 184.82 104.228 180.719 104.962 176.856C105.272 174.917 106.068 173.079 106.216 171.116C106.33 170.159 106.154 168.887 105.925 167.72C105.582 165.815 104.781 163.381 103.818 161.39C103.217 160.151 102.174 158.513 101.292 157.122C100.71 156.207 100.081 155.312 99.6328 154.316C98.7939 152.449 99.466 150.129 99.6138 149.091C99.6805 148.61 99.7472 148.181 99.7377 147.767C99.671 146.952 99.3993 145.757 99.2753 145.138C98.9131 143.39 98.4745 141.608 98.2886 139.822C98.2791 139.95 98.2743 140.074 98.2648 140.203L98.2743 140.193ZM97.5879 155.912C97.483 156.165 97.3686 156.422 97.2637 156.674C96.6822 158.056 96.3438 159.418 96.134 161.042C95.8004 163.7 95.8099 166.177 95.686 168.835C95.9672 166.229 96.3056 163.633 96.7871 161.061C97.035 159.475 97.1303 157.86 97.5069 156.293C97.5402 156.169 97.5641 156.041 97.5879 155.912ZM95.3428 172.493C95.0997 174.065 94.7517 175.627 94.4466 177.189C93.8651 179.766 93.8984 182.019 94.1463 184.634C94.2464 185.801 94.3799 186.964 94.5372 188.126C94.5276 187.992 94.5181 187.864 94.5181 187.73C94.3989 185.053 94.7422 182.386 94.9614 179.723C95.0615 178.423 95.2236 177.056 95.2522 175.98C95.276 174.817 95.2808 173.65 95.3428 172.493ZM154.789 66.9159C154.703 70.374 154.679 73.8559 155.223 77.2854C155.332 78.0237 155.48 78.7573 155.671 79.4813C155.347 76.5757 155.237 73.6511 155.118 70.7265C155.037 68.6259 154.903 66.5253 154.927 64.4247C154.956 63.272 155.037 62.1241 155.118 60.9761C154.918 62.9481 154.775 64.9249 154.789 66.9159Z" fill="black"/>
</g>
<defs>
<clipPath id="clip0_404_158">
<rect width="176" height="255" fill="white"/>
</clipPath>
</defs>
</svg>
