<svg width="80" height="85" viewBox="0 0 80 85" fill="none" xmlns="http://www.w3.org/2000/svg">
<path d="M77.1414 51.4262V17.1238L33.1401 27.4447C33.0564 40.7747 32.9811 54.1173 33.0522 67.4515C33.0731 71.6284 33.1066 73.5704 30.4336 77.0651C27.8652 80.4258 21.0804 84.2721 16.8513 84.4939C13.3627 84.6739 6.27241 80.8276 3.84625 78.2914C-6.07173 67.9287 5.00495 53.682 16.5543 63.1323C20.6955 60.0018 25.9411 58.5411 30.2621 62.2786V12.6624C30.2621 12.2731 30.9816 11.4319 31.4459 11.3942L78.7895 0.5L79.8102 1.24077C80.1197 19.7229 79.852 38.2677 79.9315 56.7749C79.9399 58.6332 80.1909 59.4242 79.6763 61.4038C78.0073 67.8115 71.2475 71.9047 65.1445 73.2942C63.0697 73.7671 62.208 73.4239 60.2127 72.8296C56.3308 71.6703 52.4615 69.54 49.8555 66.3885C41.1548 55.8584 52.8589 43.1143 63.4336 52.2925C67.3991 49.0406 72.9918 47.672 77.1414 51.4304V51.4262ZM77.1414 3.6473L33.0606 14.0602V24.2095L77.1414 14.0602V3.6473ZM54.8835 51.9954C49.5752 52.7152 48.6508 58.7922 50.8719 62.9189C52.7794 66.468 59.397 70.6825 63.4085 70.6909C66.2111 70.6993 71.7829 67.8324 73.8201 65.8653C81.1069 58.8299 75.6774 47.9817 66.7675 53.3849C65.889 53.9164 64.266 55.6449 63.4294 55.6198C62.6597 55.5947 61.0827 53.8955 60.2336 53.3807C58.6608 52.4348 56.7449 51.7443 54.8877 51.9954H54.8835ZM8.1757 62.8477C4.70378 63.2998 2.51605 66.6731 2.81723 70.0422C3.33592 75.8095 9.13361 79.5678 14.2076 81.0494C15.9896 81.5684 16.3786 81.7609 18.2275 81.3047C22.5277 80.2417 27.6603 77.3915 29.5343 73.1895C32.5419 66.4596 27.1792 60.2194 20.3441 63.9945C19.3193 64.5637 17.416 66.5224 16.5292 66.4847C15.793 66.4513 14.7389 65.2459 14.0445 64.7562C12.4424 63.6262 10.1836 62.5841 8.1757 62.8436V62.8477Z" fill="#1D6F6D"/>
</svg>
