<svg width="82" height="80" viewBox="0 0 82 80" fill="none" xmlns="http://www.w3.org/2000/svg">
<path d="M40.8201 65.5209H6.36785C4.16859 65.5209 1.34635 63.151 0.844623 61.0329C0.142199 42.8041 0.748458 24.4267 0.535222 6.14419C0.811174 2.71313 3.2822 0.272991 6.75669 0.000488281H75.0883C78.5126 0.124353 81.1718 2.58101 81.4938 5.95839L81.5063 59.3855C81.2053 62.7959 78.8722 65.1039 75.4521 65.4961L55.3787 65.5581L42.2124 79.8686C41.6187 80.1618 40.8284 79.3897 40.8284 78.8736V65.5168L40.8201 65.5209ZM42.9942 76.0494L54.3835 63.6093L74.6744 63.568C77.9064 63.3037 79.2861 61.7513 79.5203 58.6051V6.92041C79.2987 3.76598 77.9398 2.20116 74.6828 1.9493H7.54274C4.34838 2.16812 2.76375 3.51 2.5087 6.72636V58.7992C2.7512 61.8545 4.2773 63.312 7.35459 63.568L42.2584 63.6093L42.6932 63.9602L42.9901 76.0494H42.9942Z" fill="#A8B5A8"/>
<path d="M40.8243 17.9445H41.2131C45.3942 12.0114 54.0156 11.2929 59.5807 15.8966C69.1596 23.8198 62.4029 36.0577 55.4288 42.9982C52.6819 45.7315 45.3608 51.6481 41.8863 53.0189C40.3936 53.6093 38.947 52.3211 37.6759 51.5614C28.5737 46.099 14.73 33.7538 18.3216 21.9536C20.0066 16.4168 25.7974 12.5233 31.6342 12.8784C35.1087 13.089 38.9428 15.0791 40.8201 17.9445H40.8243ZM40.2849 20.4218C39.7623 20.0048 38.9344 18.4895 38.2571 17.8454C31.9269 11.8214 21.3822 15.5539 19.9439 23.9478C18.5516 32.0733 26.1612 40.2856 32.0356 45.042C33.1896 45.9793 40.1887 51.1733 41.1002 51.099C48.9481 46.4871 59.4803 38.5804 61.7716 29.3772C64.5854 18.0642 51.9376 10.0708 43.7761 17.8454C42.8814 18.7001 41.627 21.4953 40.2849 20.4218Z" fill="#A8B5A8"/>
</svg>
